<svg width="142" height="55" viewBox="0 0 142 55" fill="none" xmlns="http://www.w3.org/2000/svg">
<path d="M35.8 53H1.384V45.08L19.528 27.944C21.256 26.264 22.624 24.776 23.632 23.48C24.64 22.184 25.36 20.96 25.792 19.808C26.224 18.656 26.44 17.456 26.44 16.208C26.44 13.904 25.72 12.08 24.28 10.736C22.888 9.344 20.944 8.648 18.448 8.648C16.192 8.648 14.104 9.272 12.184 10.52C10.312 11.768 8.512 13.712 6.784 16.352L0.52 10.16C2.872 6.944 5.56 4.52 8.584 2.888C11.656 1.208 14.944 0.368 18.448 0.368C21.952 0.368 25 0.991999 27.592 2.24C30.184 3.488 32.176 5.264 33.568 7.568C35.008 9.872 35.728 12.608 35.728 15.776C35.728 18.032 35.344 20.168 34.576 22.184C33.856 24.152 32.608 26.24 30.832 28.448C29.056 30.608 26.608 33.128 23.488 36.008L13.912 45.08H35.8V53ZM61.3943 46.16C64.4663 46.16 66.8423 44.576 68.5223 41.408C70.2023 38.192 71.0423 33.488 71.0423 27.296C71.0423 21.056 70.2023 16.352 68.5223 13.184C66.8423 9.968 64.4663 8.36 61.3943 8.36C58.3703 8.36 55.9943 9.968 54.2663 13.184C52.5863 16.352 51.7463 21.056 51.7463 27.296C51.7463 33.488 52.5863 38.192 54.2663 41.408C55.9943 44.576 58.3703 46.16 61.3943 46.16ZM61.3943 54.152C57.3623 54.152 53.8823 53.096 50.9543 50.984C48.0743 48.872 45.8423 45.824 44.2583 41.84C42.7223 37.808 41.9543 32.96 41.9543 27.296C41.9543 21.584 42.7223 16.736 44.2583 12.752C45.8423 8.72 48.0743 5.648 50.9543 3.536C53.8823 1.424 57.3623 0.368 61.3943 0.368C65.4743 0.368 68.9543 1.424 71.8343 3.536C74.7623 5.648 76.9943 8.72 78.5303 12.752C80.1143 16.736 80.9063 21.584 80.9063 27.296C80.9063 32.96 80.1143 37.808 78.5303 41.84C76.9943 45.824 74.7623 48.872 71.8343 50.984C68.9543 53.096 65.4743 54.152 61.3943 54.152ZM101.337 53H91.4734L125.673 1.52H135.537L101.337 53ZM129.345 53.792C127.137 53.792 125.121 53.264 123.297 52.208C121.521 51.152 120.105 49.712 119.049 47.888C117.993 46.016 117.465 43.952 117.465 41.696C117.465 39.344 117.993 37.28 119.049 35.504C120.105 33.68 121.521 32.24 123.297 31.184C125.121 30.128 127.137 29.6 129.345 29.6C131.553 29.6 133.569 30.128 135.393 31.184C137.217 32.24 138.657 33.68 139.713 35.504C140.769 37.28 141.297 39.344 141.297 41.696C141.297 43.952 140.745 46.016 139.641 47.888C138.585 49.712 137.169 51.152 135.393 52.208C133.617 53.264 131.601 53.792 129.345 53.792ZM129.345 46.88C130.641 46.88 131.721 46.4 132.585 45.44C133.497 44.432 133.953 43.184 133.953 41.696C133.953 40.208 133.497 38.984 132.585 38.024C131.721 37.016 130.641 36.512 129.345 36.512C128.049 36.512 126.945 37.016 126.033 38.024C125.169 38.984 124.737 40.208 124.737 41.696C124.737 43.184 125.169 44.432 126.033 45.44C126.945 46.4 128.049 46.88 129.345 46.88ZM97.7374 24.92C95.5294 24.92 93.5134 24.392 91.6894 23.336C89.9134 22.28 88.4974 20.84 87.4414 19.016C86.3854 17.144 85.8574 15.08 85.8574 12.824C85.8574 10.472 86.3854 8.408 87.4414 6.632C88.4974 4.808 89.9134 3.368 91.6894 2.312C93.5134 1.256 95.5294 0.727999 97.7374 0.727999C99.9454 0.727999 101.961 1.256 103.785 2.312C105.609 3.368 107.049 4.808 108.105 6.632C109.161 8.408 109.689 10.472 109.689 12.824C109.689 15.08 109.137 17.144 108.033 19.016C106.977 20.84 105.561 22.28 103.785 23.336C102.009 24.392 99.9934 24.92 97.7374 24.92ZM97.7374 18.008C99.0334 18.008 100.113 17.528 100.977 16.568C101.889 15.56 102.345 14.312 102.345 12.824C102.345 11.336 101.889 10.112 100.977 9.152C100.113 8.144 99.0334 7.64 97.7374 7.64C96.4414 7.64 95.3374 8.144 94.4254 9.152C93.5614 10.112 93.1294 11.336 93.1294 12.824C93.1294 14.312 93.5614 15.56 94.4254 16.568C95.3374 17.528 96.4414 18.008 97.7374 18.008Z" fill="white"/>
<path d="M35.8 53H1.384V45.08L19.528 27.944C21.256 26.264 22.624 24.776 23.632 23.48C24.64 22.184 25.36 20.96 25.792 19.808C26.224 18.656 26.44 17.456 26.44 16.208C26.44 13.904 25.72 12.08 24.28 10.736C22.888 9.344 20.944 8.648 18.448 8.648C16.192 8.648 14.104 9.272 12.184 10.52C10.312 11.768 8.512 13.712 6.784 16.352L0.52 10.16C2.872 6.944 5.56 4.52 8.584 2.888C11.656 1.208 14.944 0.368 18.448 0.368C21.952 0.368 25 0.991999 27.592 2.24C30.184 3.488 32.176 5.264 33.568 7.568C35.008 9.872 35.728 12.608 35.728 15.776C35.728 18.032 35.344 20.168 34.576 22.184C33.856 24.152 32.608 26.24 30.832 28.448C29.056 30.608 26.608 33.128 23.488 36.008L13.912 45.08H35.8V53ZM61.3943 46.16C64.4663 46.16 66.8423 44.576 68.5223 41.408C70.2023 38.192 71.0423 33.488 71.0423 27.296C71.0423 21.056 70.2023 16.352 68.5223 13.184C66.8423 9.968 64.4663 8.36 61.3943 8.36C58.3703 8.36 55.9943 9.968 54.2663 13.184C52.5863 16.352 51.7463 21.056 51.7463 27.296C51.7463 33.488 52.5863 38.192 54.2663 41.408C55.9943 44.576 58.3703 46.16 61.3943 46.16ZM61.3943 54.152C57.3623 54.152 53.8823 53.096 50.9543 50.984C48.0743 48.872 45.8423 45.824 44.2583 41.84C42.7223 37.808 41.9543 32.96 41.9543 27.296C41.9543 21.584 42.7223 16.736 44.2583 12.752C45.8423 8.72 48.0743 5.648 50.9543 3.536C53.8823 1.424 57.3623 0.368 61.3943 0.368C65.4743 0.368 68.9543 1.424 71.8343 3.536C74.7623 5.648 76.9943 8.72 78.5303 12.752C80.1143 16.736 80.9063 21.584 80.9063 27.296C80.9063 32.96 80.1143 37.808 78.5303 41.84C76.9943 45.824 74.7623 48.872 71.8343 50.984C68.9543 53.096 65.4743 54.152 61.3943 54.152ZM101.337 53H91.4734L125.673 1.52H135.537L101.337 53ZM129.345 53.792C127.137 53.792 125.121 53.264 123.297 52.208C121.521 51.152 120.105 49.712 119.049 47.888C117.993 46.016 117.465 43.952 117.465 41.696C117.465 39.344 117.993 37.28 119.049 35.504C120.105 33.68 121.521 32.24 123.297 31.184C125.121 30.128 127.137 29.6 129.345 29.6C131.553 29.6 133.569 30.128 135.393 31.184C137.217 32.24 138.657 33.68 139.713 35.504C140.769 37.28 141.297 39.344 141.297 41.696C141.297 43.952 140.745 46.016 139.641 47.888C138.585 49.712 137.169 51.152 135.393 52.208C133.617 53.264 131.601 53.792 129.345 53.792ZM129.345 46.88C130.641 46.88 131.721 46.4 132.585 45.44C133.497 44.432 133.953 43.184 133.953 41.696C133.953 40.208 133.497 38.984 132.585 38.024C131.721 37.016 130.641 36.512 129.345 36.512C128.049 36.512 126.945 37.016 126.033 38.024C125.169 38.984 124.737 40.208 124.737 41.696C124.737 43.184 125.169 44.432 126.033 45.44C126.945 46.4 128.049 46.88 129.345 46.88ZM97.7374 24.92C95.5294 24.92 93.5134 24.392 91.6894 23.336C89.9134 22.28 88.4974 20.84 87.4414 19.016C86.3854 17.144 85.8574 15.08 85.8574 12.824C85.8574 10.472 86.3854 8.408 87.4414 6.632C88.4974 4.808 89.9134 3.368 91.6894 2.312C93.5134 1.256 95.5294 0.727999 97.7374 0.727999C99.9454 0.727999 101.961 1.256 103.785 2.312C105.609 3.368 107.049 4.808 108.105 6.632C109.161 8.408 109.689 10.472 109.689 12.824C109.689 15.08 109.137 17.144 108.033 19.016C106.977 20.84 105.561 22.28 103.785 23.336C102.009 24.392 99.9934 24.92 97.7374 24.92ZM97.7374 18.008C99.0334 18.008 100.113 17.528 100.977 16.568C101.889 15.56 102.345 14.312 102.345 12.824C102.345 11.336 101.889 10.112 100.977 9.152C100.113 8.144 99.0334 7.64 97.7374 7.64C96.4414 7.64 95.3374 8.144 94.4254 9.152C93.5614 10.112 93.1294 11.336 93.1294 12.824C93.1294 14.312 93.5614 15.56 94.4254 16.568C95.3374 17.528 96.4414 18.008 97.7374 18.008Z" fill="url(#paint0_linear_355_8633)"/>
<defs>
<linearGradient id="paint0_linear_355_8633" x1="143" y1="27.5" x2="-2" y2="27.5" gradientUnits="userSpaceOnUse">
<stop stop-color="#65ACFF"/>
<stop offset="1" stop-color="#FF314A"/>
</linearGradient>
</defs>
</svg>
