<svg width="159" height="119" viewBox="0 0 159 119" fill="none" xmlns="http://www.w3.org/2000/svg">
<path d="M34.6024 80.0354C14.6138 74.3202 3.04826 53.473 8.76358 33.4632C14.4788 13.4746 35.326 1.90906 55.3358 7.62438L117.753 25.5001C137.741 31.2153 149.307 52.0626 143.591 72.0724C137.876 92.0821 117.029 103.627 97.0192 97.9112L57.9295 86.7173L25.8145 110.821L34.6024 80.0354Z" fill="black" stroke="black" stroke-width="2" stroke-miterlimit="10" stroke-linecap="round" stroke-linejoin="round"/>
<path d="M44.4071 82.8499C24.4185 77.1346 12.8529 56.2875 18.5683 36.2777C24.2835 16.2891 45.1308 4.72351 65.1405 10.4388L127.557 28.3145C147.546 34.0298 159.111 54.877 153.396 74.8868C147.681 94.8754 126.834 106.441 106.824 100.726L67.7342 89.5318L35.6192 113.636L44.4071 82.8499Z" fill="white" stroke="black" stroke-width="2" stroke-miterlimit="10" stroke-linecap="round" stroke-linejoin="round"/>
<path d="M47.6926 47.6829L48.8957 43.4993L73.4464 36.4985L71.8134 42.2246L53.9156 46.9909L53.8082 47.3501L66.4423 60.9243L64.8093 66.6504L47.6926 47.6829Z" fill="black"/>
<path d="M67.9817 75.4225L95.1588 33.97L99.9552 35.345L72.7781 76.7975L67.9817 75.4225Z" fill="black"/>
<path d="M97.5374 69.7981L115.435 64.9684L115.543 64.6093L102.887 51.0984L104.52 45.3723L121.637 64.3186L120.434 68.5023L95.8833 75.503L97.5374 69.7981Z" fill="black"/>
</svg>
