<svg width="42" height="42" viewBox="0 0 42 42" fill="none" xmlns="http://www.w3.org/2000/svg">
<g clip-path="url(#clip0_202_4469)">
<g filter="url(#filter0_d_202_4469)">
<path d="M8.02025 30.3119C6.21775 28.3974 5.25 26.2502 5.25 22.7694C5.25 16.6444 9.54975 11.1547 15.8025 8.44043L17.3653 10.8519C11.529 14.0089 10.388 18.1057 9.933 20.6887C10.8728 20.2022 12.103 20.0324 13.3088 20.1444C16.4657 20.4367 18.9543 23.0284 18.9543 26.2502C18.9543 27.8746 18.3089 29.4325 17.1603 30.5812C16.0116 31.7299 14.4537 32.3752 12.8292 32.3752C10.9515 32.3752 9.156 31.5177 8.02025 30.3119ZM25.5203 30.3119C23.7178 28.3974 22.75 26.2502 22.75 22.7694C22.75 16.6444 27.0498 11.1547 33.3025 8.44043L34.8652 10.8519C29.029 14.0089 27.888 18.1057 27.433 20.6887C28.3727 20.2022 29.603 20.0324 30.8088 20.1444C33.9657 20.4367 36.4542 23.0284 36.4542 26.2502C36.4542 27.8746 35.8089 29.4325 34.6603 30.5812C33.5116 31.7299 31.9537 32.3752 30.3292 32.3752C28.4515 32.3752 26.656 31.5177 25.5203 30.3119Z" fill="white"/>
<path d="M33.8026 10.5912L33.024 9.38975C27.2945 12.0935 23.5 17.1993 23.5 22.7694C23.5 26.0693 24.4017 28.0297 26.0662 29.7977L33.8026 10.5912ZM33.8026 10.5912C31.1912 12.1339 29.5459 13.8804 28.4924 15.5925C27.35 17.4492 26.9294 19.2244 26.6944 20.5586L26.4313 22.0518L27.7778 21.3547C28.5566 20.9515 29.6337 20.7885 30.7394 20.8912L30.7396 20.8912C33.5281 21.1494 35.7042 23.4329 35.7042 26.2502C35.7042 27.6757 35.138 29.0429 34.1299 30.0509C33.1219 31.0589 31.7548 31.6252 30.3292 31.6252C28.6677 31.6252 27.0669 30.86 26.0663 29.7978L33.8026 10.5912ZM15.524 9.38975L16.3026 10.5912C13.6912 12.1339 12.0459 13.8804 10.9924 15.5925C9.84996 17.4492 9.42938 19.2244 9.19437 20.5586L8.93134 22.0518L10.2778 21.3547C11.0566 20.9515 12.1337 20.7885 13.2394 20.8912L13.2396 20.8912C16.0281 21.1494 18.2043 23.4329 18.2043 26.2502C18.2043 27.6757 17.638 29.0429 16.6299 30.0509C15.6219 31.0589 14.2548 31.6252 12.8292 31.6252C11.1676 31.6252 9.56681 30.86 8.56619 29.7977C6.90166 28.0297 6 26.0693 6 22.7694C6 17.1993 9.79445 12.0935 15.524 9.38975Z" stroke="black" stroke-width="1.5"/>
</g>
</g>
<defs>
<filter id="filter0_d_202_4469" x="5.25" y="7.44043" width="32.2042" height="24.9346" filterUnits="userSpaceOnUse" color-interpolation-filters="sRGB">
<feFlood flood-opacity="0" result="BackgroundImageFix"/>
<feColorMatrix in="SourceAlpha" type="matrix" values="0 0 0 0 0 0 0 0 0 0 0 0 0 0 0 0 0 0 127 0" result="hardAlpha"/>
<feOffset dx="1" dy="-1"/>
<feComposite in2="hardAlpha" operator="out"/>
<feColorMatrix type="matrix" values="0 0 0 0 0 0 0 0 0 0 0 0 0 0 0 0 0 0 1 0"/>
<feBlend mode="normal" in2="BackgroundImageFix" result="effect1_dropShadow_202_4469"/>
<feBlend mode="normal" in="SourceGraphic" in2="effect1_dropShadow_202_4469" result="shape"/>
</filter>
<clipPath id="clip0_202_4469">
<rect width="42" height="42" fill="white"/>
</clipPath>
</defs>
</svg>
