<svg width="24" height="24" viewBox="0 0 24 24" fill="none" xmlns="http://www.w3.org/2000/svg">
<path d="M22 4.84999V16.74C22 17.71 21.21 18.6 20.24 18.72L19.93 18.76C18.29 18.98 15.98 19.66 14.12 20.44C13.47 20.71 12.75 20.22 12.75 19.51V5.59999C12.75 5.22999 12.96 4.88999 13.29 4.70999C15.12 3.71999 17.89 2.83999 19.77 2.67999H19.83C21.03 2.67999 22 3.64999 22 4.84999Z" fill="#2E2E2E"/>
<path d="M10.7122 4.71005C8.88219 3.72005 6.11219 2.84005 4.23219 2.68005H4.16219C2.96219 2.68005 1.99219 3.65005 1.99219 4.85005V16.7401C1.99219 17.7101 2.78219 18.6001 3.75219 18.7201L4.06219 18.7601C5.70219 18.9801 8.01219 19.6601 9.87219 20.4401C10.5222 20.7101 11.2422 20.2201 11.2422 19.5101V5.60005C11.2422 5.22005 11.0422 4.89005 10.7122 4.71005ZM5.00219 7.74005H7.25219C7.66219 7.74005 8.00219 8.08005 8.00219 8.49005C8.00219 8.91005 7.66219 9.24005 7.25219 9.24005H5.00219C4.59219 9.24005 4.25219 8.91005 4.25219 8.49005C4.25219 8.08005 4.59219 7.74005 5.00219 7.74005ZM8.00219 12.2401H5.00219C4.59219 12.2401 4.25219 11.9101 4.25219 11.4901C4.25219 11.0801 4.59219 10.7401 5.00219 10.7401H8.00219C8.41219 10.7401 8.75219 11.0801 8.75219 11.4901C8.75219 11.9101 8.41219 12.2401 8.00219 12.2401Z" fill="#2E2E2E"/>
</svg>
