<svg width="42" height="42" viewBox="0 0 42 42" fill="none" xmlns="http://www.w3.org/2000/svg">
<g clip-path="url(#clip0_2630_5014)">
<path d="M11.736 6.6812C11.736 6.11961 11.7242 5.60482 11.739 5.09065C11.7573 4.45658 11.9241 4.17934 12.2656 4.15667C12.6071 4.134 12.796 4.37668 12.893 5.0182C12.9677 5.50598 13.0056 5.99895 13.0722 6.60409L28.5402 6.47142C28.5718 6.14812 28.5942 5.85745 28.6298 5.56845C28.6665 5.27409 28.7033 4.97869 28.7642 4.68865C28.8382 4.33687 29.0491 4.10781 29.4304 4.10453C29.8447 4.10081 30.0823 4.34729 30.1485 4.72636C30.2253 5.16538 30.251 5.61332 30.2979 6.05741C30.3107 6.1776 30.3216 6.29808 30.3405 6.48985C31.0705 6.52758 31.7809 6.58471 32.4915 6.59738C35.6293 6.65315 37.3978 8.57936 38.0261 11.2892C38.3425 12.6535 38.4112 14.086 38.4845 15.4931C38.655 18.7647 38.7791 22.0396 38.8846 25.3133C38.9443 27.1475 38.9303 28.985 38.9458 30.8212C38.9775 34.5331 36.1559 36.5193 33.6758 37.1923C32.8139 37.4337 31.9262 37.5714 31.0318 37.6024C25.8106 37.7299 20.5882 37.8721 15.3661 37.8757C12.5809 37.8778 9.81415 37.4361 7.08966 36.8477C4.99837 36.3961 3.38673 34.4593 3.13697 32.2189C3.06023 31.4783 3.02855 30.7339 3.04211 29.9895C3.0696 27.4331 3.14743 24.8771 3.15848 22.3207C3.17148 19.3427 3.14219 16.3645 3.11366 13.3865C3.10589 12.5697 3.05302 11.776 3.34998 10.9695C4.17843 8.72013 5.80217 7.47736 8.11364 7.08516C9.04262 6.92739 9.99027 6.87927 10.9293 6.77936C11.173 6.75341 11.4137 6.72057 11.736 6.6812ZM36.5685 15.2576C31.2584 15.431 26.0672 15.6154 20.875 15.7662C15.6617 15.9181 10.4465 16.0378 5.19329 16.1726C5.18791 16.2356 5.16939 16.3545 5.16924 16.4734C5.16427 20.4453 5.16109 24.4174 5.1597 28.3894C5.1597 29.4561 5.15417 30.524 5.20302 31.5888C5.23445 32.3391 5.52079 33.0562 6.01493 33.6224C6.50907 34.1885 7.18154 34.5698 7.92167 34.7036C10.9391 35.214 13.9544 35.6878 17.0348 35.6049C19.8441 35.529 22.6562 35.5555 25.4663 35.4987C27.7029 35.454 29.9391 35.3669 32.1733 35.2656C33.1479 35.2151 34.0892 34.895 34.892 34.3411C35.9757 33.6123 36.7039 32.6581 36.7277 31.284C36.7461 30.2178 36.8151 29.1516 36.7985 28.0858C36.7353 24.0404 36.6461 19.9954 36.5679 15.9504C36.5643 15.7061 36.5689 15.4619 36.5689 15.2576H36.5685ZM4.99359 14.3216C15.509 13.7609 25.8578 13.3958 36.2709 13.1482C36.2111 12.6196 36.2031 12.1193 36.0916 11.6431C35.7467 10.1762 35.1016 8.92046 33.4995 8.48472C32.483 8.20825 31.4406 8.28814 30.3626 8.31274C30.3385 8.54925 30.3231 8.7425 30.2979 8.93442C30.2771 9.13147 30.2453 9.32724 30.2029 9.5208C30.051 10.1361 29.7398 10.4155 29.2605 10.3823C28.7775 10.3491 28.5016 10.026 28.458 9.39272C28.4331 9.03125 28.4535 8.66663 28.4535 8.32141H13.1896C13.1896 8.67408 13.1963 8.94164 13.188 9.20857C13.1877 9.57993 13.1678 9.95096 13.1282 10.3202C13.1145 10.4969 13.0342 10.6618 12.9035 10.7817C12.7729 10.9016 12.6016 10.9677 12.4241 10.9667C12.0058 10.9917 11.7683 10.7281 11.6757 10.3693C11.6214 10.0775 11.5979 9.78089 11.6056 9.48424C11.5922 9.15005 11.5922 8.81527 11.5849 8.38774C10.4542 8.48303 9.41993 8.46752 8.43299 8.67659C6.79148 9.02449 5.44172 9.83754 5.13834 11.6641C4.99867 12.5083 5.039 13.3825 4.99359 14.3216Z" fill="black"/>
<path d="M12.1884 32.2619C11.9691 32.2714 11.5479 32.3066 11.1267 32.3051C10.2135 32.303 9.65663 31.8906 9.48678 31.0078C9.2799 29.9842 9.3255 28.9259 9.61971 27.9238C9.67455 27.7069 9.78693 27.5088 9.94498 27.3504C10.1031 27.1919 10.301 27.0788 10.5179 27.0231C11.7109 26.6765 12.9564 26.546 14.1955 26.6374C14.8593 26.6834 15.3728 27.0524 15.5249 27.747C15.7552 28.7969 15.8171 29.8577 15.5308 30.9085C15.2904 31.7898 14.7219 32.2254 13.804 32.2592C13.3337 32.2762 12.8621 32.2619 12.1884 32.2619ZM13.2849 28.7101H11.345L11.4272 29.9991H13.2849V28.7101Z" fill="black"/>
<path d="M24.1827 28.9198C24.1827 29.1726 24.1861 29.3216 24.1827 29.4704C24.1415 31.0138 23.644 31.6142 22.114 31.8802C21.3321 32.0161 20.5398 32.106 19.7486 32.1725C18.8905 32.2448 18.3145 31.8635 18.1463 31.0602C17.9335 30.0398 17.8087 29.0044 18.0325 27.9599C18.19 27.226 18.6247 26.7373 19.3584 26.6281C20.3397 26.4754 21.329 26.3794 22.3215 26.3408C23.4295 26.3057 23.9113 26.7537 24.0841 27.8381C24.1449 28.2288 24.1564 28.6276 24.1827 28.9198ZM21.9588 28.4519H19.8192C19.8909 29.0084 19.9552 29.5055 20.0215 30.0202C20.5028 29.9734 20.8962 29.9385 21.289 29.8962C22 29.8197 22.0768 29.7321 22.043 29.0096C22.0346 28.8416 21.993 28.6751 21.9582 28.4519H21.9588Z" fill="black"/>
<path d="M29.4004 32.0081C28.9294 32.0294 28.4577 32.0266 27.987 31.9994C27.1338 31.91 26.6366 31.4602 26.5854 30.6275C26.5246 29.7125 26.5358 28.7944 26.6188 27.8811C26.7085 26.9473 27.1327 26.5663 28.072 26.4926C28.9865 26.4208 29.9084 26.4003 30.8259 26.4193C31.7943 26.4394 32.7066 27.0605 32.6349 28.3318C32.5999 28.9505 32.5889 29.5729 32.5091 30.1863C32.3564 31.3585 31.7806 31.873 30.5907 31.9623C30.1944 31.9921 29.7973 32.0127 29.4006 32.0376L29.4004 32.0081ZM28.481 28.2225C28.5109 28.8571 28.5334 29.3382 28.5557 29.8021H30.2944C30.3392 29.3225 30.376 28.9123 30.4198 28.435L28.481 28.2225Z" fill="black"/>
<path d="M29.3223 23.9578C28.9012 23.9815 28.4798 24.028 28.059 24.024C27.0209 24.0142 26.4803 23.5247 26.4286 22.5001C26.3884 21.7084 26.3884 20.9154 26.4286 20.1239C26.4797 19.1329 26.837 18.7086 27.819 18.6062C28.9038 18.4917 29.9945 18.4444 31.085 18.4648C32.0973 18.4852 32.6367 19.0532 32.6313 20.084C32.6203 20.9243 32.5338 21.762 32.3728 22.5868C32.2113 23.4456 31.6934 23.8448 30.8092 23.9068C30.3163 23.9415 29.8178 23.9131 29.3217 23.9131L29.3223 23.9578ZM28.2767 21.9485H30.4046C30.4621 21.4364 30.5132 20.9819 30.5781 20.4026L28.2767 20.3013V21.9485Z" fill="black"/>
<path d="M17.4375 21.3242C17.4872 20.8321 17.5186 20.3113 17.5975 19.7972C17.6871 19.2156 17.9777 18.7664 18.5983 18.6406C19.6963 18.4179 20.8002 18.2289 21.9277 18.3627C22.9122 18.4793 23.4464 18.8976 23.5829 19.8778C23.674 20.6115 23.6619 21.3545 23.5472 22.0849C23.4322 22.8752 22.8713 23.35 22.0751 23.454C21.1143 23.5792 20.1481 23.6788 19.1814 23.7382C18.2469 23.7957 17.6811 23.3197 17.5197 22.3918C17.4608 22.0519 17.4647 21.7009 17.4375 21.3242ZM21.4724 20.3437L19.2437 20.1965C19.2785 20.7499 19.3052 21.1766 19.336 21.6649L21.4721 21.4506L21.4724 20.3437Z" fill="black"/>
</g>
<defs>
<clipPath id="clip0_2630_5014">
<rect width="36" height="34" fill="white" transform="translate(3 4)"/>
</clipPath>
</defs>
</svg>
