<svg width="248" height="232" viewBox="0 0 248 232" fill="none" xmlns="http://www.w3.org/2000/svg">
<path d="M105.861 183.279C102.968 168.373 113.695 134.327 119.42 119.167C121.329 120.069 137.299 116.963 142.421 109.551C146.519 103.62 153.479 101.291 156.885 100.234C161.404 98.8318 168.938 99.0321 170.344 102.438L171.85 105.944C176.772 120.069 172.486 141.54 169.44 151.123L158.19 153.126C149.673 139.343 154.039 122.54 157.286 115.862C153.831 120.51 144.129 125.411 139.709 127.281C139.508 139.603 120.626 182.077 116.508 184.782C113.213 186.945 108.037 184.681 105.861 183.279Z" fill="black"/>
<path d="M113.052 184.357L111.625 186.891M107.137 182.752L104.414 189.776L104.18 190.377C103.921 190.986 103.741 192.005 104.18 192.874C104.489 193.487 105.106 194.025 106.22 194.291C108.912 194.932 119.035 195.628 123.76 195.896C124.576 195.996 126.126 195.615 125.8 193.287C125.474 190.959 123.76 188.829 121.823 187.97C120.251 187.272 116.198 186.19 111.625 186.891L107.137 182.752ZM110.197 187.167C110.677 187.054 111.154 186.963 111.625 186.891L110.197 187.167Z" stroke="black" stroke-width="1.35351" stroke-linecap="round"/>
<path d="M159.489 151.792C159.389 154.765 159.659 160.619 160.391 161.514C161.293 162.617 162.396 162.717 169.111 160.612C174.484 158.928 176.629 158.908 177.932 158.708C178.834 158.569 179.937 158.447 179.937 156.202C179.937 153.395 178.834 151.491 175.426 151.09C172.7 150.769 168.811 152.426 167.207 153.295V150.589" stroke="black" stroke-width="1.35351" stroke-linecap="round"/>
<path d="M146.311 51.1709C135.987 52.207 115.7 56.574 117.143 65.7527C117.365 66.5321 118 67.7756 119.186 68.9453C120.327 70.0719 121.978 71.1302 124.26 71.6392" stroke="black" stroke-width="1.35351" stroke-linecap="round"/>
<path d="M119.992 68.7148C123.238 73.6387 132.753 84.3335 144.847 87.7211" stroke="black" stroke-width="1.35351" stroke-linecap="round"/>
<path d="M143.391 89.1838C144.044 88.1732 145.761 86.3464 147.777 86.2598" stroke="black" stroke-width="1.35351" stroke-linecap="round"/>
<path d="M149.227 84.7971C149.159 82.0686 146.724 75.0322 137.531 68.7148" stroke="black" stroke-width="1.35351" stroke-linecap="round"/>
<path d="M134.617 71.6391C135.492 70.0209 138.178 66.5855 141.927 65.791" stroke="black" stroke-width="1.35351" stroke-linecap="round"/>
<path d="M156.547 68.7148C157.034 69.1579 158.009 70.3631 158.009 71.6389" stroke="black" stroke-width="1.35351" stroke-linecap="round"/>
<path d="M157.325 89.1822C159.331 89.0914 163.521 88.8189 164.231 88.4554C165.119 88.0014 165.317 88.0014 165.317 87.0929C165.317 86.1847 157.325 87.7289 157.325 84.8222C158.049 84.156 159.219 82.6603 158.114 82.0062C157.009 81.3523 154.694 83.2478 153.674 84.2772C152.622 85.3066 150.261 86.9296 149.234 85.1854" stroke="black" stroke-width="1.35351" stroke-linecap="round"/>
<path d="M144.852 87.7217C145.784 90.4002 149.14 95.2079 155.107 93.0109C161.075 90.8138 161.323 89.6542 160.701 89.3491" stroke="black" stroke-width="1.35351" stroke-linecap="round"/>
<path d="M194.547 89.1834C195.942 88.7927 198.991 86.9756 200.028 82.8315C201.064 78.6876 199.662 78.6673 198.832 79.175" stroke="black" stroke-width="1.35351" stroke-linecap="round"/>
<path d="M188.711 86.2592C189.124 84.0729 190.58 79.855 193.097 80.4721" stroke="black" stroke-width="1.35351" stroke-linecap="round"/>
<path d="M189.228 83.1989C187.368 81.7121 186.229 85.1226 185.892 87.0138C183.789 87.6398 182.994 90.6005 182.859 92.0025C187.725 92.4879 191.183 91.217 193.373 89.7073C194.714 88.783 195.579 87.7692 196.002 87.0138C197.046 84.3077 198.569 78.6603 196.305 77.7213C194.04 76.7823 193.407 78.895 193.373 80.0687C193.616 82.7295 192.194 85.677 191.452 86.8182" stroke="black" stroke-width="1.35351" stroke-linecap="round"/>
<path d="M160.93 90.6455C165.395 94.612 176.325 100.536 184.322 92.4987" stroke="black" stroke-width="1.35351" stroke-linecap="round"/>
<path d="M160.932 90.6455C160.932 92.6409 160.347 97.1887 158.008 99.4176" stroke="black" stroke-width="1.35351" stroke-linecap="round"/>
<path d="M119.997 95.0312C115.583 100.47 109.405 112.762 119.997 118.424" stroke="black" stroke-width="1.35351" stroke-linecap="round"/>
<path d="M241.344 71.639L244.268 67.2529" stroke="black" stroke-width="1.35351" stroke-linecap="round"/>
<path d="M242.805 73.3006L247.191 73.1016" stroke="black" stroke-width="1.35351" stroke-linecap="round"/>
<path d="M241.344 76.0254L244.268 78.9494" stroke="black" stroke-width="1.35351" stroke-linecap="round"/>
<path d="M157.997 197.372H87.8203V230.999" stroke="black" stroke-width="1.35351" stroke-linecap="round"/>
<path d="M206.253 163.747H149.234V204.684" stroke="black" stroke-width="1.35351" stroke-linecap="round"/>
<path d="M244.269 115.5H197.484V171.057" stroke="black" stroke-width="1.35351" stroke-linecap="round"/>
<path d="M235.492 78.9492V122.81" stroke="black" stroke-width="1.35351" stroke-linecap="round"/>
<path d="M235.492 64.3281V68.7142" stroke="black" stroke-width="1.35351" stroke-linecap="round"/>
<path d="M144.85 91.1733L88.2206 97.9557C81.6698 92.4915 83.255 84.334 84.8664 80.9382L124.231 76.0254" stroke="black" stroke-width="1.35351" stroke-linecap="round"/>
<path d="M165.32 89.1837L184.327 87.7217" stroke="black" stroke-width="1.35351" stroke-linecap="round"/>
<path d="M198.236 84.7972L211.03 83.905L228.188 76.1044C226.125 73.9078 227.257 71.951 228.116 71.251L211.03 67.2529L143.391 72.9028" stroke="black" stroke-width="1.35351" stroke-linecap="round"/>
<path d="M78.9869 81.0518L84.4819 80.4111C80.6709 89.6603 85.0394 95.9527 87.8279 98.4011L81.4146 99.4174C76.0541 92.345 77.436 84.4302 78.9869 81.0518Z" fill="black"/>
<path d="M229.313 77.4868C227.289 75.2161 228.426 72.512 229.269 71.6387L236.952 73.6772L229.313 77.4868Z" fill="black"/>
<path d="M212.104 67.2529C209.897 69.901 206.808 76.8249 212.104 83.3352" stroke="black" stroke-width="1.35351"/>
<path d="M162.391 52.6314C164.099 51.5904 176.948 52.5938 179.446 36.5883C183.723 36.6379 186.049 33.1686 182.785 31.6839C179.306 29.9074 179.567 26.646 180.198 24.7244C181.2 22.2042 181.26 19.5583 181.044 19.0049" stroke="black" stroke-width="1.35351" stroke-linecap="round"/>
<path d="M176.251 32.1726C176.655 32.1774 176.99 31.5267 176.999 30.7193C177.009 29.9119 176.689 29.2535 176.286 29.2488C175.882 29.2441 175.547 29.8948 175.538 30.7022C175.528 31.5096 175.848 32.1679 176.251 32.1726Z" fill="black"/>
<path d="M174.086 26.3165C174.826 25.2888 176.739 23.7857 178.472 25.9937" stroke="black" stroke-width="1.35351" stroke-linecap="round"/>
<path d="M168.242 40.9365C169.625 42.422 171.142 42.8437 174.09 41.8852" stroke="black" stroke-width="1.35351" stroke-linecap="round"/>
<path d="M158.326 26.3164C157.919 26.9885 157.578 28.5143 159.47 29.2405" stroke="black" stroke-width="1.35351" stroke-linecap="round"/>
<path d="M142.238 19.7704C140.588 28.8489 145.75 35.6829 149.492 40.9366C153.488 38.7648 160.038 33.6002 157.526 33.0427C154.886 32.4569 152.101 25.2123 154.665 22.9961C157.673 20.3961 160.385 24.3301 160.902 27.3131L163.325 23.0982C162.64 20.1501 162.371 14.9787 166.777 17.8778C171.184 20.7769 177.648 20.0175 180.329 19.2754C185.615 15.4693 193.828 6.59127 184.39 1.52842C176.54 -2.68247 166.325 2.64124 160.089 7.42487C155.867 6.30371 144.487 7.39212 142.238 19.7704Z" fill="black"/>
<path d="M150.695 40.9365C152.726 43.4071 153.734 45.4587 153.609 49.7087" stroke="black" stroke-width="1.35351" stroke-linecap="round"/>
<path d="M148.225 54.4984C147.528 52.0789 147.12 47.4641 151.058 48.3611C155.981 49.4821 166.014 54.3313 165.279 57.0192" stroke="black" stroke-width="1.35351" stroke-linecap="round"/>
<path d="M165.32 59.9434C168.521 63.0321 169.232 65.009 169.706 68.7155" stroke="black" stroke-width="1.35351" stroke-linecap="round"/>
<path d="M1.57031 165.414C6.32728 164.98 17.5364 167.825 25.0242 182.461C25.22 182.844 25.7723 182.854 25.9674 182.471C33.6478 167.387 43.0742 152.085 72.8695 170.509C73.3275 170.792 73.9286 170.279 73.7016 169.79C68.8675 159.359 66.2551 139.468 88.7813 129.599C89.2332 129.402 89.2132 128.728 88.7401 128.589L82.9133 126.881C82.3792 126.724 82.4373 125.989 82.9916 125.939C88.994 125.396 97.462 125.75 94.5466 129.303C91.1429 133.451 90.3058 136.074 91.1356 140.404" stroke="black" stroke-width="1.35351" stroke-linecap="round"/>
</svg>
