<svg width="465" height="257" viewBox="0 0 465 257" fill="none" xmlns="http://www.w3.org/2000/svg">
<path d="M116.393 201.749C113.217 185.357 124.992 147.918 131.277 131.248C133.371 132.239 150.902 128.824 156.524 120.673C161.023 114.151 168.663 111.59 172.401 110.428C177.362 108.886 185.631 109.106 187.175 112.851L188.828 116.707C194.231 132.239 189.527 155.85 186.182 166.388L173.834 168.591C164.485 153.434 169.277 134.957 172.842 127.613C169.049 132.724 158.399 138.114 153.548 140.171C153.327 153.72 132.6 200.427 128.08 203.401C124.463 205.781 118.782 203.291 116.393 201.749Z" fill="black"/>
<path d="M124.311 204.448L122.767 207.253M117.915 202.67L114.97 210.448L114.717 211.114C114.437 211.788 114.243 212.917 114.717 213.88C115.052 214.558 115.719 215.153 116.923 215.448C119.834 216.159 130.781 216.929 135.89 217.225C136.772 217.337 138.449 216.914 138.096 214.337C137.743 211.759 135.89 209.4 133.795 208.448C132.095 207.676 127.713 206.477 122.767 207.253L117.915 202.67ZM121.224 207.559C121.743 207.434 122.258 207.333 122.767 207.253L121.224 207.559Z" stroke="black" stroke-width="1.5" stroke-linecap="round"/>
<path d="M175.585 167.993C175.474 171.262 175.772 177.697 176.579 178.681C177.574 179.893 178.79 180.003 186.196 177.689C192.121 175.838 194.486 175.816 195.923 175.596C196.918 175.443 198.134 175.309 198.134 172.841C198.134 169.756 196.918 167.663 193.16 167.222C190.153 166.869 185.864 168.691 184.096 169.646V166.671" stroke="black" stroke-width="1.5" stroke-linecap="round"/>
<path d="M161.44 57.0918C150.086 58.2392 127.774 63.0754 129.362 73.2405C129.605 74.1036 130.304 75.4807 131.608 76.7761C132.863 78.0238 134.679 79.1958 137.188 79.7595" stroke="black" stroke-width="1.5" stroke-linecap="round"/>
<path d="M131.609 76.7754C135.16 82.2999 145.568 94.2992 158.796 98.1" stroke="black" stroke-width="1.5" stroke-linecap="round"/>
<path d="M158.719 98.1008C159.527 97.0146 161.652 95.0511 164.147 94.958" stroke="black" stroke-width="1.5" stroke-linecap="round"/>
<path d="M164.142 94.9574C164.068 91.8551 161.451 83.8546 151.57 76.6719" stroke="black" stroke-width="1.5" stroke-linecap="round"/>
<path d="M148.711 79.2441C149.736 77.5838 152.887 74.0593 157.282 73.2441" stroke="black" stroke-width="1.5" stroke-linecap="round"/>
<path d="M173.289 76.1016C173.765 76.6644 174.718 78.1953 174.718 79.8158" stroke="black" stroke-width="1.5" stroke-linecap="round"/>
<path d="M173.166 99.8182C175.418 99.7082 180.12 99.3779 180.917 98.9373C181.914 98.3871 182.135 98.3871 182.135 97.2859C182.135 96.1851 173.166 98.0568 173.166 94.5337C173.978 93.7263 175.292 91.9134 174.052 91.1206C172.812 90.328 170.213 92.6254 169.069 93.8731C167.888 95.1208 165.238 97.0879 164.086 94.974" stroke="black" stroke-width="1.5" stroke-linecap="round"/>
<path d="M159 98.0566C159.997 100.956 163.584 106.159 169.962 103.781C176.34 101.403 176.606 100.148 175.942 99.8181" stroke="black" stroke-width="1.5" stroke-linecap="round"/>
<path d="M213.93 99.2901C215.48 98.8664 218.867 96.8959 220.019 92.4016C221.17 87.9077 219.613 87.8857 218.69 88.4363" stroke="black" stroke-width="1.5" stroke-linecap="round"/>
<path d="M208.172 96.0371C208.652 93.5403 210.342 88.7232 213.265 89.4281" stroke="black" stroke-width="1.5" stroke-linecap="round"/>
<path d="M209.389 91.961C207.352 90.2868 206.104 94.1273 205.735 96.257C203.433 96.9618 202.561 100.296 202.414 101.875C207.743 102.421 211.53 100.99 213.928 99.2901C215.396 98.2492 216.344 97.1075 216.806 96.257C217.95 93.2096 219.618 86.8502 217.138 85.7928C214.658 84.7354 213.965 87.1145 213.928 88.4362C214.194 91.4325 212.636 94.7516 211.825 96.0367" stroke="black" stroke-width="1.5" stroke-linecap="round"/>
<path d="M177.281 99.7812C182.079 104.261 193.821 110.95 202.413 101.874" stroke="black" stroke-width="1.5" stroke-linecap="round"/>
<path d="M176.423 100.386C176.423 102.465 175.909 107.205 173.852 109.528" stroke="black" stroke-width="1.5" stroke-linecap="round"/>
<path d="M131.562 105.244C127.035 111.355 120.696 125.168 131.562 131.53" stroke="black" stroke-width="1.5" stroke-linecap="round"/>
<path d="M267 78.9575L269.571 74.6719" stroke="black" stroke-width="1.5" stroke-linecap="round"/>
<path d="M268.258 81.1981L273.001 80.9775" stroke="black" stroke-width="1.5" stroke-linecap="round"/>
<path d="M267.281 83.8145L270.138 87.5287" stroke="black" stroke-width="1.5" stroke-linecap="round"/>
<path d="M173.887 218.387H96.7109V256.099" stroke="black" stroke-width="1.5" stroke-linecap="round"/>
<path d="M227.553 180.785H164.398V226.767" stroke="black" stroke-width="1.5" stroke-linecap="round"/>
<path d="M269.277 128.076H218.047V189.496" stroke="black" stroke-width="1.5" stroke-linecap="round"/>
<path d="M260.227 87.957V136.677" stroke="black" stroke-width="1.5" stroke-linecap="round"/>
<path d="M260.227 70.958V75.1008" stroke="black" stroke-width="1.5" stroke-linecap="round"/>
<path d="M160.152 100.825L96.9037 108.1C89.5872 102.239 91.3578 93.4886 93.1575 89.8461L137.123 84.5762" stroke="black" stroke-width="1.5" stroke-linecap="round"/>
<path d="M181.859 99.0684L203.567 96.9824" stroke="black" stroke-width="1.5" stroke-linecap="round"/>
<path d="M219.434 94.6764L233.649 93.6881L252.712 85.0476C250.42 82.6145 251.677 80.4471 252.632 79.6717L233.649 75.2432L158.5 81.5014" stroke="black" stroke-width="1.5" stroke-linecap="round"/>
<path d="M86.3445 89.9376L92.7875 89.2441C88.319 99.2549 93.4412 106.065 96.7109 108.715L89.191 109.815C82.9057 102.161 84.5259 93.5941 86.3445 89.9376Z" fill="black"/>
<path d="M253.394 85.5301C251.003 83.0341 252.346 80.0616 253.343 79.1016L262.422 81.3424L253.394 85.5301Z" fill="black"/>
<path d="M233.854 75.2441C231.482 78.255 228.162 86.1274 233.854 93.5296" stroke="black" stroke-width="1.5"/>
<path d="M179.234 59.02C181.124 57.8569 195.341 58.978 198.105 41.0951C202.837 41.1505 205.41 37.2743 201.799 35.6155C197.95 33.6306 198.239 29.9867 198.936 27.8396C200.045 25.0238 200.112 22.0676 199.873 21.4492" stroke="black" stroke-width="1.5" stroke-linecap="round"/>
<path d="M193.93 34.6371C194.467 34.6434 194.91 33.9956 194.92 33.1901C194.929 32.3847 194.501 31.7267 193.964 31.7204C193.427 31.7141 192.985 32.3619 192.975 33.1674C192.966 33.9728 193.393 34.6308 193.93 34.6371Z" fill="black"/>
<path d="M191.297 28.7339C192.086 27.8899 194.128 26.6554 195.978 28.4688" stroke="black" stroke-width="1.5" stroke-linecap="round"/>
<path d="M185.922 45.167C187.373 47.3998 188.966 48.0338 192.06 46.593" stroke="black" stroke-width="1.5" stroke-linecap="round"/>
<path d="M174.052 29.5176C173.716 30.2559 173.434 31.9318 174.997 32.7295" stroke="black" stroke-width="1.5" stroke-linecap="round"/>
<path d="M157.392 21.9356C155.551 32.0085 161.311 39.5909 165.488 45.42C169.948 43.0103 177.258 37.2801 174.454 36.6615C171.507 36.0116 168.4 27.9735 171.261 25.5147C174.619 22.6299 177.645 26.9947 178.222 30.3045L180.926 25.6279C180.161 22.3569 179.862 16.6192 184.78 19.8358C189.698 23.0524 196.911 22.2098 199.904 21.3864C205.804 17.1635 214.97 7.31314 204.436 1.69582C195.675 -2.97625 184.274 2.93051 177.315 8.23805C172.603 6.99409 159.902 8.2017 157.392 21.9356Z" fill="black"/>
<path d="M165.82 44.7461C167.95 47.3101 169.008 49.4392 168.876 53.8497" stroke="black" stroke-width="1.5" stroke-linecap="round"/>
<path d="M163.444 59.7537C162.698 57.1526 162.262 52.1915 166.479 53.1558C171.751 54.3609 182.496 59.574 181.708 62.4637" stroke="black" stroke-width="1.5" stroke-linecap="round"/>
<path d="M181.711 66.5293C185.568 70.1007 186.425 72.3864 186.997 76.672" stroke="black" stroke-width="1.5" stroke-linecap="round"/>
<path d="M1 182.371C6.23956 181.894 18.5858 185.019 26.8332 201.087C27.0489 201.508 27.6572 201.519 27.8721 201.098C36.3317 184.537 46.7144 167.738 79.5323 187.965C80.0369 188.276 80.6989 187.713 80.4489 187.175C75.1244 175.724 72.247 153.885 97.0584 143.05C97.5561 142.833 97.5341 142.093 97.013 141.941L90.595 140.065C90.0068 139.893 90.0708 139.086 90.6813 139.031C97.2927 138.435 106.62 138.823 103.409 142.724C99.6595 147.278 98.7375 150.158 99.6515 154.913" stroke="black" stroke-width="1.5" stroke-linecap="round"/>
</svg>
