<svg width="72" height="24" viewBox="0 0 72 24" fill="none" xmlns="http://www.w3.org/2000/svg">
<rect width="34" height="24" fill="#A5A8B1"/>
<path d="M14.8686 10.3828H12.6911C12.6513 10.1011 12.5701 9.85085 12.4474 9.6321C12.3248 9.41004 12.1674 9.22112 11.9751 9.06534C11.7829 8.90956 11.5608 8.79025 11.3089 8.70739C11.0604 8.62453 10.7902 8.5831 10.4986 8.5831C9.97159 8.5831 9.51255 8.71402 9.12145 8.97585C8.73035 9.23437 8.42708 9.61222 8.21165 10.1094C7.99621 10.6032 7.88849 11.2031 7.88849 11.9091C7.88849 12.6349 7.99621 13.2448 8.21165 13.7386C8.4304 14.2325 8.73532 14.6054 9.12642 14.8572C9.51752 15.1091 9.96993 15.2351 10.4837 15.2351C10.772 15.2351 11.0388 15.197 11.2841 15.1207C11.5327 15.0445 11.7531 14.9335 11.9453 14.7876C12.1375 14.6385 12.2966 14.4579 12.4226 14.2457C12.5518 14.0336 12.6413 13.7917 12.6911 13.5199L14.8686 13.5298C14.8123 13.9972 14.6714 14.4479 14.446 14.8821C14.224 15.313 13.924 15.6991 13.5462 16.0405C13.1716 16.3786 12.7242 16.647 12.2038 16.8459C11.6868 17.0414 11.1018 17.1392 10.4489 17.1392C9.54072 17.1392 8.72869 16.9337 8.01278 16.5227C7.30019 16.1117 6.73674 15.5168 6.32244 14.7379C5.91146 13.959 5.70597 13.0161 5.70597 11.9091C5.70597 10.7988 5.91477 9.85417 6.33239 9.07528C6.75 8.2964 7.31676 7.70312 8.03267 7.29545C8.74858 6.88447 9.55398 6.67898 10.4489 6.67898C11.0388 6.67898 11.5857 6.76184 12.0895 6.92756C12.5966 7.09328 13.0457 7.33523 13.4368 7.65341C13.8279 7.96828 14.1461 8.3544 14.3913 8.81179C14.6399 9.26918 14.799 9.79285 14.8686 10.3828ZM18.565 6.81818V17H16.4123V6.81818H18.565ZM19.9483 8.59304V6.81818H28.3105V8.59304H25.1934V17H23.0655V8.59304H19.9483Z" fill="black"/>
<path d="M67.9609 16.9996V9.36328H69.7607V16.9996H67.9609Z" fill="#F4F6F7"/>
<path d="M66.5923 9.36452V10.7566H62.0781V9.36452H66.5923ZM63.2067 17.0009V8.64364C63.2067 8.12991 63.3127 7.70236 63.5249 7.36097C63.7403 7.01959 64.0286 6.76438 64.3899 6.59535C64.7512 6.42631 65.1522 6.3418 65.593 6.3418C65.9046 6.3418 66.1813 6.36666 66.4233 6.41637C66.6652 6.46609 66.8442 6.51083 66.9602 6.5506L66.6023 7.94265C66.526 7.91945 66.4299 7.89625 66.3139 7.87305C66.1979 7.84653 66.0687 7.83327 65.9261 7.83327C65.5914 7.83327 65.3544 7.91448 65.2152 8.07688C65.0793 8.23597 65.0114 8.46467 65.0114 8.76296V17.0009H63.2067Z" fill="#F4F6F7"/>
<path d="M57.4247 17.1486C56.679 17.1486 56.0327 16.9846 55.4858 16.6564C54.9389 16.3283 54.5147 15.8693 54.2131 15.2793C53.9148 14.6893 53.7656 13.9999 53.7656 13.2111C53.7656 12.4223 53.9148 11.7312 54.2131 11.138C54.5147 10.5447 54.9389 10.084 55.4858 9.75586C56.0327 9.42773 56.679 9.26367 57.4247 9.26367C58.1705 9.26367 58.8168 9.42773 59.3636 9.75586C59.9105 10.084 60.3331 10.5447 60.6314 11.138C60.933 11.7312 61.0838 12.4223 61.0838 13.2111C61.0838 13.9999 60.933 14.6893 60.6314 15.2793C60.3331 15.8693 59.9105 16.3283 59.3636 16.6564C58.8168 16.9846 58.1705 17.1486 57.4247 17.1486ZM57.4347 15.7069C57.839 15.7069 58.1771 15.5958 58.4489 15.3738C58.7206 15.1484 58.9228 14.8468 59.0554 14.4689C59.1913 14.0911 59.2592 13.6702 59.2592 13.2061C59.2592 12.7388 59.1913 12.3162 59.0554 11.9384C58.9228 11.5572 58.7206 11.254 58.4489 11.0286C58.1771 10.8032 57.839 10.6905 57.4347 10.6905C57.0204 10.6905 56.6757 10.8032 56.4006 11.0286C56.1288 11.254 55.925 11.5572 55.7891 11.9384C55.6565 12.3162 55.5902 12.7388 55.5902 13.2061C55.5902 13.6702 55.6565 14.0911 55.7891 14.4689C55.925 14.8468 56.1288 15.1484 56.4006 15.3738C56.6757 15.5958 57.0204 15.7069 57.4347 15.7069Z" fill="#F4F6F7"/>
<path d="M48.4062 16.9996V9.36328H50.1513V10.636H50.2308C50.37 10.1952 50.6087 9.85547 50.9467 9.61683C51.2881 9.37488 51.6776 9.25391 52.1151 9.25391C52.2145 9.25391 52.3255 9.25888 52.4482 9.26882C52.5741 9.27545 52.6785 9.28705 52.7614 9.30362V10.9592C52.6851 10.9326 52.5642 10.9094 52.3984 10.8896C52.236 10.8664 52.0786 10.8548 51.9261 10.8548C51.598 10.8548 51.303 10.926 51.0412 11.0685C50.7827 11.2077 50.5788 11.4016 50.4297 11.6502C50.2805 11.8988 50.206 12.1855 50.206 12.5103V16.9996H48.4062Z" fill="#F4F6F7"/>
<path d="M40 17.0002V6.81836H43.8182C44.6004 6.81836 45.2566 6.96419 45.7869 7.25586C46.3205 7.54753 46.7232 7.94857 46.995 8.45898C47.2701 8.96609 47.4077 9.54279 47.4077 10.1891C47.4077 10.842 47.2701 11.4221 46.995 11.9292C46.7199 12.4363 46.3139 12.8356 45.777 13.1273C45.2401 13.4157 44.5788 13.5598 43.7933 13.5598H41.2628V12.0435H43.5447C44.0021 12.0435 44.3767 11.964 44.6683 11.8049C44.96 11.6458 45.1754 11.427 45.3146 11.1486C45.4571 10.8702 45.5284 10.5504 45.5284 10.1891C45.5284 9.82783 45.4571 9.50965 45.3146 9.23455C45.1754 8.95946 44.9583 8.74568 44.6634 8.59322C44.3717 8.43744 43.9955 8.35955 43.5348 8.35955H41.8445V17.0002H40Z" fill="#F4F6F7"/>
</svg>
