<svg width="48" height="48" viewBox="0 0 48 48" fill="none" xmlns="http://www.w3.org/2000/svg">
<g id="icons8-c++ (1) 1">
<path id="Vector" fill-rule="evenodd" clip-rule="evenodd" d="M22.903 3.28575C23.582 2.90475 24.418 2.90475 25.096 3.28575C28.451 5.16875 38.547 10.8368 41.903 12.7198C42.582 13.0998 43 13.8038 43 14.5658C43 18.3317 43 29.6667 43 33.4327C43 34.1947 42.582 34.8987 41.903 35.2797C38.548 37.1627 28.452 42.8307 25.096 44.7137C24.417 45.0947 23.581 45.0947 22.903 44.7137C19.548 42.8307 9.452 37.1627 6.096 35.2797C5.418 34.8987 5 34.1957 5 33.4337C5 29.6677 5 18.3328 5 14.5668C5 13.8048 5.418 13.1007 6.097 12.7198C9.451 10.8368 19.549 5.16875 22.903 3.28575Z" fill="#00549D"/>
<path id="Vector_2" fill-rule="evenodd" clip-rule="evenodd" d="M5.304 34.4043C5.038 34.0483 5 33.7103 5 33.2553C5 29.5113 5 18.2413 5 14.4963C5 13.7383 5.417 13.0383 6.094 12.6603C9.437 10.7883 19.499 5.15328 22.842 3.28028C23.519 2.90128 24.436 2.90928 25.113 3.28828C28.456 5.16028 38.484 10.7473 41.827 12.6193C42.097 12.7713 42.303 12.9543 42.487 13.1953L5.304 34.4043Z" fill="#0086D4"/>
<path id="Vector_3" fill-rule="evenodd" clip-rule="evenodd" d="M24 10C31.727 10 38 16.273 38 24C38 31.727 31.727 38 24 38C16.273 38 10 31.727 10 24C10 16.273 16.273 10 24 10ZM24 17C27.863 17 31 20.136 31 24C31 27.863 27.863 31 24 31C20.137 31 17 27.863 17 24C17 20.136 20.136 17 24 17Z" fill="white"/>
<path id="Vector_4" fill-rule="evenodd" clip-rule="evenodd" d="M42.4858 13.2051C43.0018 13.6881 42.9918 14.4161 42.9918 14.9891C42.9918 18.7841 42.9597 29.5781 43.0007 33.3731C43.0047 33.7691 42.8737 34.1861 42.6777 34.5001L23.5938 24.0001L42.4858 13.2051Z" fill="#0075C0"/>
<path id="Vector_5" fill-rule="evenodd" clip-rule="evenodd" d="M31 21H33V27H31V21ZM38 21H40V27H38V21Z" fill="white"/>
<path id="Vector_6" fill-rule="evenodd" clip-rule="evenodd" d="M29 23H35V25H29V23ZM36 23H42V25H36V23Z" fill="white"/>
</g>
</svg>
