<svg width="42" height="42" viewBox="0 0 42 42" fill="none" xmlns="http://www.w3.org/2000/svg">
<g clip-path="url(#clip0_2630_5037)">
<path d="M3.90371 17.5736C4.13559 17.8599 4.37536 18.1555 4.59287 18.4538C7.83952 22.9084 11.4572 27.2631 14.9555 31.4742C16.1219 32.8781 17.328 34.3298 18.5023 35.7635C18.8778 36.222 19.2284 36.4518 19.6073 36.4868C19.6415 36.4899 19.6758 36.4914 19.7101 36.4914C20.0505 36.4914 20.4096 36.337 20.8295 36.0117C21.5569 35.4284 22.2221 34.7947 22.8181 34.1177C27.6019 28.8485 32.2448 23.7029 36.1556 19.3642C36.5913 18.8809 37.0178 18.3807 37.4308 17.8971C37.8066 17.4564 38.1955 17.0008 38.589 16.5603C39.0405 16.0547 39.0618 15.5502 38.6522 15.0608C38.4135 14.7775 38.1574 14.5043 37.885 14.2424C37.2615 13.6389 36.6363 13.0367 36.0094 12.4357C35.3741 11.8253 34.7398 11.2143 34.1067 10.6026C33.8465 10.3506 33.5874 10.0898 33.3366 9.83762C33.0397 9.53885 32.7325 9.22963 32.42 8.93172C31.4446 8.00141 30.6289 7.2429 29.8528 6.54426C29.6531 6.37515 29.3993 6.25586 29.121 6.20015C28.78 6.13984 28.4317 6.11304 28.0832 6.12025C26.7657 6.11515 25.4482 6.11613 24.3445 6.11663H23.3696H23.3623L20.5003 6.22754C17.9047 6.32812 15.4529 6.42339 13.028 6.51028C12.4599 6.5307 11.8361 6.60601 11.6257 7.24701C11.6007 7.28867 11.5666 7.32615 11.525 7.35755C11.5085 7.37199 11.4923 7.38654 11.4771 7.40086C11.2162 7.64676 10.9558 7.89305 10.696 8.13972C10.0515 8.75047 9.38495 9.38199 8.71819 9.9946C6.92238 11.651 5.2514 13.3963 3.71463 15.2207C3.48443 15.5147 3.30444 15.8333 3.17975 16.1677C3.14469 16.2631 3.13305 16.3632 3.14541 16.4624C3.15777 16.5615 3.19389 16.6576 3.25176 16.7452C3.46066 17.0269 3.68589 17.3049 3.90371 17.5736ZM35.0902 17.2215C35.0838 17.2295 35.0773 17.2373 35.0709 17.2451C34.9521 17.3908 34.8494 17.5168 34.7355 17.6381C34.2765 18.1268 33.815 18.6139 33.351 19.0994C32.4564 20.0393 31.5315 21.0113 30.6507 21.986C28.5819 24.2755 26.4955 26.6135 24.4779 28.8746C23.636 29.8182 22.7936 30.7616 21.9508 31.7046C21.916 31.7437 21.8815 31.7822 21.8467 31.8199C21.9526 31.5621 22.0627 31.2981 22.1757 31.04C22.7403 29.7513 23.3052 28.4627 23.8698 27.1743C25.1543 24.2438 26.4367 21.3127 27.717 18.381C27.8253 18.1143 27.9138 17.8423 27.982 17.5667C28.0122 17.4557 28.0438 17.341 28.0789 17.2215H35.0902ZM25.6318 17.2183L19.584 31.5204C19.0991 29.8723 18.5554 28.2244 18.0271 26.6267C17.0333 23.6185 16.0064 20.5096 15.3608 17.3481L25.6318 17.2183ZM22.3555 7.89933C23.4116 7.86684 24.4768 7.86882 25.5099 7.87031C26.5458 7.87205 27.6167 7.87381 28.6769 7.84119L35.4013 15.2676L27.558 15.4002L27.4595 15.4019L22.3555 7.89933ZM15.599 15.543C17.0208 13.1352 18.8277 11.0974 20.8658 8.89912L24.5546 15.3782L15.599 15.543ZM12.7467 17.4016C13.5577 20.703 14.6815 23.9727 15.7684 27.1356C16.0842 28.0543 16.4087 28.9986 16.7239 29.939C14.3907 27.3612 12.2502 24.6301 10.1758 21.9834C8.99602 20.4777 7.7772 18.9226 6.53445 17.4103C7.60643 17.3085 11.3065 17.298 12.7467 17.4015V17.4016ZM17.2923 8.00924C17.7735 8.00526 18.2546 8.00153 18.7356 7.99805C18.781 7.99743 18.8244 7.99968 18.8812 8.00304C16.9263 10.1629 14.761 12.6933 13.342 15.581H5.61418C5.66057 15.516 5.71275 15.4541 5.77039 15.3956C7.62257 13.5846 9.18223 12.0625 10.7738 10.5198C11.1822 10.1233 11.605 9.72371 12.0129 9.33717C12.395 8.97557 12.7757 8.61285 13.1548 8.24901C13.2155 8.17862 13.2964 8.12172 13.3904 8.08334C13.4843 8.04496 13.5883 8.0263 13.6932 8.02905C14.8931 8.02917 16.1127 8.0187 17.2923 8.00912V8.00924Z" fill="black"/>
</g>
<defs>
<clipPath id="clip0_2630_5037">
<rect width="36" height="30.5" fill="white" transform="translate(3 6)"/>
</clipPath>
</defs>
</svg>
