<svg width="42" height="42" viewBox="0 0 42 42" fill="none" xmlns="http://www.w3.org/2000/svg">
<g clip-path="url(#clip0_2630_5007)">
<path d="M10.7986 33.4092C10.9924 33.3959 11.1861 33.3793 11.3799 33.3632C11.7818 33.3294 12.1973 33.2943 12.6033 33.2909C13.5322 33.2821 14.4777 33.2976 15.3919 33.3119L16.0958 33.3227C16.1563 33.3266 16.2162 33.337 16.2744 33.3541C15.9685 34.4003 15.4798 35.3829 14.8312 36.2559C14.5118 36.6955 14.2041 36.8513 13.7673 36.7936C13.4732 36.7599 13.1755 36.7766 12.8867 36.8426C12.7167 36.875 12.5618 36.9627 12.4457 37.0921C12.3297 37.2216 12.2588 37.3858 12.2438 37.5596C12.2176 37.783 12.279 38.0943 12.7211 38.3082C12.9156 38.4081 13.125 38.4755 13.341 38.5076C13.5076 38.5284 13.6743 38.5502 13.841 38.572C14.4691 38.6541 15.1186 38.7391 15.763 38.7632C16.7051 38.7981 17.6627 38.808 18.5888 38.8174C19.1424 38.8231 19.6959 38.8288 20.2493 38.8395C20.3872 38.8473 20.5241 38.8683 20.658 38.9021C20.7273 38.917 20.7967 38.932 20.8654 38.9442C20.874 38.9457 20.8826 38.9465 20.8913 38.9465H24.542C24.5555 38.9465 24.5688 38.9447 24.5817 38.9411C24.6278 38.9284 24.6738 38.9132 24.7196 38.8978C24.7967 38.8671 24.8774 38.847 24.9596 38.838C25.1696 38.8294 25.3853 38.8286 25.5937 38.8277C25.9688 38.8331 26.3438 38.8174 26.7171 38.7808C27.185 38.7366 27.6414 38.6092 28.0653 38.4045C28.1956 38.3499 28.3088 38.2602 28.3924 38.1454C28.4759 38.0305 28.5267 37.8947 28.5393 37.7529C28.5344 37.6079 28.4903 37.4669 28.4118 37.3453C28.3331 37.2237 28.223 37.1262 28.0934 37.0631C27.8338 36.9224 27.5503 36.8319 27.2577 36.7966C27.0595 36.7721 26.8593 36.7666 26.6599 36.7799C26.6101 36.7817 26.5602 36.7835 26.5101 36.7845C26.3696 36.4097 26.2103 36.0471 26.0556 35.6953C25.7464 34.9915 25.4533 34.3241 25.2973 33.568H25.9381C26.6196 33.568 27.2679 33.5665 27.9165 33.5714C28.0827 33.5728 28.2546 33.5877 28.4202 33.6013C28.5273 33.6105 28.6344 33.6197 28.7417 33.6258C28.8881 33.634 29.0344 33.6457 29.181 33.6572C29.5426 33.6933 29.9061 33.7059 30.2694 33.6945C31.0713 33.6507 31.8709 33.555 32.6155 33.458C33.3789 33.3586 34.2549 33.2151 34.9909 32.7694C37.6279 31.1711 38.9297 28.8887 38.8583 25.9856C38.8146 24.2099 38.8085 22.4028 38.8026 20.6552L38.7996 19.8037C38.7968 19.0915 38.8047 18.3667 38.8121 17.6656C38.8269 16.2922 38.8417 14.8721 38.7789 13.4762C38.6927 11.848 38.5016 10.2272 38.2066 8.62398C37.8933 6.82921 37.1659 5.5202 35.9827 4.62199C34.4979 3.46772 32.6414 2.90951 30.7721 3.05521C29.0964 3.17173 27.5618 3.24937 26.0811 3.29284C24.5613 3.33766 23.0144 3.33171 21.5181 3.32588C19.3275 3.31782 17.0623 3.30913 14.833 3.45761C13.9078 3.5193 12.9627 3.54036 12.0488 3.56067C11.2204 3.57935 10.3638 3.59832 9.52157 3.64762C7.90275 3.74217 6.5094 4.26323 5.38007 5.19609C4.79671 5.65806 4.30988 6.23198 3.94769 6.88469C3.58549 7.53739 3.3551 8.25597 3.26984 8.99895C3.16538 10.0379 3.11746 11.0818 3.12629 12.126L3.1254 12.2133C3.12125 12.6402 3.15 13.0712 3.1777 13.4883C3.19992 13.8202 3.22215 14.1635 3.22852 14.4994C3.27919 17.4795 3.32437 20.6322 3.37059 24.421C3.36915 24.5931 3.35733 24.7652 3.33518 24.9359C3.31205 25.1166 3.29955 25.2984 3.29771 25.4807C3.30038 25.7614 3.31593 26.0449 3.33104 26.319C3.34882 26.6428 3.36733 26.9776 3.36377 27.3049C3.35088 28.5006 3.74496 29.6523 4.53518 30.7283C5.97814 32.6898 8.08571 33.5937 10.7986 33.4092ZM36.8768 20.2085L36.8779 21.7715C36.8792 23.3286 36.8807 24.9383 36.8696 26.5217C36.8633 26.8615 36.8101 27.1988 36.7116 27.524C36.4743 28.3363 36.0804 29.0935 35.5527 29.7523C34.7504 30.7509 33.651 31.3473 32.1913 31.5757C31.3792 31.7029 30.5219 31.798 29.5703 31.8664C29.3153 31.8763 29.0599 31.8636 28.8072 31.8285C28.6423 31.8107 28.4716 31.7923 28.3017 31.7858C27.6567 31.7607 27.0113 31.7418 26.366 31.7229C25.1346 31.687 23.8611 31.6498 22.613 31.5677C20.7996 31.4482 18.9667 31.4183 17.1544 31.4183C16.2476 31.4183 15.3457 31.4259 14.4541 31.4332C13.1155 31.4443 11.7313 31.4553 10.3709 31.4414C9.3694 31.4311 8.57001 31.2711 7.8549 30.9379C7.32838 30.7014 6.85508 30.3595 6.46377 29.9327C6.07248 29.5061 5.77136 29.0036 5.57874 28.4558C5.18644 27.387 5.0537 26.4094 5.17296 25.4666C5.20154 25.19 5.21114 24.9118 5.2017 24.6339C5.20081 24.5487 5.19977 24.4637 5.19992 24.379C5.20131 23.6862 5.20328 22.9934 5.20586 22.3004C5.21208 20.4523 5.21844 18.5413 5.20496 16.6614C5.19963 15.9259 5.17416 15.1794 5.14957 14.4574C5.11994 13.6059 5.09029 12.7259 5.0934 11.8618C5.08783 10.5884 5.36748 9.33015 5.91148 8.18094C6.48659 6.98114 7.52629 6.23128 9.00392 5.95254C9.87251 5.78823 10.7359 5.70009 11.466 5.63511C14.6482 5.35264 17.8956 5.32544 21.0352 5.29915C21.7387 5.29328 22.4423 5.28642 23.1457 5.27865C24.1442 5.26641 25.1427 5.25541 26.1411 5.24555C27.7247 5.22897 29.362 5.21191 30.9725 5.18756C32.0976 5.16725 33.2005 5.52513 34.4472 6.30309C35.1621 6.74913 35.662 7.48602 35.9328 8.49298C36.1496 9.29962 36.3064 10.139 36.4581 10.9514L36.5386 11.3809C36.6395 11.9142 36.7257 12.5012 36.8024 13.1761C36.849 13.6002 36.8721 14.0265 36.8715 14.4531C36.8768 15.855 36.878 17.2571 36.8752 18.6593V20.1818C36.875 20.1906 36.8755 20.1994 36.8768 20.2082V20.2085ZM17.2667 36.4306C17.4684 36.024 17.6442 35.6049 17.7931 35.1759C17.9213 34.7475 18.0208 34.311 18.0915 33.8694C18.1198 33.7141 18.1485 33.5572 18.1804 33.3992L23.3113 33.4888C23.3967 34.7003 23.7694 35.7709 24.1807 36.7514H17.1173C17.1662 36.6446 17.2165 36.5376 17.2667 36.4306Z" fill="black"/>
<path d="M31.6125 10.7995C31.274 10.5755 30.963 10.7921 30.8135 10.8957C30.5313 11.0822 30.2705 11.2999 30.0362 11.5447C29.3193 12.3334 28.6018 13.1452 27.908 13.9302L27.364 14.5452C26.9131 15.0546 26.4625 15.5643 26.0122 16.0744C25.108 17.0973 24.2027 18.1192 23.296 19.1402C23.1331 19.3238 22.9531 19.4951 22.7627 19.6765C22.7015 19.7347 22.6396 19.794 22.5771 19.8545C22.4454 19.7555 22.3171 19.6578 22.191 19.5616C21.8455 19.2984 21.5191 19.05 21.1787 18.8147L21.0399 18.719C20.1051 18.0732 19.1381 17.4053 18.163 16.7843C17.2594 16.2094 16.7125 16.2914 15.9942 17.111C15.6915 17.4565 15.3619 17.8174 14.9254 18.2817C14.0806 19.1804 13.2353 20.0786 12.3896 20.9764C11.2439 22.1932 10.0987 23.4106 8.95403 24.6286C8.76179 24.837 8.58177 25.0565 8.4149 25.2859C8.3608 25.3485 8.31989 25.4215 8.29469 25.5006C8.26951 25.5796 8.26054 25.6629 8.26837 25.7455C8.27619 25.8281 8.30062 25.9084 8.34019 25.9813C8.37974 26.054 8.4336 26.1179 8.49846 26.169C8.6106 26.2823 8.7616 26.3477 8.92025 26.3519C9.09306 26.3447 9.25712 26.2731 9.38069 26.1511C9.64588 25.9137 9.89697 25.6556 10.1444 25.4014C10.831 24.6951 11.5174 23.9886 12.2036 23.2819C13.5583 21.8868 14.9143 20.4933 16.2715 19.1009C16.4956 18.8713 16.742 18.6528 16.9804 18.442C17.0646 18.3675 17.1486 18.2928 17.2322 18.218C17.2619 18.2359 17.2905 18.2531 17.318 18.2696C17.4291 18.3366 17.5254 18.3942 17.6131 18.459L18.4609 19.0815C19.5217 19.8601 20.6185 20.6649 21.6886 21.4683C22.4981 22.0761 23.0394 22.0658 23.7569 21.4266C24.1385 21.0865 24.4993 20.7235 24.8374 20.3396C26.6073 18.3333 28.0907 16.6438 29.5781 14.92C30.1482 14.259 30.7211 13.5372 31.2818 12.7742C31.5157 12.4315 31.7018 12.0579 31.8347 11.6641C31.9707 11.298 31.8897 10.9827 31.6125 10.7995Z" fill="black"/>
</g>
<defs>
<clipPath id="clip0_2630_5007">
<rect width="36" height="36" fill="white" transform="translate(3 3)"/>
</clipPath>
</defs>
</svg>
