<svg width="48" height="48" viewBox="0 0 48 48" fill="none" xmlns="http://www.w3.org/2000/svg">
<g id="figma logo">
<path id="Vector" opacity="0.2" d="M18.75 30C17.3576 30 16.0223 30.5531 15.0377 31.5377C14.0531 32.5223 13.5 33.8576 13.5 35.25C13.5 36.6424 14.0531 37.9777 15.0377 38.9623C16.0223 39.9469 17.3576 40.5 18.75 40.5C20.1424 40.5 21.4777 39.9469 22.4623 38.9623C23.4469 37.9777 24 36.6424 24 35.25V30H18.75Z" fill="black"/>
<path id="Vector_2" d="M18.75 29.25C17.3576 29.25 16.0223 29.8031 15.0377 30.7877C14.0531 31.7723 13.5 33.1076 13.5 34.5C13.5 35.8924 14.0531 37.2277 15.0377 38.2123C16.0223 39.1969 17.3576 39.75 18.75 39.75C20.1424 39.75 21.4777 39.1969 22.4623 38.2123C23.4469 37.2277 24 35.8924 24 34.5V29.25H18.75Z" fill="#09C37B"/>
<path id="Vector_3" opacity="0.2" d="M18.75 19.5H24V30H18.75C15.8415 30 13.5 27.6585 13.5 24.75C13.5 21.8415 15.8415 19.5 18.75 19.5Z" fill="black"/>
<path id="Vector_4" opacity="0.2" d="M29.25 30C32.1495 30 34.5 27.6495 34.5 24.75C34.5 21.8505 32.1495 19.5 29.25 19.5C26.3505 19.5 24 21.8505 24 24.75C24 27.6495 26.3505 30 29.25 30Z" fill="black"/>
<path id="Vector_5" d="M18.75 18.75H24V29.25H18.75C15.8415 29.25 13.5 26.9085 13.5 24C13.5 21.0915 15.8415 18.75 18.75 18.75Z" fill="#9154DD"/>
<path id="Vector_6" d="M29.25 29.25C32.1495 29.25 34.5 26.8995 34.5 24C34.5 21.1005 32.1495 18.75 29.25 18.75C26.3505 18.75 24 21.1005 24 24C24 26.8995 26.3505 29.25 29.25 29.25Z" fill="#01B1F8"/>
<path id="Vector_7" opacity="0.2" d="M18.75 9C15.8415 9 13.5 11.3415 13.5 14.25C13.5 17.1585 15.8415 19.5 18.75 19.5H24V9H18.75Z" fill="black"/>
<path id="Vector_8" d="M18.75 8.25C15.8415 8.25 13.5 10.5915 13.5 13.5C13.5 16.4085 15.8415 18.75 18.75 18.75H24V8.25H18.75Z" fill="#F24E1E"/>
<path id="Vector_9" opacity="0.2" d="M24 9H29.25C32.1585 9 34.5 11.3415 34.5 14.25C34.5 17.1585 32.1585 19.5 29.25 19.5H24V9Z" fill="black"/>
<path id="Vector_10" d="M24 8.25H29.25C32.1585 8.25 34.5 10.5915 34.5 13.5C34.5 16.4085 32.1585 18.75 29.25 18.75H24V8.25Z" fill="#FF7262"/>
<path id="Vector_11" opacity="0.2" d="M18.75 8.25C15.8415 8.25 13.5 10.5915 13.5 13.5C13.5 13.6268 13.5103 13.7505 13.519 13.875C13.7111 11.1438 15.9683 9 18.75 9H24H29.25C32.0317 9 34.2889 11.1438 34.481 13.875C34.4897 13.7505 34.5 13.6268 34.5 13.5C34.5 10.5915 32.1585 8.25 29.25 8.25H24H18.75Z" fill="white"/>
</g>
</svg>
