<svg width="42" height="42" viewBox="0 0 42 42" fill="none" xmlns="http://www.w3.org/2000/svg">
<g clip-path="url(#clip0_2630_5000)">
<path d="M19.2999 37.4747L19.4986 37.5352C20.2293 37.7564 20.9194 37.9651 21.3743 38.8794C21.3858 38.9025 21.402 38.9229 21.4218 38.9394C21.4417 38.9557 21.4647 38.9677 21.4894 38.9745C21.505 38.9786 21.5209 38.9808 21.5371 38.9808C21.5723 38.9808 21.6067 38.9704 21.6363 38.951C21.9717 38.7304 22.2876 38.5305 22.5876 38.3406C23.216 37.9427 23.7588 37.5993 24.2779 37.1992C26.1396 35.7954 27.8384 34.184 29.3422 32.3951C31.3186 30.0039 33.3622 27.5312 35.286 24.9427C36.49 23.3224 37.5166 21.5134 38.3842 19.9457C39.2519 18.3594 39.7685 16.6018 39.8984 14.7942C40.1339 11.8235 39.4345 9.14594 37.8201 6.83585C36.0233 4.26479 33.6334 3.01265 30.7224 3.10919C27.4385 3.22005 24.5503 4.48827 22.138 6.87878C22.021 7.00019 21.9127 7.12983 21.814 7.26672C21.6264 7.51388 21.4484 7.74851 21.1806 7.84146C18.3667 5.07251 16.2153 3.98935 12.9969 3.71174C9.694 3.42661 7.02003 4.49977 5.04894 6.89977C4.07073 8.08607 3.21335 9.36896 2.48982 10.729C0.947544 13.6464 0.62617 16.7496 1.53611 19.9529C2.34763 22.8119 3.70076 25.4845 5.52047 27.8224C9.15864 32.5113 13.7948 35.7592 19.2999 37.4747ZM5.67558 11.2815C6.09823 10.4769 6.56909 9.69905 7.08545 8.95229C8.31306 7.14208 10.0432 6.22847 12.2373 6.22847C12.5092 6.22847 12.7881 6.24247 13.0741 6.27054C16.0047 6.55836 18.3557 7.86278 20.0616 10.1474C20.2665 10.4218 20.4897 10.6758 20.6865 10.8997C20.7666 10.9911 20.842 11.0769 20.9084 11.1555C20.9361 11.1883 20.9744 11.2101 21.0164 11.2172C21.8076 11.3552 22.1274 10.9407 22.3647 10.5427C23.7347 8.24714 25.8669 6.87686 29.0754 6.23065C29.8352 6.09817 30.6102 6.07852 31.3757 6.17241C32.5911 6.28829 33.6336 6.89175 34.4748 7.96548C35.4333 9.19711 36.0014 10.6924 36.1046 12.2557C36.2743 14.0626 35.9458 15.8818 35.1557 17.5119C34.5602 18.7753 33.8825 19.9974 33.127 21.1701C31.724 23.2583 30.2257 25.3343 28.7771 27.3418L28.2736 28.0403C27.1947 29.5369 26.079 31.0455 25.0003 32.5043C24.611 33.0307 24.222 33.5573 23.8333 34.0842C23.6656 34.3117 23.491 34.5345 23.3062 34.7706C23.2453 34.8483 23.1834 34.9275 23.1205 35.0082C22.603 34.7933 22.0992 34.5832 21.6051 34.378C20.439 33.8933 19.3272 33.431 18.218 32.962C15.1478 31.6846 12.3668 29.7897 10.0441 27.3925C7.66263 24.9169 6.01206 22.2685 4.99842 19.2958C4.07412 16.5841 4.29551 13.9625 5.67558 11.2815Z" fill="black"/>
</g>
<defs>
<clipPath id="clip0_2630_5000">
<rect width="39" height="36" fill="white" transform="translate(1 3)"/>
</clipPath>
</defs>
</svg>
