<svg width="64" height="64" viewBox="0 0 64 64" fill="none" xmlns="http://www.w3.org/2000/svg">
<g clip-path="url(#clip0_1_3568)">
<circle cx="32" cy="32" r="32" fill="#413B83"/>
<mask id="mask0_1_3568" style="mask-type:alpha" maskUnits="userSpaceOnUse" x="0" y="0" width="64" height="64">
<circle cx="32" cy="32" r="32" fill="#D9D9D9"/>
</mask>
<g mask="url(#mask0_1_3568)">
<path d="M41.6602 39.2798C43.0002 38.3998 44.7602 39.3598 44.7602 40.9598V43.5398C44.7602 46.0798 42.7802 48.7998 40.4002 49.5998L34.0202 51.7198C32.9002 52.0998 31.0802 52.0998 29.9802 51.7198L23.6002 49.5998C21.2002 48.7998 19.2402 46.0798 19.2402 43.5398V40.9398C19.2402 39.3598 21.0002 38.3998 22.3202 39.2598L26.4402 41.9398C28.0202 42.9998 30.0202 43.5198 32.0202 43.5198C34.0202 43.5198 36.0202 42.9998 37.6002 41.9398L41.6602 39.2798Z" fill="white"/>
<path d="M47.96 20.9201L35.98 13.0601C33.82 11.6401 30.26 11.6401 28.1 13.0601L16.06 20.9201C12.2 23.4201 12.2 29.0801 16.06 31.6001L19.26 33.6801L28.1 39.4401C30.26 40.8601 33.82 40.8601 35.98 39.4401L44.76 33.6801L47.5 31.8801V38.0001C47.5 38.8201 48.18 39.5001 49 39.5001C49.82 39.5001 50.5 38.8201 50.5 38.0001V28.1601C51.3 25.5801 50.48 22.5801 47.96 20.9201Z" fill="white"/>
</g>
</g>
<defs>
<clipPath id="clip0_1_3568">
<rect width="64" height="64" fill="white"/>
</clipPath>
</defs>
</svg>
