<svg width="64" height="64" viewBox="0 0 64 64" fill="none" xmlns="http://www.w3.org/2000/svg">
<g clip-path="url(#clip0_1_3556)">
<circle cx="32" cy="32" r="32" fill="#413B83"/>
<mask id="mask0_1_3556" style="mask-type:alpha" maskUnits="userSpaceOnUse" x="0" y="0" width="64" height="64">
<circle cx="32" cy="32" r="32" fill="#413B83"/>
</mask>
<g mask="url(#mask0_1_3556)">
<path d="M52 17.6999V41.4799C52 43.4199 50.42 45.1999 48.48 45.4399L47.86 45.5199C44.58 45.9599 39.96 47.3199 36.24 48.8799C34.94 49.4199 33.5 48.4399 33.5 47.0199V19.1999C33.5 18.4599 33.92 17.7799 34.58 17.4199C38.24 15.4399 43.78 13.6799 47.54 13.3599H47.66C50.06 13.3599 52 15.2999 52 17.6999Z" fill="white"/>
<path d="M29.42 17.4199C25.76 15.4399 20.22 13.6799 16.46 13.3599H16.32C13.92 13.3599 11.98 15.2999 11.98 17.6999V41.4799C11.98 43.4199 13.56 45.1999 15.5 45.4399L16.12 45.5199C19.4 45.9599 24.02 47.3199 27.74 48.8799C29.04 49.4199 30.48 48.4399 30.48 47.0199V19.1999C30.48 18.4399 30.08 17.7799 29.42 17.4199ZM18 23.4799H22.5C23.32 23.4799 24 24.1599 24 24.9799C24 25.8199 23.32 26.4799 22.5 26.4799H18C17.18 26.4799 16.5 25.8199 16.5 24.9799C16.5 24.1599 17.18 23.4799 18 23.4799ZM24 32.4799H18C17.18 32.4799 16.5 31.8199 16.5 30.9799C16.5 30.1599 17.18 29.4799 18 29.4799H24C24.82 29.4799 25.5 30.1599 25.5 30.9799C25.5 31.8199 24.82 32.4799 24 32.4799Z" fill="white"/>
</g>
</g>
<defs>
<clipPath id="clip0_1_3556">
<rect width="64" height="64" fill="white"/>
</clipPath>
</defs>
</svg>
