<svg width="24" height="24" viewBox="0 0 24 24" fill="none" xmlns="http://www.w3.org/2000/svg">
<path d="M20.0422 6.82018L14.2822 2.79018C12.7122 1.69018 10.3022 1.75018 8.79219 2.92018L3.78219 6.83018C2.78219 7.61018 1.99219 9.21018 1.99219 10.4702V17.3702C1.99219 19.9202 4.06219 22.0002 6.61219 22.0002H17.3922C19.9422 22.0002 22.0122 19.9302 22.0122 17.3802V10.6002C22.0122 9.25018 21.1422 7.59018 20.0422 6.82018ZM16.8822 13.4002C16.8822 13.7902 16.5722 14.1002 16.1822 14.1002C15.7922 14.1002 15.4822 13.7902 15.4822 13.4002V13.2202L12.7622 15.9402C12.6122 16.0902 12.4122 16.1602 12.2022 16.1402C12.0022 16.1202 11.8122 16.0002 11.7022 15.8302L10.6822 14.3102L8.30219 16.6902C8.16219 16.8302 7.99219 16.8902 7.81219 16.8902C7.63219 16.8902 7.45219 16.8202 7.32219 16.6902C7.05219 16.4202 7.05219 15.9802 7.32219 15.7002L10.3022 12.7202C10.4522 12.5702 10.6522 12.5002 10.8622 12.5202C11.0722 12.5402 11.2622 12.6502 11.3722 12.8302L12.3922 14.3502L14.5022 12.2402H14.3222C13.9322 12.2402 13.6222 11.9302 13.6222 11.5402C13.6222 11.1502 13.9322 10.8402 14.3222 10.8402H16.1822C16.2722 10.8402 16.3622 10.8602 16.4522 10.8902C16.6222 10.9602 16.7622 11.1002 16.8322 11.2702C16.8722 11.3602 16.8822 11.4502 16.8822 11.5402V13.4002Z" fill="#2E2E2E"/>
</svg>
