<svg width="100" height="100" viewBox="0 0 100 100" fill="none" xmlns="http://www.w3.org/2000/svg">
<rect x="1.5625" y="1.5625" width="96.875" height="96.875" rx="48.4375" fill="#FFCA28"/>
<rect x="1.5625" y="1.5625" width="96.875" height="96.875" rx="48.4375" stroke="white" stroke-width="3.125"/>
<path d="M50.35 16C39.4767 15.9933 29.8333 21.2467 23.74 29.32H23.6767V29.4067C19.5067 34.97 17.0033 41.85 17 49.32C16.99 67.6967 31.9367 82.6567 50.3167 82.6667C68.6967 82.6767 83.6567 67.7267 83.6667 49.35C83.6767 30.9733 68.73 16.01 50.35 16ZM23.6667 49.32C23.6667 47.2667 23.9233 45.2733 24.3667 43.35L30.3333 49.3233L40.33 59.3267V62.66C40.3267 66.3433 43.31 69.3267 46.9933 69.33L46.99 75.7667C33.8567 74.1133 23.66 62.8933 23.6667 49.32ZM69.9767 67.3067C69.1133 64.6267 66.63 62.6733 63.6633 62.6733H60.33L60.3333 52.6733C60.3333 50.8333 58.84 49.34 57 49.34L40.3333 49.3333L40.3367 42.6667H43.67C45.51 42.6667 47.0033 41.1733 47.0033 39.3333L47.0067 32.6667L53.6733 32.67C57.3567 32.6733 60.34 29.69 60.3433 26.0067V24.6367C70.1 28.6067 77.0033 38.18 77 49.3467C76.9967 56.27 74.32 62.5633 69.9767 67.3067Z" fill="white"/>
</svg>
