<svg width="48" height="48" viewBox="0 0 48 48" fill="none" xmlns="http://www.w3.org/2000/svg">
<rect x="0.78125" y="0.78125" width="46.4375" height="46.4375" rx="23.2188" fill="#FFCA28"/>
<rect x="0.78125" y="0.78125" width="46.4375" height="46.4375" rx="23.2188" stroke="white" stroke-width="1.5625"/>
<path d="M24.008 8C18.7888 7.9968 14.16 10.5184 11.2352 14.3936H11.2048V14.4352C9.2032 17.1056 8.0016 20.408 8 23.9936C7.9952 32.8144 15.1696 39.9952 23.992 40C32.8144 40.0048 39.9952 32.8288 40 24.008C40.0048 15.1872 32.8304 8.0048 24.008 8ZM11.2 23.9936C11.2 23.008 11.3232 22.0512 11.536 21.128L14.4 23.9952L19.1984 28.7968V30.3968C19.1968 32.1648 20.6288 33.5968 22.3968 33.5984L22.3952 36.688C16.0912 35.8944 11.1968 30.5088 11.2 23.9936ZM33.4288 32.6272C33.0144 31.3408 31.8224 30.4032 30.3984 30.4032H28.7984L28.8 25.6032C28.8 24.72 28.0832 24.0032 27.2 24.0032L19.2 24L19.2016 20.8H20.8016C21.6848 20.8 22.4016 20.0832 22.4016 19.2L22.4032 16L25.6032 16.0016C27.3712 16.0032 28.8032 14.5712 28.8048 12.8032V12.1456C33.488 14.0512 36.8016 18.6464 36.8 24.0064C36.7984 27.3296 35.5136 30.3504 33.4288 32.6272Z" fill="white"/>
</svg>
