<svg width="64" height="64" viewBox="0 0 64 64" fill="none" xmlns="http://www.w3.org/2000/svg">
<rect x="1" y="1" width="62" height="62" rx="31" fill="#131D52"/>
<rect x="1" y="1" width="62" height="62" rx="31" stroke="white" stroke-width="2"/>
<path d="M50.1156 20.8754V43.7909C50.1156 44.9198 49.4134 45.9243 48.3556 46.2976L40.5156 49.9776L41.2267 40.3332V24.3332L40.5156 14.6887L48.3556 18.3687C49.4134 18.7421 50.1156 19.7465 50.1156 20.8754Z" fill="#29B6F6"/>
<path d="M19.0099 41.1295L41.2321 24.333V15.7579C41.2321 14.693 39.9148 14.1953 39.2099 14.9935L15.1504 36.9899C14.3504 37.7277 14.3957 39.005 15.2455 39.685C15.2455 39.685 16.4224 40.7802 16.8481 41.0842C17.5024 41.5508 18.3619 41.6041 19.0099 41.1295Z" fill="#0277BD"/>
<path d="M19.0099 23.5369L41.2321 40.3333V48.9084C41.2321 49.9733 39.9148 50.4711 39.2099 49.6729L15.1504 27.6764C14.3504 26.9386 14.3957 25.6613 15.2455 24.9813C15.2455 24.9813 16.4224 23.8862 16.8481 23.5822C17.5024 23.1155 18.3619 23.0622 19.0099 23.5369Z" fill="#0288D1"/>
</svg>
