<svg width="48" height="48" viewBox="0 0 48 48" fill="none" xmlns="http://www.w3.org/2000/svg">
<rect x="0.78125" y="0.78125" width="46.4375" height="46.4375" rx="23.2188" fill="#563D7C"/>
<rect x="0.78125" y="0.78125" width="46.4375" height="46.4375" rx="23.2188" stroke="white" stroke-width="1.5625"/>
<path d="M19.4275 21.953V16.1058H24.5896C25.0813 16.1058 25.5553 16.1466 26.0118 16.2283C26.4683 16.31 26.8722 16.4558 27.2234 16.6659C27.5745 16.8761 27.8554 17.1679 28.0662 17.5412C28.2768 17.9148 28.3823 18.3933 28.3823 18.9767C28.3823 20.0272 28.0662 20.7859 27.4341 21.2527C26.802 21.7196 25.9943 21.953 25.011 21.953H19.4275ZM13.9141 11.834V36.834H26.0645C27.1883 36.834 28.2828 36.694 29.3481 36.4138C30.4133 36.1337 31.3614 35.7019 32.1925 35.1183C33.0235 34.5348 33.685 33.7819 34.1766 32.86C34.6683 31.9379 34.9141 30.8466 34.9141 29.5861C34.9141 28.022 34.5336 26.6858 33.7728 25.577C33.0119 24.4682 31.8588 23.692 30.3136 23.2485C31.4374 22.7117 32.2862 22.023 32.8598 21.1827C33.4333 20.3424 33.7201 19.292 33.7201 18.0314C33.7201 16.8643 33.5269 15.884 33.1406 15.0903C32.7543 14.2967 32.21 13.6606 31.5076 13.182C30.8054 12.7035 29.9626 12.3591 28.9792 12.1491C27.996 11.939 26.9073 11.834 25.7134 11.834H13.9141ZM19.4275 32.5622V25.6995H25.4324C26.6264 25.6995 27.5863 25.9737 28.3121 26.5224C29.0378 27.0709 29.4008 27.987 29.4008 29.2709C29.4008 29.9246 29.2895 30.4614 29.0671 30.8816C28.8446 31.3017 28.5462 31.6345 28.1715 31.8795C27.7971 32.1246 27.3638 32.2996 26.8722 32.4048C26.3805 32.5096 25.8656 32.5622 25.3271 32.5622H19.4275Z" fill="white"/>
</svg>
