<svg width="64" height="64" viewBox="0 0 64 64" fill="none" xmlns="http://www.w3.org/2000/svg">
<rect x="1" y="1" width="62" height="62" rx="31" fill="#424652"/>
<rect x="1" y="1" width="62" height="62" rx="31" stroke="white" stroke-width="2"/>
<path opacity="0.2" d="M26.75 38C25.3576 38 24.0223 38.5531 23.0377 39.5377C22.0531 40.5223 21.5 41.8576 21.5 43.25C21.5 44.6424 22.0531 45.9777 23.0377 46.9623C24.0223 47.9469 25.3576 48.5 26.75 48.5C28.1424 48.5 29.4777 47.9469 30.4623 46.9623C31.4469 45.9777 32 44.6424 32 43.25V38H26.75Z" fill="black"/>
<path d="M26.75 37.25C25.3576 37.25 24.0223 37.8031 23.0377 38.7877C22.0531 39.7723 21.5 41.1076 21.5 42.5C21.5 43.8924 22.0531 45.2277 23.0377 46.2123C24.0223 47.1969 25.3576 47.75 26.75 47.75C28.1424 47.75 29.4777 47.1969 30.4623 46.2123C31.4469 45.2277 32 43.8924 32 42.5V37.25H26.75Z" fill="#09C37B"/>
<path opacity="0.2" d="M26.75 27.5H32V38H26.75C23.8415 38 21.5 35.6585 21.5 32.75C21.5 29.8415 23.8415 27.5 26.75 27.5Z" fill="black"/>
<path opacity="0.2" d="M37.25 38C40.1495 38 42.5 35.6495 42.5 32.75C42.5 29.8505 40.1495 27.5 37.25 27.5C34.3505 27.5 32 29.8505 32 32.75C32 35.6495 34.3505 38 37.25 38Z" fill="black"/>
<path d="M26.75 26.75H32V37.25H26.75C23.8415 37.25 21.5 34.9085 21.5 32C21.5 29.0915 23.8415 26.75 26.75 26.75Z" fill="#9154DD"/>
<path d="M37.25 37.25C40.1495 37.25 42.5 34.8995 42.5 32C42.5 29.1005 40.1495 26.75 37.25 26.75C34.3505 26.75 32 29.1005 32 32C32 34.8995 34.3505 37.25 37.25 37.25Z" fill="#01B1F8"/>
<path opacity="0.2" d="M26.75 17C23.8415 17 21.5 19.3415 21.5 22.25C21.5 25.1585 23.8415 27.5 26.75 27.5H32V17H26.75Z" fill="black"/>
<path d="M26.75 16.25C23.8415 16.25 21.5 18.5915 21.5 21.5C21.5 24.4085 23.8415 26.75 26.75 26.75H32V16.25H26.75Z" fill="#F24E1E"/>
<path opacity="0.2" d="M32 17H37.25C40.1585 17 42.5 19.3415 42.5 22.25C42.5 25.1585 40.1585 27.5 37.25 27.5H32V17Z" fill="black"/>
<path d="M32 16.25H37.25C40.1585 16.25 42.5 18.5915 42.5 21.5C42.5 24.4085 40.1585 26.75 37.25 26.75H32V16.25Z" fill="#FF7262"/>
<path opacity="0.2" d="M26.75 16.25C23.8415 16.25 21.5 18.5915 21.5 21.5C21.5 21.6268 21.5103 21.7505 21.519 21.875C21.7111 19.1438 23.9683 17 26.75 17H32H37.25C40.0317 17 42.2889 19.1438 42.481 21.875C42.4897 21.7505 42.5 21.6268 42.5 21.5C42.5 18.5915 40.1585 16.25 37.25 16.25H32H26.75Z" fill="white"/>
</svg>
