<svg width="100" height="100" viewBox="0 0 100 100" fill="none" xmlns="http://www.w3.org/2000/svg">
<rect x="1.5625" y="1.5625" width="96.875" height="96.875" rx="48.4375" fill="#563D7C"/>
<rect x="1.5625" y="1.5625" width="96.875" height="96.875" rx="48.4375" stroke="white" stroke-width="3.125"/>
<path d="M40.6426 43.9983V31.8165H51.3969C52.4214 31.8165 53.4089 31.9015 54.3599 32.0719C55.3109 32.2419 56.1525 32.5457 56.8841 32.9835C57.6154 33.4214 58.2008 34.0292 58.6399 34.8071C59.0787 35.5853 59.2984 36.5823 59.2984 37.7977C59.2984 39.9862 58.6399 41.5669 57.3229 42.5393C56.0062 43.5121 54.3235 43.9983 52.2748 43.9983H40.6426ZM29.1562 22.917V75.0003H54.4698C56.811 75.0003 59.0912 74.7087 61.3104 74.125C63.5296 73.5413 65.5048 72.6418 67.2364 71.4261C68.9676 70.2103 70.3456 68.6418 71.3698 66.7211C72.3943 64.8001 72.9062 62.5265 72.9062 59.9005C72.9062 56.6421 72.1136 53.8582 70.5286 51.5484C68.9433 49.2382 66.5411 47.6213 63.322 46.6972C65.6632 45.579 67.4315 44.1441 68.6266 42.3935C69.8213 40.6428 70.4188 38.4546 70.4188 35.8283C70.4188 33.3968 70.0164 31.3545 69.2116 29.7009C68.4068 28.0477 67.2728 26.7224 65.8095 25.7255C64.3465 24.7285 62.5907 24.0111 60.542 23.5736C58.4937 23.1357 56.2256 22.917 53.7381 22.917H29.1562ZM40.6426 66.1008V51.8034H53.1527C55.6402 51.8034 57.64 52.3746 59.1522 53.5178C60.664 54.6606 61.4203 56.5692 61.4203 59.2439C61.4203 60.6058 61.1884 61.7241 60.725 62.5994C60.2616 63.4748 59.6398 64.168 58.8593 64.6784C58.0791 65.1892 57.1766 65.5537 56.1525 65.7728C55.1279 65.9912 54.0552 66.1008 52.9333 66.1008H40.6426Z" fill="white"/>
</svg>
