<svg width="48" height="48" viewBox="0 0 48 48" fill="none" xmlns="http://www.w3.org/2000/svg">
<rect x="0.78125" y="0.78125" width="46.4375" height="46.4375" rx="23.2188" fill="#D4D8DC"/>
<rect x="0.78125" y="0.78125" width="46.4375" height="46.4375" rx="23.2188" stroke="white" stroke-width="1.5625"/>
<g clip-path="url(#clip0_2843_13098)">
<path d="M9.16406 15.2347H16.0014V17.2456H9.16406V15.2347ZM9.16406 11.5H16.0014V13.511H9.16406V11.5ZM21.431 18.9406H9.16406V20.9516H20.9713C22.2641 20.9516 25.2806 20.9803 26.401 22.7902V21.6698C25.8551 19.8886 24.2464 18.9406 21.431 18.9406ZM21.4597 22.6753H9.16406V24.6862H20.9713C23.8442 24.6862 25.654 24.8011 26.401 25.2033V24.3128C25.8264 22.9051 23.4132 22.6753 21.4597 22.6753ZM21.431 32.1556H9.16406V30.1446H20.9713C22.2641 30.1446 25.2806 30.1159 26.401 28.306V29.4264C25.8551 31.2075 24.2464 32.1556 21.431 32.1556ZM21.4597 28.4209H9.16406V26.4099H20.9713C23.8442 26.4099 25.654 26.295 26.401 25.8928V26.7834C25.8264 28.1911 23.4132 28.4209 21.4597 28.4209ZM29.3887 35.6317H38.4093V34.3964H29.6473C28.8716 34.3964 27.033 34.3676 26.3722 33.3047V33.9942C26.6882 35.0571 27.665 35.6317 29.3887 35.6317ZM29.36 33.3621H38.3806V32.1268H29.6473C27.8948 32.1268 26.8032 32.0694 26.3722 31.8108V32.3567C26.717 33.2185 28.1821 33.3621 29.36 33.3621Z" fill="#010101"/>
</g>
<defs>
<clipPath id="clip0_2843_13098">
<rect width="29.2453" height="24.2188" fill="white" transform="translate(9.15625 11.5)"/>
</clipPath>
</defs>
</svg>
