<svg width="48" height="48" viewBox="0 0 48 48" fill="none" xmlns="http://www.w3.org/2000/svg">
<rect x="0.78125" y="0.78125" width="46.4375" height="46.4375" rx="23.2188" fill="#001E36"/>
<rect x="0.78125" y="0.78125" width="46.4375" height="46.4375" rx="23.2188" stroke="white" stroke-width="1.5625"/>
<g clip-path="url(#clip0_2843_13121)">
<path d="M13.8937 7.90588H34.4761C37.5969 7.90588 40.1198 10.4756 40.1198 13.6541V33.8062C40.1198 36.9847 37.5969 39.5544 34.4761 39.5544H13.8937C10.7729 39.5544 8.25 36.9847 8.25 33.8062V13.6541C8.25 10.4756 10.7729 7.90588 13.8937 7.90588Z" fill="#001E36"/>
<path d="M19.6635 15.9531C19.2651 15.9531 18.8667 15.9531 18.4551 15.9668C18.0433 15.9803 17.6581 15.9803 17.2996 15.994C16.9411 16.0074 16.6092 16.0074 16.2905 16.0208C15.985 16.0343 15.7726 16.0343 15.5468 16.0343C15.4539 16.0343 15.4141 16.0883 15.4141 16.1831V30.1004C15.4141 30.2221 15.4671 30.2764 15.5734 30.2764H18.1496C18.2425 30.2627 18.309 30.1815 18.2955 30.0869V25.7454C18.5478 25.7454 18.7338 25.7454 18.8667 25.7588C18.9994 25.7723 19.2118 25.7723 19.5305 25.7723C20.6196 25.7723 21.6155 25.6506 22.5183 25.3125C23.3815 24.9879 24.1252 24.4199 24.6563 23.6624C25.1874 22.9051 25.4531 21.9448 25.4531 20.7816C25.4531 20.1729 25.347 19.5914 25.1478 19.0234C24.9369 18.4446 24.6062 17.9188 24.1783 17.4815C23.6733 16.9819 23.0654 16.603 22.3988 16.3723C21.6551 16.0883 20.7523 15.9531 19.6635 15.9531ZM19.9597 18.6171C20.4328 18.6263 20.8934 18.7105 21.3232 18.888C21.7084 19.0368 22.0271 19.3074 22.2529 19.6589C22.4649 20.0225 22.5709 20.4402 22.5584 20.863C22.5584 21.4579 22.4254 21.9179 22.1466 22.2559C21.8543 22.594 21.4825 22.8511 21.0578 22.9729C20.5663 23.1352 20.0484 23.2161 19.5305 23.2161H18.8266C18.6673 23.2161 18.495 23.2026 18.309 23.1892V18.6448C18.4019 18.6311 18.5878 18.6176 18.8535 18.6313C19.1057 18.6176 19.411 18.6176 19.7563 18.6176C19.8243 18.6159 19.8923 18.6156 19.9597 18.6171ZM31.0968 19.3077C30.1539 19.3077 29.3703 19.4563 28.7464 19.7809C28.1754 20.0515 27.6839 20.4841 27.3521 21.025C27.06 21.5256 26.9004 22.08 26.9004 22.6617C26.889 23.1402 26.994 23.6141 27.2059 24.0412C27.4543 24.4961 27.7991 24.8888 28.2153 25.1908C28.7995 25.5977 29.4334 25.925 30.1008 26.1646C30.7514 26.4215 31.1896 26.6244 31.4023 26.8001C31.6146 26.9761 31.721 27.1518 31.721 27.3413C31.721 27.5847 31.5748 27.8147 31.3624 27.9093C31.1234 28.031 30.7649 28.0988 30.2602 28.0988C29.7291 28.0988 29.1978 28.031 28.6931 27.8959C28.1136 27.7639 27.5581 27.5403 27.0466 27.2332C27.0067 27.2061 26.9669 27.1927 26.927 27.2198C26.8872 27.2467 26.874 27.3007 26.874 27.3413V29.6946C26.8608 29.8029 26.927 29.8975 27.0202 29.9515C27.4508 30.1564 27.9063 30.302 28.3746 30.3844C28.9722 30.5061 29.5695 30.5601 30.1803 30.5601C31.1363 30.5601 31.9333 30.4115 32.5839 30.1275C33.1815 29.8841 33.6994 29.4649 34.0711 28.9237C34.4191 28.3916 34.5998 27.7642 34.589 27.125C34.602 26.642 34.4971 26.1634 34.2837 25.732C34.0313 25.2719 33.6727 24.8933 33.2345 24.6093C32.5934 24.1993 31.907 23.8679 31.1896 23.6218C30.8692 23.4868 30.5546 23.3379 30.2467 23.1755C30.0742 23.0809 29.9148 22.9592 29.7953 22.8103C29.7157 22.702 29.6626 22.5805 29.6626 22.4588C29.6626 22.3371 29.7025 22.2019 29.7687 22.0936C29.8618 21.9585 30.0077 21.8636 30.1803 21.8231C30.4327 21.7556 30.7116 21.7148 30.977 21.7282C31.4817 21.7282 31.9729 21.7959 32.4644 21.9042C32.9161 21.9988 33.3408 22.1477 33.7392 22.3642C33.7923 22.3911 33.8587 22.3911 33.9782 22.3642C33.9991 22.3486 34.0159 22.3282 34.0275 22.3047C34.039 22.2811 34.0449 22.2551 34.0447 22.2288V20.0243C34.0447 19.9701 34.0313 19.916 34.0181 19.862C33.9914 19.808 33.9384 19.7537 33.8854 19.7403C33.5191 19.5877 33.1354 19.4832 32.7433 19.4291C32.198 19.3483 31.6478 19.3078 31.0968 19.3077Z" fill="#31A8FF"/>
</g>
<defs>
<clipPath id="clip0_2843_13121">
<rect width="31.8698" height="32.46" fill="white" transform="translate(8.25 7.5)"/>
</clipPath>
</defs>
</svg>
