<svg width="48" height="48" viewBox="0 0 48 48" fill="none" xmlns="http://www.w3.org/2000/svg">
<rect x="0.75" y="0.75" width="46.5" height="46.5" rx="23.25" fill="#424652"/>
<rect x="0.75" y="0.75" width="46.5" height="46.5" rx="23.25" stroke="white" stroke-width="1.5"/>
<path opacity="0.2" d="M20.0625 28.5C19.0182 28.5 18.0167 28.9148 17.2783 29.6533C16.5398 30.3917 16.125 31.3932 16.125 32.4375C16.125 33.4818 16.5398 34.4833 17.2783 35.2217C18.0167 35.9602 19.0182 36.375 20.0625 36.375C21.1068 36.375 22.1083 35.9602 22.8467 35.2217C23.5852 34.4833 24 33.4818 24 32.4375V28.5H20.0625Z" fill="black"/>
<path d="M20.0625 27.9375C19.0182 27.9375 18.0167 28.3523 17.2783 29.0908C16.5398 29.8292 16.125 30.8307 16.125 31.875C16.125 32.9193 16.5398 33.9208 17.2783 34.6592C18.0167 35.3977 19.0182 35.8125 20.0625 35.8125C21.1068 35.8125 22.1083 35.3977 22.8467 34.6592C23.5852 33.9208 24 32.9193 24 31.875V27.9375H20.0625Z" fill="#09C37B"/>
<path opacity="0.2" d="M20.0625 20.625H24V28.5H20.0625C17.8811 28.5 16.125 26.7439 16.125 24.5625C16.125 22.3811 17.8811 20.625 20.0625 20.625Z" fill="black"/>
<path opacity="0.2" d="M27.9375 28.5C30.1121 28.5 31.875 26.7371 31.875 24.5625C31.875 22.3879 30.1121 20.625 27.9375 20.625C25.7629 20.625 24 22.3879 24 24.5625C24 26.7371 25.7629 28.5 27.9375 28.5Z" fill="black"/>
<path d="M20.0625 20.0625H24V27.9375H20.0625C17.8811 27.9375 16.125 26.1814 16.125 24C16.125 21.8186 17.8811 20.0625 20.0625 20.0625Z" fill="#9154DD"/>
<path d="M27.9375 27.9375C30.1121 27.9375 31.875 26.1746 31.875 24C31.875 21.8254 30.1121 20.0625 27.9375 20.0625C25.7629 20.0625 24 21.8254 24 24C24 26.1746 25.7629 27.9375 27.9375 27.9375Z" fill="#01B1F8"/>
<path opacity="0.2" d="M20.0625 12.75C17.8811 12.75 16.125 14.5061 16.125 16.6875C16.125 18.8689 17.8811 20.625 20.0625 20.625H24V12.75H20.0625Z" fill="black"/>
<path d="M20.0625 12.1875C17.8811 12.1875 16.125 13.9436 16.125 16.125C16.125 18.3064 17.8811 20.0625 20.0625 20.0625H24V12.1875H20.0625Z" fill="#F24E1E"/>
<path opacity="0.2" d="M24 12.75H27.9375C30.1189 12.75 31.875 14.5061 31.875 16.6875C31.875 18.8689 30.1189 20.625 27.9375 20.625H24V12.75Z" fill="black"/>
<path d="M24 12.1875H27.9375C30.1189 12.1875 31.875 13.9436 31.875 16.125C31.875 18.3064 30.1189 20.0625 27.9375 20.0625H24V12.1875Z" fill="#FF7262"/>
<path opacity="0.2" d="M20.0625 12.1875C17.8811 12.1875 16.125 13.9436 16.125 16.125C16.125 16.2201 16.1327 16.3129 16.1393 16.4062C16.2833 14.3579 17.9762 12.75 20.0625 12.75H24H27.9375C30.0238 12.75 31.7167 14.3579 31.8607 16.4062C31.8673 16.3129 31.875 16.2201 31.875 16.125C31.875 13.9436 30.1189 12.1875 27.9375 12.1875H24H20.0625Z" fill="white"/>
</svg>
