<svg width="48" height="48" viewBox="0 0 48 48" fill="none" xmlns="http://www.w3.org/2000/svg">
<g clip-path="url(#clip0_2840_12209)">
<rect width="48" height="48" rx="24" fill="#E8E4D9"/>
<path d="M19.0817 33.5838C19.0817 33.5838 17.7785 34.3478 19.9876 34.5664C22.647 34.8932 24.0635 34.8391 27.0069 34.2937C27.5984 34.6429 28.224 34.9354 28.8748 35.167C22.2528 37.8962 13.8732 35.0035 19.0817 33.5838ZM18.2341 30.0364C18.2341 30.0364 16.8186 31.0731 19.0266 31.2927C21.9138 31.5654 24.178 31.6196 28.0854 30.8566C28.4655 31.2281 28.9307 31.5084 29.4437 31.6747C21.4614 33.9668 12.517 31.8923 18.2341 30.0364ZM33.8587 36.2568C33.8587 36.2568 34.8208 37.0209 32.7833 37.6215C28.9903 38.7144 16.8758 39.0412 13.479 37.6215C12.2903 37.1312 14.5544 36.4213 15.2802 36.312C16.0166 36.1486 16.4139 36.1486 16.4139 36.1486C15.1107 35.2752 7.75236 37.9493 12.678 38.7123C26.208 40.841 37.3604 37.7849 33.8503 36.2568H33.8587ZM19.6941 26.3245C19.6941 26.3245 13.5235 27.7443 17.4861 28.2346C19.1845 28.4531 22.5241 28.398 25.638 28.1804C28.185 27.9618 30.7342 27.5267 30.7342 27.5267C30.7342 27.5267 29.8283 27.9087 29.2054 28.2907C22.9225 29.8739 10.8631 29.1641 14.3171 27.5267C17.2604 26.1621 19.6952 26.3265 19.6952 26.3265L19.6941 26.3245ZM30.7342 32.2733C37.0743 29.1069 34.131 26.0528 32.0925 26.4338C31.584 26.5431 31.3562 26.6524 31.3562 26.6524C31.3562 26.6524 31.5257 26.3255 31.9219 26.2162C35.9417 24.8516 39.1118 30.3091 30.6187 32.4367C30.6187 32.4367 30.6749 32.3826 30.7321 32.2733H30.7342ZM20.3192 40.8962C26.4326 41.2782 35.7743 40.6776 36 37.8932C36 37.8932 35.5476 38.9861 30.962 39.8032C25.7535 40.7307 19.3 40.6204 15.5069 40.0218C15.5069 40.0218 16.2994 40.6765 20.3192 40.8962Z" fill="#4E7896"/>
<path d="M26.7684 8C26.7684 8 30.2584 11.4198 23.4479 16.577C17.988 20.7568 22.2101 23.1453 23.4479 25.8601C20.2392 23.0915 17.9322 20.648 19.5081 18.3692C21.8151 15.0022 28.1757 13.3837 26.7684 8ZM24.9775 23.5802C26.6103 25.3714 24.5277 27 24.5277 27C24.5277 27 28.693 24.9375 26.7789 22.3854C25.0344 19.9429 23.6818 18.7481 31 14.6771C31 14.6771 19.4617 17.4456 24.9775 23.5802Z" fill="#F58219"/>
</g>
<rect x="1" y="1" width="46" height="46" rx="23" stroke="white" stroke-width="2"/>
<defs>
<clipPath id="clip0_2840_12209">
<rect width="48" height="48" rx="24" fill="white"/>
</clipPath>
</defs>
</svg>
