<svg width="64" height="64" viewBox="0 0 64 64" fill="none" xmlns="http://www.w3.org/2000/svg">
<rect x="1" y="1" width="62" height="62" rx="31" fill="#A9B6C3"/>
<rect x="1" y="1" width="62" height="62" rx="31" stroke="white" stroke-width="2"/>
<path fill-rule="evenodd" clip-rule="evenodd" d="M30.903 11.286C31.582 10.905 32.418 10.905 33.096 11.286C36.451 13.169 46.547 18.837 49.903 20.72C50.582 21.1 51 21.804 51 22.566C51 26.332 51 37.667 51 41.433C51 42.195 50.582 42.899 49.903 43.28C46.548 45.163 36.452 50.831 33.096 52.714C32.417 53.095 31.581 53.095 30.903 52.714C27.548 50.831 17.452 45.163 14.096 43.28C13.418 42.899 13 42.196 13 41.434C13 37.668 13 26.333 13 22.567C13 21.805 13.418 21.101 14.097 20.72C17.451 18.837 27.549 13.169 30.903 11.286Z" fill="#37474F"/>
<path fill-rule="evenodd" clip-rule="evenodd" d="M13.304 42.404C13.038 42.048 13 41.71 13 41.255C13 37.511 13 26.241 13 22.496C13 21.738 13.417 21.038 14.094 20.66C17.437 18.788 27.499 13.153 30.842 11.28C31.519 10.901 32.436 10.909 33.113 11.288C36.456 13.16 46.484 18.747 49.827 20.619C50.097 20.771 50.303 20.954 50.487 21.195L13.304 42.404Z" fill="#546E7A"/>
<path fill-rule="evenodd" clip-rule="evenodd" d="M32 18C39.727 18 46 24.273 46 32C46 39.727 39.727 46 32 46C24.273 46 18 39.727 18 32C18 24.273 24.273 18 32 18ZM32 25C35.863 25 39 28.136 39 32C39 35.863 35.863 39 32 39C28.137 39 25 35.863 25 32C25 28.136 28.136 25 32 25Z" fill="white"/>
<path fill-rule="evenodd" clip-rule="evenodd" d="M50.4858 21.205C51.0018 21.688 50.9918 22.416 50.9918 22.989C50.9918 26.784 50.9597 37.578 51.0007 41.373C51.0047 41.769 50.8737 42.186 50.6777 42.5L31.5938 32L50.4858 21.205Z" fill="#455A64"/>
<path fill-rule="evenodd" clip-rule="evenodd" d="M42 28H43V36H42V28ZM45 28H46V36H45V28Z" fill="white"/>
<path fill-rule="evenodd" clip-rule="evenodd" d="M40 33H48V34H40V33ZM40 30H48V31H40V30Z" fill="white"/>
</svg>
