<svg width="64" height="64" viewBox="0 0 64 64" fill="none" xmlns="http://www.w3.org/2000/svg">
<rect x="1" y="1" width="62" height="62" rx="31" fill="#F7DF1E"/>
<rect x="1" y="1" width="62" height="62" rx="31" stroke="white" stroke-width="2"/>
<g clip-path="url(#clip0_2840_12142)">
<path d="M38.375 42.6875C39.4375 44.5 40.8438 45.4062 42.5938 45.4062C44.7812 45.4062 45.875 44.5625 45.875 42.875C45.875 41.8438 44.4688 40.9062 42.2188 39.9688C38.0312 38.5938 35.9688 36.25 36.0312 32.9375C36.0312 29.5625 38.5625 26.9375 42.5938 26.9375C45.5938 26.9375 47.7188 28.1562 48.9688 30.5938L45.5 32.8438C44.75 31.4688 43.7812 30.8125 42.5938 30.875C41.2188 30.9375 40.5 31.5938 40.4375 32.8438C40.4375 34.1562 41.2812 34.7188 44.0938 35.9375C48.125 37.5312 50.375 39.3125 50.375 43.1562C50.1875 47.2188 47.7188 49.3125 42.9688 49.4375C39.0312 49.4375 36.25 47.9062 34.625 44.8438L38.375 42.6875ZM22.4375 43.0625C23.1875 44.2812 23.6562 45.4062 25.5312 45.4062C27.0312 45.4062 27.7812 44.4688 27.7812 42.5938V27.0312H32.2812V42.4062C32.2188 46.8438 29.9688 49.0938 25.5312 49.1562C22.2188 49.0938 19.9688 47.7188 18.7812 45.0312L22.4375 43.0625Z" fill="black"/>
</g>
<defs>
<clipPath id="clip0_2840_12142">
<rect width="48" height="48" fill="white" transform="translate(8 8)"/>
</clipPath>
</defs>
</svg>
