<svg width="100" height="100" viewBox="0 0 100 100" fill="none" xmlns="http://www.w3.org/2000/svg">
<g clip-path="url(#clip0_2877_20143)">
<rect width="100" height="100" rx="50" fill="#1B1F23"/>
<rect x="1" width="98" height="98" rx="49" fill="white"/>
<rect x="1" width="98" height="98" rx="49" stroke="white" stroke-width="2"/>
<path fill-rule="evenodd" clip-rule="evenodd" d="M50 -1C22.375 -1 0 21.375 0 49C0 71.125 14.3125 89.8125 34.1875 96.4375C36.6875 96.875 37.625 95.375 37.625 94.0625C37.625 92.875 37.5625 88.9375 37.5625 84.75C25 87.0625 21.75 81.6875 20.75 78.875C20.1875 77.4375 17.75 73 15.625 71.8125C13.875 70.875 11.375 68.5625 15.5625 68.5C19.5 68.4375 22.3125 72.125 23.25 73.625C27.75 81.1875 34.9375 79.0625 37.8125 77.75C38.25 74.5 39.5625 72.3125 41 71.0625C29.875 69.8125 18.25 65.5 18.25 46.375C18.25 40.9375 20.1875 36.4375 23.375 32.9375C22.875 31.6875 21.125 26.5625 23.875 19.6875C23.875 19.6875 28.0625 18.375 37.625 24.8125C41.625 23.6875 45.875 23.125 50.125 23.125C54.375 23.125 58.625 23.6875 62.625 24.8125C72.1875 18.3125 76.375 19.6875 76.375 19.6875C79.125 26.5625 77.375 31.6875 76.875 32.9375C80.0625 36.4375 82 40.875 82 46.375C82 65.5625 70.3125 69.8125 59.1875 71.0625C61 72.625 62.5625 75.625 62.5625 80.3125C62.5625 87 62.5 92.375 62.5 94.0625C62.5 95.375 63.4375 96.9375 65.9375 96.4375C85.6875 89.8125 100 71.0625 100 49C100 21.375 77.625 -1 50 -1Z" fill="#1B1F23"/>
</g>
<rect x="1.5625" y="1.5625" width="96.875" height="96.875" rx="48.4375" stroke="white" stroke-width="3.125"/>
<defs>
<clipPath id="clip0_2877_20143">
<rect width="100" height="100" rx="50" fill="white"/>
</clipPath>
</defs>
</svg>
