<svg width="48" height="48" viewBox="0 0 48 48" fill="none" xmlns="http://www.w3.org/2000/svg">
<rect x="0.78125" y="0.78125" width="46.4375" height="46.4375" rx="23.2188" fill="#F5B7FF"/>
<rect x="0.78125" y="0.78125" width="46.4375" height="46.4375" rx="23.2188" stroke="white" stroke-width="1.5625"/>
<path d="M35.9867 20.9467C35.5333 20.7601 34.9333 20.6667 34.1867 20.6667H27.1467C24.8267 20.6667 24 21.4934 24 23.8401V34.1601C24 34.9334 24.0933 35.5334 24.2933 36.0001C24.7067 36.9601 25.5867 37.3334 27.1467 37.3334H34.1867C36.5067 37.3334 37.3333 36.4934 37.3333 34.1601V23.8401C37.3333 22.2534 36.96 21.3601 35.9867 20.9467ZM32 34.3334H29.3333C29.3067 34.3334 29.2667 34.3334 29.24 34.3201C29.04 34.3067 28.8667 34.2401 28.72 34.1067C28.48 33.9334 28.3333 33.6534 28.3333 33.3334C28.3333 32.7867 28.7867 32.3334 29.3333 32.3334H32C32.5467 32.3334 33 32.7867 33 33.3334C33 33.8801 32.5467 34.3334 32 34.3334Z" fill="#292D32"/>
<path d="M35.9864 16.2534V17.3334C35.9864 18.0667 35.3864 18.6667 34.653 18.6667H27.1464C23.733 18.6667 21.9997 20.4134 21.9997 23.8401V36.0001C21.9997 36.7334 21.3997 37.3334 20.6664 37.3334H18.0664C17.533 37.3334 17.1064 36.9067 17.1064 36.3867C17.1064 35.8534 17.533 35.4401 18.0664 35.4401H20.6664V30.3334H15.9997C13.0397 30.1867 10.6797 27.7467 10.6797 24.7467V16.2534C10.6797 13.1734 13.1864 10.6667 16.2797 10.6667H30.3997C33.4797 10.6667 35.9864 13.1734 35.9864 16.2534Z" fill="#292D32"/>
</svg>
