<svg width="48" height="48" viewBox="0 0 48 48" fill="none" xmlns="http://www.w3.org/2000/svg">
<rect x="0.75" y="0.75" width="46.5" height="46.5" rx="23.25" fill="#F7DF1E"/>
<rect x="0.75" y="0.75" width="46.5" height="46.5" rx="23.25" stroke="white" stroke-width="1.5"/>
<g clip-path="url(#clip0_2840_12272)">
<path d="M28.7812 32.0156C29.5781 33.375 30.6328 34.0547 31.9453 34.0547C33.5859 34.0547 34.4062 33.4219 34.4062 32.1562C34.4062 31.3828 33.3516 30.6797 31.6641 29.9766C28.5234 28.9453 26.9766 27.1875 27.0234 24.7031C27.0234 22.1719 28.9219 20.2031 31.9453 20.2031C34.1953 20.2031 35.7891 21.1172 36.7266 22.9453L34.125 24.6328C33.5625 23.6016 32.8359 23.1094 31.9453 23.1562C30.9141 23.2031 30.375 23.6953 30.3281 24.6328C30.3281 25.6172 30.9609 26.0391 33.0703 26.9531C36.0938 28.1484 37.7812 29.4844 37.7812 32.3672C37.6406 35.4141 35.7891 36.9844 32.2266 37.0781C29.2734 37.0781 27.1875 35.9297 25.9688 33.6328L28.7812 32.0156ZM16.8281 32.2969C17.3906 33.2109 17.7422 34.0547 19.1484 34.0547C20.2734 34.0547 20.8359 33.3516 20.8359 31.9453V20.2734H24.2109V31.8047C24.1641 35.1328 22.4766 36.8203 19.1484 36.8672C16.6641 36.8203 14.9766 35.7891 14.0859 33.7734L16.8281 32.2969Z" fill="black"/>
</g>
<defs>
<clipPath id="clip0_2840_12272">
<rect width="36" height="36" fill="white" transform="translate(6 6)"/>
</clipPath>
</defs>
</svg>
