<svg width="48" height="48" viewBox="0 0 48 48" fill="none" xmlns="http://www.w3.org/2000/svg">
<rect x="0.78125" y="0.78125" width="46.4375" height="46.4375" rx="23.2188" fill="#214674"/>
<rect x="0.78125" y="0.78125" width="46.4375" height="46.4375" rx="23.2188" stroke="white" stroke-width="1.5625"/>
<path d="M29.4203 23.7122C31.3403 24.3842 32.3482 25.5362 32.3482 27.2162C32.3482 28.3202 31.9643 29.1362 31.1483 29.8082C30.3323 30.4322 29.2283 30.8162 27.7403 30.8162C26.3483 30.8162 25.0522 30.4322 23.8523 29.8082C23.7083 29.7122 23.6123 29.5682 23.6123 29.3762C23.6704 29.046 23.767 28.7238 23.9002 28.4162L24.2842 27.6482C24.4282 27.4562 24.6203 27.4082 24.8603 27.5042C25.9163 27.9842 26.7802 28.2722 27.5962 28.2722C27.9802 28.2722 28.3162 28.2242 28.5562 28.0802C28.7962 27.9362 28.8922 27.7442 28.8922 27.5522C28.8922 27.1202 28.5562 26.7842 27.8842 26.5922L26.6842 26.1602C24.8602 25.4882 23.9483 24.4322 23.9483 22.8962C23.9483 21.7922 24.3323 20.9282 25.1003 20.3042C25.8683 19.6802 26.8762 19.1042 28.1722 19.1042C28.7962 19.1042 29.5162 19.2002 30.2842 19.3922C30.9562 19.5362 31.4842 19.8722 31.9642 20.1602C32.1082 20.2562 32.2042 20.4002 32.2042 20.5922C32.2042 20.9282 32.1082 21.2642 31.9642 21.6482C31.8202 21.9842 31.6762 22.2722 31.4842 22.4642C31.3402 22.6082 31.1482 22.6562 31.0042 22.5602C29.9002 22.0802 28.9883 21.8402 28.2203 21.8402C27.9323 21.8402 27.6923 21.8882 27.5483 22.0322C27.4043 22.1762 27.3083 22.3202 27.3083 22.5122C27.3083 22.8482 27.5962 23.1362 28.1242 23.3282L29.4203 23.7122ZM38.3482 25.4402C37.7243 25.9682 37.3883 26.7362 37.3883 27.7922V31.5842C37.3883 32.8322 37.0043 33.7922 36.1403 34.4642C35.2763 35.1362 34.2682 35.4242 33.1162 35.4722H32.4442V33.8882C32.4442 33.6962 32.5402 33.5522 32.7322 33.5042C33.1642 33.3602 33.3563 33.1682 33.5483 32.9762C33.9802 32.5922 34.3162 31.9202 34.3162 31.0562V27.9842C34.3162 26.9282 34.4122 26.1122 34.7962 25.5362C35.0842 25.1042 35.5642 24.7202 36.2362 24.3362C36.5243 24.1922 36.5243 23.7602 36.2362 23.5682C35.4202 23.0882 34.8923 22.5122 34.5562 21.7922C34.3162 21.2642 34.3162 20.5442 34.3162 19.6322V16.8482C34.3162 15.9362 34.0282 15.2642 33.6442 14.9282C33.4126 14.683 33.1108 14.5153 32.7803 14.4482C32.5883 14.4002 32.4922 14.2082 32.4922 14.0162V13.0082C32.4922 12.7682 32.6842 12.5762 32.9242 12.5762H34.2203C34.9403 12.5762 35.5642 12.9602 36.0922 13.3922C36.6682 13.8722 37.1003 14.4482 37.3403 15.2642C37.4843 15.6962 37.4842 16.1282 37.4842 16.5602V19.7762C37.4842 20.9282 37.8202 21.7922 38.3962 22.3202C38.6842 22.6082 39.0682 22.8482 39.6922 23.0882C39.8842 23.1362 39.9803 23.3282 39.9803 23.4722V24.2882C39.9803 24.4802 39.8842 24.6242 39.6922 24.7202C39.0202 24.9122 38.6362 25.1522 38.3482 25.4402ZM14.7802 12.5762H14.1562C13.4362 12.5762 12.8122 12.9602 12.2842 13.3922C11.7082 13.8722 11.1802 14.4482 11.0362 15.2642C10.9402 15.7442 10.9883 16.1282 10.9883 16.5602V19.7762C10.9883 20.9282 10.5562 21.7442 9.98025 22.3202C9.69225 22.6082 9.11625 22.8482 8.44425 23.0882C8.25225 23.1842 8.15625 23.3282 8.15625 23.5202V24.3362C8.15625 24.5282 8.25225 24.6722 8.44425 24.7682C9.02025 24.9602 9.54825 25.2002 9.88425 25.4882C10.5082 26.0162 10.9402 26.7842 10.9402 27.8402V31.6322C10.9402 32.8802 11.2283 33.8402 12.0923 34.5122C12.9563 35.1842 13.9642 35.4722 15.1163 35.5202H15.4523C15.6923 35.5202 15.8842 35.3282 15.8842 35.0882V33.9362C15.8842 33.7442 15.7882 33.6002 15.5963 33.5522C15.1642 33.4082 14.8762 33.2162 14.6842 33.0242C14.2522 32.6402 14.0123 31.9682 14.0123 31.1042V28.0322C14.0123 26.9762 13.8203 26.1602 13.4362 25.5842C13.1483 25.1522 12.6683 24.7682 11.9962 24.3842C11.7082 24.2402 11.7082 23.8082 11.9962 23.6162C12.8123 23.1362 13.3403 22.5602 13.6762 21.8402C13.9162 21.3122 14.0123 20.5922 14.0123 19.6802V16.8962C14.0123 15.9842 14.2043 15.3122 14.5883 14.9762C14.7803 14.7842 15.1163 14.6402 15.5963 14.4962H16.0283C16.2683 14.4962 16.4602 14.3042 16.4602 14.0642V13.0562C16.4602 12.8162 16.2683 12.6242 16.0283 12.6242L14.7802 12.5762ZM22.5562 27.8882H21.9802C21.3562 27.8882 21.1163 27.5522 21.1163 26.8802V14.4482C21.1163 13.6802 20.8762 13.1522 20.6362 12.8642C20.3482 12.5762 19.8682 12.5762 19.1962 12.5762H18.1402C17.9002 12.5762 17.7083 12.7682 17.7083 13.0082V27.5042C17.7083 28.5602 17.9482 29.2802 18.3802 29.8082C18.8122 30.2882 19.4843 30.5282 20.4923 30.5282C21.1163 30.5282 21.7882 30.4802 22.5083 30.3842C22.7003 30.3362 22.8442 30.1922 22.8923 30.0002V29.4242C22.7963 28.8482 22.7002 28.3682 22.5562 27.8882Z" fill="#F6F6F6"/>
</svg>
