<svg width="48" height="48" viewBox="0 0 48 48" fill="none" xmlns="http://www.w3.org/2000/svg">
<rect x="0.78125" y="0.78125" width="46.4375" height="46.4375" rx="23.2188" fill="#131D52"/>
<rect x="0.78125" y="0.78125" width="46.4375" height="46.4375" rx="23.2188" stroke="white" stroke-width="1.5625"/>
<path d="M37.3328 15.4066V32.5933C37.3328 33.4399 36.8061 34.1933 36.0128 34.4733L30.1328 37.2333L30.6661 29.9999V17.9999L30.1328 10.7666L36.0128 13.5266C36.8061 13.8066 37.3328 14.5599 37.3328 15.4066Z" fill="#29B6F6"/>
<path d="M14.0035 30.5972L30.6702 17.9999V11.5686C30.6702 10.7699 29.6822 10.3966 29.1535 10.9952L11.1089 27.4926C10.5089 28.0459 10.5429 29.0039 11.1802 29.5139C11.1802 29.5139 12.0629 30.3352 12.3822 30.5632C12.8729 30.9132 13.5175 30.9532 14.0035 30.5972Z" fill="#0277BD"/>
<path d="M14.0035 17.4028L30.6702 30.0001V36.4314C30.6702 37.2301 29.6822 37.6034 29.1535 37.0048L11.1089 20.5074C10.5089 19.9541 10.5429 18.9961 11.1802 18.4861C11.1802 18.4861 12.0629 17.6648 12.3822 17.4368C12.8729 17.0868 13.5175 17.0468 14.0035 17.4028Z" fill="#0288D1"/>
</svg>
