<svg width="64" height="64" viewBox="0 0 64 64" fill="none" xmlns="http://www.w3.org/2000/svg">
<rect x="1" y="1" width="62" height="62" rx="31" fill="#F06292"/>
<rect x="1" y="1" width="62" height="62" rx="31" stroke="white" stroke-width="2"/>
<path fill-rule="evenodd" clip-rule="evenodd" d="M51.7536 13.1986C50.3278 7.24596 41.0583 5.28972 32.2856 8.60777C27.0649 10.5825 21.4121 13.6822 17.3475 17.7291C12.5148 22.5416 11.7451 26.7294 12.0621 28.4791C13.182 34.6535 21.1297 38.6902 24.3962 41.6859V41.7043C23.4325 42.2098 16.3822 46.008 14.7324 49.892C12.9911 53.9892 15.01 56.9294 16.3459 57.3257C20.4862 58.5515 24.7338 56.3467 27.0176 52.7214C29.221 49.222 29.0381 44.705 28.0807 42.4566C29.4008 42.0855 30.9418 41.9193 32.8976 42.1627C38.4195 42.8495 39.5031 46.5202 39.2949 48.0566C39.0883 49.5931 37.929 50.4377 37.5426 50.693C37.1546 50.9482 37.0379 51.0372 37.0694 51.2253C37.1167 51.5006 37.295 51.4906 37.6262 51.4318C38.0804 51.3495 40.5252 50.1825 40.6308 47.3464C40.7633 43.7462 37.5237 39.7195 31.7856 39.8236C29.4229 39.8673 27.9371 40.1057 26.863 40.5323C26.7842 40.4365 26.7022 40.3408 26.6201 40.2451C23.0729 36.2151 16.5147 33.3655 16.7923 27.9485C16.8932 25.9788 17.5368 20.7935 29.3929 14.5034C39.1056 9.34997 46.8815 10.7689 48.2253 13.9106C50.1448 18.4007 44.0692 26.7445 33.9827 27.9485C30.139 28.4069 28.1154 26.8218 27.6122 26.2307C27.0823 25.6094 27.0034 25.5809 26.8063 25.6984C26.4845 25.8882 26.688 26.4373 26.8063 26.7647C27.1075 27.5992 28.3441 29.0786 30.4497 29.8158C32.303 30.4639 36.8155 30.8182 42.2728 28.5715C48.383 26.0527 53.1558 19.0506 51.7536 13.1986ZM25.7527 43.5313C26.2101 45.3347 26.1596 47.0172 25.688 48.5402C25.6359 48.7098 25.5776 48.8761 25.5145 49.0423C25.4514 49.2069 25.3836 49.3714 25.311 49.5326C24.9467 50.3386 24.4562 51.0926 23.8568 51.7895C22.0272 53.9136 19.472 54.7163 18.3774 54.0395C17.1945 53.3091 17.7875 50.3151 19.9074 47.9273C22.1881 45.3599 25.4703 43.7093 25.4703 43.7093L25.4656 43.6992C25.5602 43.6438 25.6564 43.5884 25.7527 43.5313Z" fill="white"/>
</svg>
