<svg width="64" height="64" viewBox="0 0 64 64" fill="none" xmlns="http://www.w3.org/2000/svg">
<g clip-path="url(#clip0_2877_20145)">
<rect width="64" height="64" rx="32" fill="#1B1F23"/>
<rect x="1" y="2" width="62" height="62" rx="31" fill="white"/>
<rect x="1" y="2" width="62" height="62" rx="31" stroke="white" stroke-width="2"/>
<path fill-rule="evenodd" clip-rule="evenodd" d="M32 1C14.32 1 0 15.32 0 33C0 47.16 9.16 59.12 21.88 63.36C23.48 63.64 24.08 62.68 24.08 61.84C24.08 61.08 24.04 58.56 24.04 55.88C16 57.36 13.92 53.92 13.28 52.12C12.92 51.2 11.36 48.36 10 47.6C8.88 47 7.28 45.52 9.96 45.48C12.48 45.44 14.28 47.8 14.88 48.76C17.76 53.6 22.36 52.24 24.2 51.4C24.48 49.32 25.32 47.92 26.24 47.12C19.12 46.32 11.68 43.56 11.68 31.32C11.68 27.84 12.92 24.96 14.96 22.72C14.64 21.92 13.52 18.64 15.28 14.24C15.28 14.24 17.96 13.4 24.08 17.52C26.64 16.8 29.36 16.44 32.08 16.44C34.8 16.44 37.52 16.8 40.08 17.52C46.2 13.36 48.88 14.24 48.88 14.24C50.64 18.64 49.52 21.92 49.2 22.72C51.24 24.96 52.48 27.8 52.48 31.32C52.48 43.6 45 46.32 37.88 47.12C39.04 48.12 40.04 50.04 40.04 53.04C40.04 57.32 40 60.76 40 61.84C40 62.68 40.6 63.68 42.2 63.36C54.84 59.12 64 47.12 64 33C64 15.32 49.68 1 32 1Z" fill="#1B1F23"/>
</g>
<rect x="1" y="1" width="62" height="62" rx="31" stroke="white" stroke-width="2"/>
<defs>
<clipPath id="clip0_2877_20145">
<rect width="64" height="64" rx="32" fill="white"/>
</clipPath>
</defs>
</svg>
