<svg width="64" height="64" viewBox="0 0 64 64" fill="none" xmlns="http://www.w3.org/2000/svg">
<rect x="1" y="1" width="62" height="62" rx="31" fill="#214674"/>
<rect x="1" y="1" width="62" height="62" rx="31" stroke="white" stroke-width="2"/>
<path d="M39.227 31.6163C41.787 32.5123 43.131 34.0483 43.131 36.2883C43.131 37.7603 42.619 38.8483 41.531 39.7443C40.443 40.5763 38.971 41.0883 36.987 41.0883C35.131 41.0883 33.403 40.5763 31.803 39.7443C31.611 39.6163 31.483 39.4243 31.483 39.1683C31.5605 38.7281 31.6894 38.2985 31.867 37.8883L32.379 36.8643C32.571 36.6083 32.827 36.5443 33.147 36.6723C34.555 37.3123 35.707 37.6963 36.795 37.6963C37.307 37.6963 37.755 37.6323 38.075 37.4403C38.395 37.2483 38.523 36.9923 38.523 36.7363C38.523 36.1603 38.075 35.7123 37.179 35.4563L35.579 34.8803C33.147 33.9843 31.931 32.5763 31.931 30.5283C31.931 29.0563 32.443 27.9043 33.467 27.0723C34.491 26.2403 35.835 25.4723 37.563 25.4723C38.395 25.4723 39.355 25.6003 40.379 25.8563C41.275 26.0483 41.979 26.4963 42.619 26.8803C42.811 27.0083 42.939 27.2003 42.939 27.4563C42.939 27.9043 42.811 28.3523 42.619 28.8643C42.427 29.3123 42.235 29.6963 41.979 29.9523C41.787 30.1443 41.531 30.2083 41.339 30.0803C39.867 29.4403 38.651 29.1203 37.627 29.1203C37.243 29.1203 36.923 29.1843 36.731 29.3763C36.539 29.5683 36.411 29.7603 36.411 30.0163C36.411 30.4643 36.795 30.8483 37.499 31.1043L39.227 31.6163ZM51.131 33.9203C50.299 34.6243 49.851 35.6483 49.851 37.0563V42.1123C49.851 43.7763 49.339 45.0563 48.187 45.9523C47.035 46.8483 45.691 47.2323 44.155 47.2963H43.259V45.1843C43.259 44.9283 43.387 44.7363 43.643 44.6723C44.219 44.4803 44.475 44.2243 44.731 43.9683C45.307 43.4563 45.755 42.5603 45.755 41.4083V37.3123C45.755 35.9043 45.883 34.8163 46.395 34.0483C46.779 33.4723 47.419 32.9603 48.315 32.4483C48.699 32.2563 48.699 31.6803 48.315 31.4243C47.227 30.7843 46.523 30.0163 46.075 29.0563C45.755 28.3523 45.755 27.3923 45.755 26.1763V22.4643C45.755 21.2483 45.371 20.3523 44.859 19.9043C44.5501 19.5774 44.1478 19.3538 43.707 19.2643C43.451 19.2003 43.323 18.9443 43.323 18.6883V17.3443C43.323 17.0243 43.579 16.7683 43.899 16.7683H45.627C46.587 16.7683 47.419 17.2803 48.123 17.8563C48.891 18.4963 49.467 19.2643 49.787 20.3523C49.979 20.9283 49.979 21.5043 49.979 22.0803V26.3683C49.979 27.9043 50.427 29.0563 51.195 29.7603C51.579 30.1443 52.091 30.4643 52.923 30.7843C53.179 30.8483 53.307 31.1043 53.307 31.2963V32.3843C53.307 32.6403 53.179 32.8323 52.923 32.9603C52.027 33.2163 51.515 33.5363 51.131 33.9203ZM19.707 16.7683H18.875C17.915 16.7683 17.083 17.2803 16.379 17.8563C15.611 18.4963 14.907 19.2643 14.715 20.3523C14.587 20.9923 14.651 21.5043 14.651 22.0803V26.3683C14.651 27.9043 14.075 28.9923 13.307 29.7603C12.923 30.1443 12.155 30.4643 11.259 30.7843C11.003 30.9123 10.875 31.1043 10.875 31.3603V32.4483C10.875 32.7043 11.003 32.8963 11.259 33.0243C12.027 33.2803 12.731 33.6003 13.179 33.9843C14.011 34.6883 14.587 35.7123 14.587 37.1203V42.1763C14.587 43.8403 14.971 45.1203 16.123 46.0163C17.275 46.9123 18.619 47.2963 20.155 47.3603H20.603C20.923 47.3603 21.179 47.1043 21.179 46.7843V45.2483C21.179 44.9923 21.051 44.8003 20.795 44.7363C20.219 44.5443 19.835 44.2883 19.579 44.0323C19.003 43.5203 18.683 42.6243 18.683 41.4723V37.3763C18.683 35.9683 18.427 34.8803 17.915 34.1123C17.531 33.5363 16.891 33.0243 15.995 32.5123C15.611 32.3203 15.611 31.7443 15.995 31.4883C17.083 30.8483 17.787 30.0803 18.235 29.1203C18.555 28.4163 18.683 27.4563 18.683 26.2403V22.5283C18.683 21.3123 18.939 20.4163 19.451 19.9683C19.707 19.7123 20.155 19.5203 20.795 19.3283H21.371C21.691 19.3283 21.947 19.0723 21.947 18.7523V17.4083C21.947 17.0883 21.691 16.8323 21.371 16.8323L19.707 16.7683ZM30.075 37.1843H29.307C28.475 37.1843 28.155 36.7363 28.155 35.8403V19.2643C28.155 18.2403 27.835 17.5363 27.515 17.1523C27.131 16.7683 26.491 16.7683 25.595 16.7683H24.187C23.867 16.7683 23.611 17.0243 23.611 17.3443V36.6723C23.611 38.0803 23.931 39.0403 24.507 39.7443C25.083 40.3843 25.979 40.7043 27.323 40.7043C28.155 40.7043 29.051 40.6403 30.011 40.5123C30.267 40.4483 30.459 40.2563 30.523 40.0003V39.2323C30.395 38.4643 30.267 37.8243 30.075 37.1843Z" fill="#F6F6F6"/>
</svg>
