<svg width="48" height="48" viewBox="0 0 48 48" fill="none" xmlns="http://www.w3.org/2000/svg">
<rect x="0.75" y="0.75" width="46.5" height="46.5" rx="23.25" fill="#A9B6C3"/>
<rect x="0.75" y="0.75" width="46.5" height="46.5" rx="23.25" stroke="white" stroke-width="1.5"/>
<path fill-rule="evenodd" clip-rule="evenodd" d="M23.1772 8.46443C23.6865 8.17868 24.3135 8.17868 24.822 8.46443C27.3383 9.87668 34.9102 14.1277 37.4272 15.5399C37.9365 15.8249 38.25 16.3529 38.25 16.9244C38.25 19.7489 38.25 28.2502 38.25 31.0747C38.25 31.6462 37.9365 32.1742 37.4272 32.4599C34.911 33.8722 27.339 38.1232 24.822 39.5354C24.3128 39.8212 23.6858 39.8212 23.1772 39.5354C20.661 38.1232 13.089 33.8722 10.572 32.4599C10.0635 32.1742 9.75 31.6469 9.75 31.0754C9.75 28.2509 9.75 19.7497 9.75 16.9252C9.75 16.3537 10.0635 15.8257 10.5728 15.5399C13.0883 14.1277 20.6617 9.87668 23.1772 8.46443Z" fill="#37474F"/>
<path fill-rule="evenodd" clip-rule="evenodd" d="M9.978 31.8031C9.7785 31.5361 9.75 31.2826 9.75 30.9413C9.75 28.1333 9.75 19.6808 9.75 16.8721C9.75 16.3036 10.0627 15.7786 10.5705 15.4951C13.0777 14.0911 20.6242 9.86484 23.1315 8.46009C23.6392 8.17584 24.327 8.18184 24.8347 8.46609C27.342 9.87009 34.863 14.0603 37.3702 15.4643C37.5727 15.5783 37.7272 15.7156 37.8652 15.8963L9.978 31.8031Z" fill="#546E7A"/>
<path fill-rule="evenodd" clip-rule="evenodd" d="M24 13.5C29.7952 13.5 34.5 18.2048 34.5 24C34.5 29.7952 29.7952 34.5 24 34.5C18.2048 34.5 13.5 29.7952 13.5 24C13.5 18.2048 18.2048 13.5 24 13.5ZM24 18.75C26.8973 18.75 29.25 21.102 29.25 24C29.25 26.8973 26.8973 29.25 24 29.25C21.1027 29.25 18.75 26.8973 18.75 24C18.75 21.102 21.102 18.75 24 18.75Z" fill="white"/>
<path fill-rule="evenodd" clip-rule="evenodd" d="M37.8643 15.9037C38.2513 16.2659 38.2438 16.8119 38.2438 17.2417C38.2438 20.0879 38.2198 28.1834 38.2506 31.0297C38.2536 31.3267 38.1553 31.6394 38.0083 31.8749L23.6953 23.9999L37.8643 15.9037Z" fill="#455A64"/>
<path fill-rule="evenodd" clip-rule="evenodd" d="M31.5 21H32.25V27H31.5V21ZM33.75 21H34.5V27H33.75V21Z" fill="white"/>
<path fill-rule="evenodd" clip-rule="evenodd" d="M30 24.75H36V25.5H30V24.75ZM30 22.5H36V23.25H30V22.5Z" fill="white"/>
</svg>
