<svg width="48" height="48" viewBox="0 0 48 48" fill="none" xmlns="http://www.w3.org/2000/svg">
<rect x="0.78125" y="0.78125" width="46.4375" height="46.4375" rx="23.2188" fill="#F06292"/>
<rect x="0.78125" y="0.78125" width="46.4375" height="46.4375" rx="23.2188" stroke="white" stroke-width="1.5625"/>
<path fill-rule="evenodd" clip-rule="evenodd" d="M38.8152 9.64898C37.7458 5.18447 30.7937 3.71729 24.2142 6.20583C20.2987 7.68686 16.059 10.0117 13.0106 13.0468C9.3861 16.6562 8.80883 19.7971 9.0466 21.1094C9.88648 25.7401 15.8473 28.7677 18.2972 31.0144V31.0282C17.5744 31.4073 12.2867 34.256 11.0493 37.169C9.74335 40.2419 11.2575 42.4471 12.2595 42.7443C15.3647 43.6636 18.5503 42.0101 20.2632 39.291C21.9158 36.6665 21.7785 33.2788 21.0605 31.5924C22.0506 31.3141 23.2064 31.1894 24.6732 31.3721C28.8147 31.8871 29.6273 34.6402 29.4712 35.7925C29.3162 36.9448 28.4468 37.5783 28.1569 37.7697C27.8659 37.9611 27.7784 38.0279 27.8021 38.1689C27.8375 38.3755 27.9712 38.3679 28.2196 38.3238C28.5603 38.2621 30.3939 37.3869 30.4731 35.2598C30.5725 32.5597 28.1427 29.5397 23.8392 29.6177C22.0672 29.6505 20.9529 29.8293 20.1473 30.1492C20.0881 30.0774 20.0266 30.0056 19.9651 29.9338C17.3047 26.9113 12.386 24.7742 12.5942 20.7114C12.6699 19.2341 13.1526 15.3452 22.0447 10.6275C29.3292 6.76247 35.1611 7.82665 36.169 10.183C37.6086 13.5505 33.0519 19.8084 25.4871 20.7114C22.6042 21.0552 21.0865 19.8663 20.7092 19.423C20.3117 18.9571 20.2526 18.9357 20.1047 19.0238C19.8634 19.1661 20.016 19.5779 20.1047 19.8235C20.3306 20.4494 21.2581 21.559 22.8373 22.1118C24.2272 22.5979 27.6116 22.8637 31.7046 21.1786C36.2873 19.2895 39.8668 14.0379 38.8152 9.64898ZM19.3145 32.3985C19.6575 33.751 19.6197 35.0129 19.266 36.1552C19.227 36.2824 19.1832 36.4071 19.1359 36.5317C19.0885 36.6552 19.0377 36.7786 18.9833 36.8995C18.71 37.504 18.3421 38.0694 17.8926 38.5921C16.5204 40.1852 14.604 40.7872 13.7831 40.2797C12.8959 39.7318 13.3407 37.4864 14.9305 35.6955C16.6411 33.7699 19.1027 32.5319 19.1027 32.5319L19.0992 32.5244C19.1702 32.4828 19.2423 32.4413 19.3145 32.3985Z" fill="white"/>
</svg>
