<svg width="100" height="100" viewBox="0 0 100 100" fill="none" xmlns="http://www.w3.org/2000/svg">
<rect x="1.5625" y="1.5625" width="96.875" height="96.875" rx="48.4375" fill="#B1E5FF"/>
<rect x="1.5625" y="1.5625" width="96.875" height="96.875" rx="48.4375" stroke="white" stroke-width="3.125"/>
<g clip-path="url(#clip0_2877_19771)">
<path d="M21.1214 31.6357C15.2256 40.1148 15.9547 51.144 20.4631 60.1773C20.5672 60.394 20.6818 60.6065 20.7922 60.819L21.0006 61.2252C21.0422 61.3044 21.0881 61.3815 21.1318 61.4586C21.2089 61.6044 21.2881 61.7377 21.3672 61.8794L21.7985 62.6169L22.0443 63.0211L22.5443 63.8023L22.7568 64.1315C22.9922 64.4815 23.2318 64.8315 23.4797 65.1732L23.6214 65.3648C23.8362 65.66 24.0556 65.9517 24.2797 66.2398L24.5297 66.5565L25.1381 67.3065L25.3714 67.5857C25.6485 67.9127 25.9339 68.2377 26.2193 68.5544C26.2485 68.5857 26.261 68.5961 26.2693 68.6086C26.5523 68.9156 26.8399 69.2184 27.1318 69.5169L27.4089 69.7961L28.0964 70.4711L28.3776 70.7419C28.687 71.0337 29.0017 71.3198 29.3214 71.6002L30.3547 72.4752L30.7089 72.7586L31.4235 73.3169L31.8047 73.6086L32.6068 74.1836L32.9818 74.4482C33.2381 74.6252 33.4985 74.794 33.761 74.9627L34.0985 75.1877C34.5006 75.443 34.9069 75.6917 35.3172 75.9336L35.6547 76.1419L36.5714 76.6544C36.7381 76.744 36.9089 76.8294 37.0776 76.9148L37.7318 77.2544L37.8839 77.3273L38.1547 77.4565L39.1922 77.9357L39.411 78.0336C39.8115 78.208 40.215 78.3754 40.6214 78.5357L40.9131 78.6523L42.0547 79.0752L42.2006 79.1252C42.6221 79.2704 43.0458 79.4093 43.4714 79.5419L43.7797 79.6336C44.1964 79.7648 44.6464 79.9252 45.0922 80.0044C73.6214 85.2065 81.9047 62.8586 81.9047 62.8586C74.9464 71.9252 62.5922 74.3169 50.8631 71.6544C50.4193 71.5544 49.9881 71.4169 49.5568 71.2877L49.2318 71.1898C48.8101 71.0602 48.3906 70.9234 47.9735 70.7794L47.8006 70.7169C47.4293 70.5851 47.0598 70.4483 46.6922 70.3065L46.3797 70.1815C45.977 70.0231 45.5777 69.8563 45.1818 69.6815L44.9422 69.5773L43.9318 69.1065L43.6401 68.9669C43.3776 68.8419 43.1193 68.7023 42.8589 68.5502L42.3381 68.2794C42.0214 68.1127 41.7131 67.9336 41.4006 67.7544L41.0839 67.5773C40.6738 67.3351 40.2675 67.0865 39.8651 66.8315C39.7547 66.7607 39.6464 66.6857 39.536 66.6127L38.6693 66.0357C38.5735 65.9732 38.461 65.9023 38.3901 65.8398L37.5693 65.2461L37.2047 64.9711L36.4651 64.3919L36.136 64.1273L35.2151 63.3502C35.1817 63.321 35.1469 63.2932 35.111 63.2669L34.1422 62.3857L33.8714 62.1232L33.1797 61.4357L32.9089 61.1648C32.6172 60.8669 32.3339 60.5669 32.0756 60.2607C32.061 60.2461 32.0464 60.2315 32.0339 60.2148C31.7389 59.8911 31.45 59.5618 31.1672 59.2273L30.9589 58.9565L30.3339 58.1857L30.1256 57.9002L29.4047 56.9419C22.8672 48.0836 20.5297 35.8377 25.7256 25.7961M39.4339 24.494C35.1672 30.6336 35.3985 38.869 38.7256 45.344C39.2831 46.4353 39.9137 47.4877 40.6131 48.494C41.2526 49.4107 41.961 50.5002 42.8089 51.2357C43.1172 51.5752 43.4381 51.9023 43.7672 52.2294L44.0172 52.4794C44.3356 52.7899 44.6614 53.0928 44.9943 53.3877C45.0089 53.3982 45.0193 53.4127 45.036 53.4232C45.4151 53.7565 45.7985 54.0482 46.1881 54.3773L46.4464 54.5794C46.8373 54.8809 47.236 55.1719 47.6422 55.4523L47.6776 55.4773C47.8568 55.6023 48.0401 55.7169 48.2235 55.8377C48.311 55.894 48.3943 55.9544 48.4818 56.0086C48.7731 56.1954 49.0683 56.376 49.3672 56.5502L49.4922 56.6232L50.2756 57.0398C50.3672 57.0919 50.4839 57.1357 50.5547 57.1857L51.1026 57.469C51.1297 57.4836 51.1589 57.494 51.186 57.5065C51.5618 57.6936 51.9425 57.8708 52.3276 58.0377L52.5776 58.1419C52.888 58.2736 53.2005 58.4001 53.5152 58.5211L53.9151 58.6669C54.2004 58.7706 54.4873 58.8699 54.7756 58.9648L55.1651 59.0898C55.5756 59.2148 55.9985 59.3815 56.4089 59.4502C78.436 63.1002 83.5214 46.1169 83.5214 46.1169C78.9381 52.7211 70.0631 55.8669 60.5881 53.4086C60.1693 53.2984 59.7532 53.1782 59.3401 53.0482C59.2151 53.0107 59.0901 52.969 58.9651 52.9273L58.0901 52.6273L57.6735 52.4815C57.359 52.3601 57.0464 52.2337 56.736 52.1023L56.4818 51.9982C56.0942 51.8297 55.7108 51.6519 55.3318 51.4648L54.7547 51.1732L54.4214 51.0023C54.1763 50.8692 53.9332 50.7324 53.6922 50.5919L53.5172 50.494C53.2192 50.3194 52.9247 50.1388 52.6339 49.9523C52.5443 49.8961 52.4568 49.8336 52.3672 49.7752L51.7943 49.3961C51.3908 49.1164 50.9948 48.826 50.6068 48.5252L50.336 48.3169C46.1693 45.0419 42.9026 40.5669 41.3401 35.4961C39.7026 30.2357 40.0547 24.3294 42.8922 19.5377M54.8339 19.1565C52.3214 22.8752 52.0714 27.4544 53.8172 31.5419C55.6568 35.8815 59.4276 39.2836 63.8297 40.9169L64.3756 41.1252L64.6172 41.2002L65.4026 41.4086C77.5651 43.7586 80.861 35.1669 81.7422 33.9023C78.8526 38.0627 73.9964 39.0607 68.0381 37.6148C67.5672 37.5002 67.0506 37.3294 66.5964 37.169C66.0135 36.9624 65.4419 36.7253 64.8839 36.4586C63.8249 35.9493 62.8193 35.3358 61.8818 34.6273C56.5506 30.5836 53.2381 22.8461 56.7172 16.5627" fill="#0868AC"/>
</g>
<defs>
<clipPath id="clip0_2877_19771">
<rect width="66.6667" height="66.6667" fill="white" transform="translate(16.6641 15.5833)"/>
</clipPath>
</defs>
</svg>
