<svg width="100" height="100" viewBox="0 0 100 100" fill="none" xmlns="http://www.w3.org/2000/svg">
<rect x="1.5625" y="1.5625" width="96.875" height="96.875" rx="48.4375" fill="#F5B7FF"/>
<rect x="1.5625" y="1.5625" width="96.875" height="96.875" rx="48.4375" stroke="white" stroke-width="3.125"/>
<path d="M74.9878 42.806C74.0434 42.4171 72.7934 42.2227 71.2378 42.2227H56.5712C51.7378 42.2227 50.0156 43.9449 50.0156 48.8338V70.3338C50.0156 71.9449 50.2101 73.1949 50.6267 74.1671C51.4878 76.1671 53.3212 76.9449 56.5712 76.9449H71.2378C76.0712 76.9449 77.7934 75.1949 77.7934 70.3338V48.8338C77.7934 45.5282 77.0156 43.6671 74.9878 42.806ZM66.6823 70.6949H61.1267C61.0712 70.6949 60.9878 70.6949 60.9323 70.6671C60.5156 70.6393 60.1545 70.5004 59.849 70.2227C59.349 69.8615 59.0434 69.2782 59.0434 68.6115C59.0434 67.4727 59.9878 66.5282 61.1267 66.5282H66.6823C67.8212 66.5282 68.7656 67.4727 68.7656 68.6115C68.7656 69.7504 67.8212 70.6949 66.6823 70.6949Z" fill="#292D32"/>
<path d="M74.98 33.0283V35.2783C74.98 36.8061 73.73 38.0561 72.2023 38.0561H56.5634C49.4523 38.0561 45.8411 41.695 45.8411 48.8338V74.1672C45.8411 75.695 44.5911 76.945 43.0634 76.945H37.6467C36.5356 76.945 35.6467 76.0561 35.6467 74.9727C35.6467 73.8616 36.5356 73.0005 37.6467 73.0005H43.0634V62.3616H33.3411C27.1745 62.0561 22.2578 56.9727 22.2578 50.7227V33.0283C22.2578 26.6116 27.48 21.3894 33.9245 21.3894H63.3411C69.7578 21.3894 74.98 26.6116 74.98 33.0283Z" fill="#292D32"/>
</svg>
