<svg width="64" height="64" viewBox="0 0 64 64" fill="none" xmlns="http://www.w3.org/2000/svg">
<rect x="1" y="1" width="62" height="62" rx="31" fill="#D4D8DC"/>
<rect x="1" y="1" width="62" height="62" rx="31" stroke="white" stroke-width="2"/>
<g clip-path="url(#clip0_2843_13054)">
<path d="M13.0234 20.7804H21.7752V23.3544H13.0234V20.7804ZM13.0234 16H21.7752V18.574H13.0234V16ZM28.7251 25.524H13.0234V28.098H28.1368C29.7915 28.098 33.6526 28.1348 35.0867 30.4514V29.0173C34.388 26.7374 32.3288 25.524 28.7251 25.524ZM28.7619 30.3043H13.0234V32.8784H28.1368C31.814 32.8784 34.1306 33.0255 35.0867 33.5403V32.4003C34.3512 30.5985 31.2624 30.3043 28.7619 30.3043ZM28.7251 42.4391H13.0234V39.8651H28.1368C29.7915 39.8651 33.6526 39.8283 35.0867 37.5117V38.9458C34.388 41.2256 32.3288 42.4391 28.7251 42.4391ZM28.7619 37.6587H13.0234V35.0847H28.1368C31.814 35.0847 34.1306 34.9376 35.0867 34.4228V35.5627C34.3512 37.3646 31.2624 37.6587 28.7619 37.6587ZM38.911 46.8885H50.4574V45.3073H39.2419C38.2491 45.3073 35.8957 45.2706 35.0499 43.91V44.7925C35.4544 46.1531 36.7046 46.8885 38.911 46.8885ZM38.8742 43.9835H50.4206V42.4023H39.2419C36.9988 42.4023 35.6015 42.3288 35.0499 41.9979V42.6965C35.4912 43.7997 37.3665 43.9835 38.8742 43.9835Z" fill="#010101"/>
</g>
<defs>
<clipPath id="clip0_2843_13054">
<rect width="37.434" height="31" fill="white" transform="translate(13 16)"/>
</clipPath>
</defs>
</svg>
