<svg width="24" height="24" viewBox="0 0 24 24" fill="none" xmlns="http://www.w3.org/2000/svg">
<path d="M21.5628 10.7405L20.2028 9.16055C19.9428 8.86055 19.7328 8.30055 19.7328 7.90055V6.20055C19.7328 5.14055 18.8628 4.27055 17.8028 4.27055H16.1028C15.7128 4.27055 15.1428 4.06055 14.8428 3.80055L13.2628 2.44055C12.5728 1.85055 11.4428 1.85055 10.7428 2.44055L9.17281 3.81055C8.87281 4.06055 8.30281 4.27055 7.91281 4.27055H6.18281C5.12281 4.27055 4.25281 5.14055 4.25281 6.20055V7.91055C4.25281 8.30055 4.04281 8.86055 3.79281 9.16055L2.44281 10.7505C1.86281 11.4405 1.86281 12.5605 2.44281 13.2505L3.79281 14.8405C4.04281 15.1405 4.25281 15.7005 4.25281 16.0905V17.8005C4.25281 18.8605 5.12281 19.7305 6.18281 19.7305H7.91281C8.30281 19.7305 8.87281 19.9405 9.17281 20.2005L10.7528 21.5605C11.4428 22.1505 12.5728 22.1505 13.2728 21.5605L14.8528 20.2005C15.1528 19.9405 15.7128 19.7305 16.1128 19.7305H17.8128C18.8728 19.7305 19.7428 18.8605 19.7428 17.8005V16.1005C19.7428 15.7105 19.9528 15.1405 20.2128 14.8405L21.5728 13.2605C22.1528 12.5705 22.1528 11.4305 21.5628 10.7405ZM16.6828 12.0005L15.5128 15.5605C15.3628 16.1505 14.7328 16.6305 14.0928 16.6305H12.2428C11.9228 16.6305 11.4728 16.5205 11.2728 16.3205L9.80281 15.1705C9.77281 15.8105 9.48281 16.0805 8.77281 16.0805H8.29281C7.55281 16.0805 7.25281 15.7905 7.25281 15.0905V10.3105C7.25281 9.61055 7.55281 9.32055 8.29281 9.32055H8.78281C9.52281 9.32055 9.82281 9.61055 9.82281 10.3105V10.6705L11.7628 7.79055C11.9628 7.48055 12.4728 7.26055 12.9028 7.43055C13.3728 7.59055 13.6728 8.11055 13.5728 8.57055L13.3328 10.1305C13.3128 10.2705 13.3428 10.4005 13.4328 10.5005C13.5128 10.5905 13.6328 10.6505 13.7628 10.6505H15.7128C16.0928 10.6505 16.4128 10.8005 16.6028 11.0705C16.7728 11.3305 16.8028 11.6605 16.6828 12.0005Z" fill="#2E2E2E"/>
</svg>
