<svg width="64" height="64" viewBox="0 0 64 64" fill="none" xmlns="http://www.w3.org/2000/svg">
<rect x="1" y="1" width="62" height="62" rx="31" fill="#001E36"/>
<rect x="1" y="1" width="62" height="62" rx="31" stroke="white" stroke-width="2"/>
<g clip-path="url(#clip0_2843_13112)">
<g clip-path="url(#clip1_2843_13112)">
<path d="M18.5249 9.54114H45.9682C50.1292 9.54114 53.4931 12.9674 53.4931 17.2054V44.0749C53.4931 48.3129 50.1292 51.7392 45.9682 51.7392H18.5249C14.3639 51.7392 11 48.3129 11 44.0749V17.2054C11 12.9674 14.3639 9.54114 18.5249 9.54114Z" fill="#001E36"/>
<path d="M26.2205 20.2708C25.6894 20.2708 25.1582 20.2708 24.6095 20.289C24.0604 20.3069 23.5468 20.3069 23.0688 20.3252C22.5907 20.3431 22.1482 20.3431 21.7232 20.361C21.3159 20.379 21.0327 20.379 20.7316 20.379C20.6078 20.379 20.5547 20.451 20.5547 20.5774V39.1337C20.5547 39.296 20.6254 39.3684 20.7672 39.3684H24.2021C24.326 39.3501 24.4146 39.2419 24.3967 39.1158V33.3271C24.733 33.3271 24.9809 33.3271 25.1582 33.345C25.3352 33.363 25.6183 33.363 26.0433 33.363C27.4953 33.363 28.8233 33.2007 30.027 32.7499C31.178 32.3171 32.1696 31.5597 32.8777 30.5498C33.5858 29.5401 33.94 28.2596 33.94 26.7087C33.94 25.8972 33.7986 25.1218 33.533 24.3644C33.2518 23.5927 32.8109 22.8916 32.2403 22.3086C31.567 21.6424 30.7565 21.1372 29.8677 20.8297C28.876 20.451 27.6723 20.2708 26.2205 20.2708ZM26.6156 23.8228C27.2464 23.8349 27.8605 23.9472 28.4335 24.1839C28.9471 24.3824 29.372 24.7431 29.6731 25.2118C29.9559 25.6966 30.0972 26.2535 30.0804 26.8172C30.0804 27.6104 29.9032 28.2238 29.5314 28.6745C29.1416 29.1252 28.646 29.4681 28.0796 29.6304C27.4243 29.8468 26.7338 29.9547 26.0433 29.9547H25.1048C24.8923 29.9547 24.6626 29.9367 24.4146 29.9188V23.8596C24.5384 23.8414 24.7864 23.8234 25.1406 23.8417C25.4769 23.8234 25.8839 23.8234 26.3444 23.8234C26.435 23.8211 26.5256 23.8207 26.6156 23.8228ZM41.465 24.7435C40.2078 24.7435 39.163 24.9416 38.3311 25.3744C37.5699 25.7352 36.9145 26.312 36.472 27.0333C36.0826 27.7007 35.8698 28.4399 35.8698 29.2155C35.8546 29.8535 35.9946 30.4854 36.2771 31.0549C36.6084 31.6613 37.0681 32.1849 37.623 32.5876C38.4019 33.1301 39.2471 33.5666 40.137 33.886C41.0045 34.2286 41.5888 34.4991 41.8723 34.7334C42.1555 34.968 42.2972 35.2024 42.2972 35.4549C42.2972 35.7795 42.1023 36.0862 41.8192 36.2123C41.5005 36.3746 41.0224 36.4649 40.3495 36.4649C39.6414 36.4649 38.933 36.3746 38.26 36.1944C37.4874 36.0185 36.7467 35.7204 36.0647 35.3109C36.0116 35.2747 35.9584 35.2568 35.9053 35.293C35.8522 35.3288 35.8346 35.4008 35.8346 35.4549V38.5927C35.817 38.7371 35.9053 38.8632 36.0295 38.9353C36.6036 39.2085 37.211 39.4026 37.8354 39.5124C38.6322 39.6747 39.4286 39.7468 40.2429 39.7468C41.5177 39.7468 42.5804 39.5486 43.4479 39.1699C44.2446 38.8453 44.9351 38.2864 45.4308 37.5648C45.8948 36.8554 46.1356 36.0188 46.1213 35.1665C46.1386 34.5227 45.9987 33.8845 45.7143 33.3092C45.3776 32.6958 44.8996 32.191 44.3153 31.8123C43.4605 31.2657 42.5453 30.8237 41.5888 30.4957C41.1616 30.3157 40.7421 30.1171 40.3316 29.9006C40.1015 29.7744 39.8891 29.6121 39.7297 29.4137C39.6235 29.2693 39.5528 29.1073 39.5528 28.945C39.5528 28.7827 39.6059 28.6025 39.6942 28.4581C39.8183 28.2779 40.0129 28.1514 40.2429 28.0973C40.5796 28.0074 40.9514 27.953 41.3053 27.9709C41.9782 27.9709 42.6332 28.0612 43.2885 28.2055C43.8907 28.3317 44.4571 28.5301 44.9882 28.8189C45.0589 28.8547 45.1476 28.8547 45.3069 28.8189C45.3347 28.7981 45.3572 28.7709 45.3726 28.7395C45.388 28.7081 45.3959 28.6734 45.3956 28.6383V25.699C45.3956 25.6267 45.3776 25.5546 45.36 25.4826C45.3245 25.4106 45.2538 25.3382 45.1831 25.3203C44.6948 25.1169 44.1831 24.9775 43.6603 24.9054C42.9333 24.7976 42.1996 24.7437 41.465 24.7435Z" fill="#31A8FF"/>
</g>
</g>
<defs>
<clipPath id="clip0_2843_13112">
<rect width="40.96" height="40.96" fill="white" transform="translate(11.5234 10.52)"/>
</clipPath>
<clipPath id="clip1_2843_13112">
<rect width="42.4931" height="43.28" fill="white" transform="translate(11 9)"/>
</clipPath>
</defs>
</svg>
