<svg width="64" height="64" viewBox="0 0 64 64" fill="none" xmlns="http://www.w3.org/2000/svg">
<rect x="1" y="1" width="62" height="62" rx="31" fill="#F5B7FF"/>
<rect x="1" y="1" width="62" height="62" rx="31" stroke="white" stroke-width="2"/>
<path d="M47.99 28.5957C47.3856 28.3469 46.5856 28.2224 45.59 28.2224H36.2034C33.11 28.2224 32.0078 29.3246 32.0078 32.4535V46.2135C32.0078 47.2446 32.1323 48.0446 32.3989 48.6669C32.95 49.9469 34.1234 50.4446 36.2034 50.4446H45.59C48.6834 50.4446 49.7856 49.3246 49.7856 46.2135V32.4535C49.7856 30.338 49.2878 29.1469 47.99 28.5957ZM42.6745 46.4446H39.1189C39.0834 46.4446 39.03 46.4446 38.9945 46.4269C38.7278 46.4091 38.4967 46.3202 38.3011 46.1424C37.9811 45.9113 37.7856 45.538 37.7856 45.1113C37.7856 44.3824 38.39 43.778 39.1189 43.778H42.6745C43.4034 43.778 44.0078 44.3824 44.0078 45.1113C44.0078 45.8402 43.4034 46.4446 42.6745 46.4446Z" fill="#292D32"/>
<path d="M47.9844 22.338V23.778C47.9844 24.7558 47.1844 25.5558 46.2066 25.5558H36.1977C31.6466 25.5558 29.3355 27.8847 29.3355 32.4536V48.6669C29.3355 49.6447 28.5355 50.4447 27.5577 50.4447H24.0911C23.38 50.4447 22.8111 49.8758 22.8111 49.1825C22.8111 48.4714 23.38 47.9203 24.0911 47.9203H27.5577V41.1114H21.3355C17.3889 40.9158 14.2422 37.6625 14.2422 33.6625V22.338C14.2422 18.2314 17.5844 14.8892 21.7089 14.8892H40.5355C44.6422 14.8892 47.9844 18.2314 47.9844 22.338Z" fill="#292D32"/>
</svg>
