<svg width="100" height="100" viewBox="0 0 100 100" fill="none" xmlns="http://www.w3.org/2000/svg">
<rect x="1.5625" y="1.5625" width="96.875" height="96.875" rx="48.4375" fill="#F7DF1E"/>
<rect x="1.5625" y="1.5625" width="96.875" height="96.875" rx="48.4375" stroke="white" stroke-width="3.125"/>
<g clip-path="url(#clip0_2861_13880)">
<path d="M59.959 66.6992C61.6191 69.5312 63.8164 70.9473 66.5508 70.9473C69.9688 70.9473 71.6777 69.6289 71.6777 66.9922C71.6777 65.3809 69.4805 63.916 65.9648 62.4512C59.4219 60.3027 56.1992 56.6406 56.2969 51.4648C56.2969 46.1914 60.252 42.0898 66.5508 42.0898C71.2383 42.0898 74.5586 43.9941 76.5117 47.8027L71.0918 51.3184C69.9199 49.1699 68.4062 48.1445 66.5508 48.2422C64.4023 48.3398 63.2793 49.3652 63.1816 51.3184C63.1816 53.3691 64.5 54.248 68.8945 56.1523C75.1934 58.6426 78.709 61.4258 78.709 67.4316C78.416 73.7793 74.5586 77.0508 67.1367 77.2461C60.9844 77.2461 56.6387 74.8535 54.0996 70.0684L59.959 66.6992ZM35.0566 67.2852C36.2285 69.1895 36.9609 70.9473 39.8906 70.9473C42.2344 70.9473 43.4062 69.4824 43.4062 66.5527V42.2363H50.4375V66.2598C50.3398 73.1934 46.8242 76.709 39.8906 76.8066C34.7148 76.709 31.1992 74.5605 29.3438 70.3613L35.0566 67.2852Z" fill="black"/>
</g>
<defs>
<clipPath id="clip0_2861_13880">
<rect width="75" height="75" fill="white" transform="translate(12.5 12.5)"/>
</clipPath>
</defs>
</svg>
