<svg width="100" height="100" viewBox="0 0 100 100" fill="none" xmlns="http://www.w3.org/2000/svg">
<rect x="1.5625" y="1.5625" width="96.875" height="96.875" rx="48.4375" fill="#424652"/>
<rect x="1.5625" y="1.5625" width="96.875" height="96.875" rx="48.4375" stroke="white" stroke-width="3.125"/>
<path opacity="0.2" d="M41.7969 59.375C39.6213 59.375 37.5348 60.2393 35.9964 61.7776C34.458 63.316 33.5938 65.4025 33.5938 67.5781C33.5938 69.7537 34.458 71.8402 35.9964 73.3786C37.5348 74.917 39.6213 75.7812 41.7969 75.7812C43.9725 75.7812 46.059 74.917 47.5974 73.3786C49.1357 71.8402 50 69.7537 50 67.5781V59.375H41.7969Z" fill="black"/>
<path d="M41.7969 58.2031C39.6213 58.2031 37.5348 59.0674 35.9964 60.6058C34.458 62.1441 33.5938 64.2306 33.5938 66.4062C33.5938 68.5819 34.458 70.6684 35.9964 72.2067C37.5348 73.7451 39.6213 74.6094 41.7969 74.6094C43.9725 74.6094 46.059 73.7451 47.5974 72.2067C49.1357 70.6684 50 68.5819 50 66.4062V58.2031H41.7969Z" fill="#09C37B"/>
<path opacity="0.2" d="M41.7969 42.9688H50V59.375H41.7969C37.2523 59.375 33.5938 55.7164 33.5938 51.1719C33.5938 46.6273 37.2523 42.9688 41.7969 42.9688Z" fill="black"/>
<path opacity="0.2" d="M58.2031 59.375C62.7336 59.375 66.4062 55.7023 66.4062 51.1719C66.4062 46.6414 62.7336 42.9688 58.2031 42.9688C53.6727 42.9688 50 46.6414 50 51.1719C50 55.7023 53.6727 59.375 58.2031 59.375Z" fill="black"/>
<path d="M41.7969 41.7969H50V58.2031H41.7969C37.2523 58.2031 33.5938 54.5445 33.5938 50C33.5938 45.4555 37.2523 41.7969 41.7969 41.7969Z" fill="#9154DD"/>
<path d="M58.2031 58.2031C62.7336 58.2031 66.4062 54.5305 66.4062 50C66.4062 45.4695 62.7336 41.7969 58.2031 41.7969C53.6727 41.7969 50 45.4695 50 50C50 54.5305 53.6727 58.2031 58.2031 58.2031Z" fill="#01B1F8"/>
<path opacity="0.2" d="M41.7969 26.5625C37.2523 26.5625 33.5938 30.2211 33.5938 34.7656C33.5938 39.3102 37.2523 42.9688 41.7969 42.9688H50V26.5625H41.7969Z" fill="black"/>
<path d="M41.7969 25.3906C37.2523 25.3906 33.5938 29.0492 33.5938 33.5938C33.5938 38.1383 37.2523 41.7969 41.7969 41.7969H50V25.3906H41.7969Z" fill="#F24E1E"/>
<path opacity="0.2" d="M50 26.5625H58.2031C62.7477 26.5625 66.4062 30.2211 66.4062 34.7656C66.4062 39.3102 62.7477 42.9688 58.2031 42.9688H50V26.5625Z" fill="black"/>
<path d="M50 25.3906H58.2031C62.7477 25.3906 66.4062 29.0492 66.4062 33.5938C66.4062 38.1383 62.7477 41.7969 58.2031 41.7969H50V25.3906Z" fill="#FF7262"/>
<path opacity="0.2" d="M41.7969 25.3906C37.2523 25.3906 33.5938 29.0492 33.5938 33.5938C33.5938 33.7919 33.6098 33.9851 33.6235 34.1797C33.9236 29.9122 37.4505 26.5625 41.7969 26.5625H50H58.2031C62.5495 26.5625 66.0764 29.9122 66.3765 34.1797C66.3902 33.9851 66.4062 33.7919 66.4062 33.5938C66.4062 29.0492 62.7477 25.3906 58.2031 25.3906H50H41.7969Z" fill="white"/>
</svg>
