<svg width="64" height="64" viewBox="0 0 64 64" fill="none" xmlns="http://www.w3.org/2000/svg">
<rect x="1" y="1" width="62" height="62" rx="31" fill="#B1E5FF"/>
<rect x="1" y="1" width="62" height="62" rx="31" stroke="white" stroke-width="2"/>
<g clip-path="url(#clip0_2877_19774)">
<path d="M13.5202 21.6069C9.74686 27.0335 10.2135 34.0922 13.0989 39.8735C13.1655 40.0122 13.2389 40.1482 13.3095 40.2842L13.4429 40.5442C13.4695 40.5949 13.4989 40.6442 13.5269 40.6935C13.5762 40.7869 13.6269 40.8722 13.6775 40.9629L13.9535 41.4349L14.1109 41.6935L14.4309 42.1935L14.5669 42.4042C14.7175 42.6282 14.8709 42.8522 15.0295 43.0709L15.1202 43.1935C15.2576 43.3824 15.3981 43.5691 15.5415 43.7535L15.7015 43.9562L16.0909 44.4362L16.2402 44.6149C16.4175 44.8242 16.6002 45.0322 16.7829 45.2349C16.8015 45.2549 16.8095 45.2615 16.8149 45.2695C16.996 45.466 17.18 45.6598 17.3669 45.8509L17.5442 46.0295L17.9842 46.4615L18.1642 46.6349C18.3622 46.8216 18.5636 47.0047 18.7682 47.1842L19.4295 47.7442L19.6562 47.9255L20.1135 48.2829L20.3575 48.4695L20.8709 48.8375L21.1109 49.0069C21.2749 49.1202 21.4415 49.2282 21.6095 49.3362L21.8255 49.4802C22.0829 49.6436 22.3429 49.8027 22.6055 49.9575L22.8215 50.0909L23.4082 50.4189C23.5149 50.4762 23.6242 50.5309 23.7322 50.5855L24.1509 50.8029L24.2482 50.8495L24.4215 50.9322L25.0855 51.2389L25.2255 51.3015C25.4818 51.4132 25.7401 51.5203 26.0002 51.6229L26.1869 51.6975L26.9175 51.9682L27.0109 52.0002C27.2806 52.0931 27.5518 52.182 27.8242 52.2669L28.0215 52.3255C28.2882 52.4095 28.5762 52.5122 28.8615 52.5629C47.1202 55.8922 52.4215 41.5895 52.4215 41.5895C47.9682 47.3922 40.0615 48.9229 32.5549 47.2189C32.2709 47.1549 31.9949 47.0669 31.7189 46.9842L31.5109 46.9215C31.2409 46.8386 30.9725 46.751 30.7055 46.6589L30.5949 46.6189C30.3572 46.5345 30.1208 46.447 29.8855 46.3562L29.6855 46.2762C29.4278 46.1748 29.1722 46.0681 28.9189 45.9562L28.7655 45.8895L28.1189 45.5882L27.9322 45.4989C27.7642 45.4189 27.5989 45.3295 27.4322 45.2322L27.0989 45.0589C26.8962 44.9522 26.6989 44.8375 26.4989 44.7229L26.2962 44.6095C26.0337 44.4545 25.7737 44.2954 25.5162 44.1322C25.4455 44.0869 25.3762 44.0389 25.3055 43.9922L24.7509 43.6229C24.6895 43.5829 24.6175 43.5375 24.5722 43.4975L24.0469 43.1175L23.8135 42.9415L23.3402 42.5709L23.1295 42.4015L22.5402 41.9042C22.5188 41.8855 22.4965 41.8677 22.4735 41.8509L21.8535 41.2869L21.6802 41.1189L21.2375 40.6789L21.0642 40.5055C20.8775 40.3149 20.6962 40.1229 20.5309 39.9269C20.5215 39.9175 20.5122 39.9082 20.5042 39.8975C20.3154 39.6903 20.1305 39.4796 19.9495 39.2655L19.8162 39.0922L19.4162 38.5989L19.2829 38.4162L18.8215 37.8029C14.6375 32.1335 13.1415 24.2962 16.4669 17.8695M25.2402 17.0362C22.5095 20.9655 22.6575 26.2362 24.7869 30.3802C25.1437 31.0786 25.5473 31.7522 25.9949 32.3962C26.4042 32.9829 26.8575 33.6802 27.4002 34.1509C27.5975 34.3682 27.8029 34.5775 28.0135 34.7869L28.1735 34.9469C28.3773 35.1456 28.5858 35.3394 28.7989 35.5282C28.8082 35.5349 28.8149 35.5442 28.8255 35.5509C29.0682 35.7642 29.3135 35.9509 29.5629 36.1615L29.7282 36.2909C29.9783 36.4838 30.2335 36.6701 30.4935 36.8495L30.5162 36.8655C30.6309 36.9455 30.7482 37.0189 30.8655 37.0962C30.9215 37.1322 30.9749 37.1709 31.0309 37.2055C31.2173 37.3251 31.4062 37.4407 31.5975 37.5522L31.6775 37.5989L32.1789 37.8655C32.2375 37.8989 32.3122 37.9269 32.3575 37.9589L32.7082 38.1402C32.7255 38.1495 32.7442 38.1562 32.7615 38.1642C33.002 38.284 33.2457 38.3974 33.4922 38.5042L33.6522 38.5709C33.8508 38.6552 34.0508 38.7361 34.2522 38.8135L34.5082 38.9069C34.6908 38.9732 34.8743 39.0368 35.0589 39.0975L35.3082 39.1775C35.5709 39.2575 35.8415 39.3642 36.1042 39.4082C50.2015 41.7442 53.4562 30.8749 53.4562 30.8749C50.5229 35.1015 44.8429 37.1149 38.7789 35.5415C38.5108 35.471 38.2445 35.3941 37.9802 35.3109C37.9002 35.2869 37.8202 35.2602 37.7402 35.2335L37.1802 35.0415L36.9135 34.9482C36.7122 34.8705 36.5122 34.7896 36.3135 34.7055L36.1509 34.6389C35.9028 34.531 35.6574 34.4172 35.4149 34.2975L35.0455 34.1109L34.8322 34.0015C34.6753 33.9164 34.5197 33.8288 34.3655 33.7389L34.2535 33.6762C34.0628 33.5645 33.8743 33.4489 33.6882 33.3295C33.6309 33.2935 33.5749 33.2535 33.5175 33.2162L33.1509 32.9735C32.8926 32.7946 32.6392 32.6087 32.3909 32.4162L32.2175 32.2829C29.5509 30.1869 27.4602 27.3229 26.4602 24.0775C25.4122 20.7109 25.6375 16.9309 27.4535 13.8642M35.0962 13.6202C33.4882 16.0002 33.3282 18.9309 34.4455 21.5469C35.6229 24.3242 38.0362 26.5015 40.8535 27.5469L41.2029 27.6802L41.3575 27.7282L41.8602 27.8615C49.6442 29.3655 51.7535 23.8669 52.3175 23.0575C50.4682 25.7202 47.3602 26.3589 43.5469 25.4335C43.2455 25.3602 42.9149 25.2509 42.6242 25.1482C42.2511 25.016 41.8853 24.8642 41.5282 24.6935C40.8505 24.3676 40.2068 23.975 39.6069 23.5215C36.1949 20.9335 34.0749 15.9815 36.3015 11.9602" fill="#0868AC"/>
</g>
<defs>
<clipPath id="clip0_2877_19774">
<rect width="42.6667" height="42.6667" fill="white" transform="translate(10.6641 11.3333)"/>
</clipPath>
</defs>
</svg>
