<svg width="100" height="100" viewBox="0 0 100 100" fill="none" xmlns="http://www.w3.org/2000/svg">
<rect x="1.5625" y="1.5625" width="96.875" height="96.875" rx="48.4375" fill="#E8E4D9"/>
<rect x="1.5625" y="1.5625" width="96.875" height="96.875" rx="48.4375" stroke="white" stroke-width="3.125"/>
<g clip-path="url(#clip0_2861_13844)">
<path d="M39.737 70.4846C39.737 70.4846 36.8542 72.2377 41.7409 72.7393C47.6237 73.4893 50.7573 73.3651 57.2682 72.1135C58.5768 72.9149 59.9608 73.5861 61.4003 74.1174C46.7518 80.3799 28.2151 73.7424 39.737 70.4846ZM37.862 62.3448C37.862 62.3448 34.7307 64.7237 39.6151 65.2276C46.0018 65.8534 51.0104 65.9776 59.6542 64.2268C60.4948 65.0794 61.524 65.7224 62.6589 66.1041C45.001 71.3635 25.2151 66.6034 37.862 62.3448ZM72.4253 76.6182C72.4253 76.6182 74.5534 78.3713 70.0464 79.7495C61.6557 82.2573 34.8573 83.0073 27.3432 79.7495C24.7135 78.6245 29.7221 76.9955 31.3276 76.7448C32.9565 76.3698 33.8354 76.3698 33.8354 76.3698C30.9526 74.3659 14.6753 80.5018 25.5714 82.2526C55.501 87.137 80.1714 80.1245 72.4065 76.6182H72.4253ZM41.0917 53.8276C41.0917 53.8276 27.4417 57.0854 36.2073 58.2104C39.9643 58.712 47.3518 58.5854 54.2401 58.0862C59.8745 57.5846 65.5135 56.5862 65.5135 56.5862C65.5135 56.5862 63.5096 57.4627 62.1315 58.3393C48.2331 61.9721 21.5565 60.3432 29.1971 56.5862C35.7081 53.4549 41.094 53.8323 41.094 53.8323L41.0917 53.8276ZM65.5135 67.4776C79.5385 60.212 73.0276 53.2041 68.5182 54.0784C67.3932 54.3291 66.8893 54.5799 66.8893 54.5799C66.8893 54.5799 67.2643 53.8299 68.1409 53.5791C77.0331 50.4479 84.0456 62.9705 65.2581 67.8526C65.2581 67.8526 65.3823 67.7284 65.5089 67.4776H65.5135ZM42.4745 87.2635C55.9979 88.1401 76.6628 86.762 77.162 80.3729C77.162 80.3729 76.1612 82.8807 66.0174 84.7557C54.4956 86.8838 40.2198 86.6307 31.8292 85.2573C31.8292 85.2573 33.5823 86.7596 42.4745 87.2635Z" fill="#4E7896"/>
<path d="M57.0179 12.5022C57.0179 12.5022 64.7828 20.3913 49.6304 32.2881C37.4828 41.9303 46.8765 47.4405 49.6304 53.703C42.4914 47.3163 37.3586 41.6795 40.8648 36.4225C45.9976 28.6553 60.1492 24.9217 57.0179 12.5022ZM53.0336 48.4436C56.6664 52.5756 52.0328 56.3327 52.0328 56.3327C52.0328 56.3327 61.3 51.5749 57.0414 45.6874C53.1601 40.053 50.1507 37.2967 66.4328 27.9053C66.4328 27.9053 40.7617 34.292 53.0336 48.4436Z" fill="#F58219"/>
</g>
<defs>
<clipPath id="clip0_2861_13844">
<rect width="75" height="75" fill="white" transform="translate(12.5 12.5)"/>
</clipPath>
</defs>
</svg>
