<svg width="100" height="100" viewBox="0 0 100 100" fill="none" xmlns="http://www.w3.org/2000/svg">
<rect x="1.5625" y="1.5625" width="96.875" height="96.875" rx="48.4375" fill="#214674"/>
<rect x="1.5625" y="1.5625" width="96.875" height="96.875" rx="48.4375" stroke="white" stroke-width="3.125"/>
<path d="M61.2922 48.4004C65.2922 49.8004 67.3922 52.2004 67.3922 55.7004C67.3922 58.0004 66.5922 59.7004 64.8922 61.1004C63.1922 62.4004 60.8922 63.2004 57.7922 63.2004C54.8922 63.2004 52.1922 62.4004 49.6922 61.1004C49.3922 60.9004 49.1922 60.6004 49.1922 60.2004C49.3133 59.5126 49.5147 58.8414 49.7922 58.2004L50.5922 56.6004C50.8922 56.2004 51.2922 56.1004 51.7922 56.3004C53.9922 57.3004 55.7922 57.9004 57.4922 57.9004C58.2922 57.9004 58.9922 57.8004 59.4922 57.5004C59.9922 57.2004 60.1922 56.8004 60.1922 56.4004C60.1922 55.5004 59.4922 54.8004 58.0922 54.4004L55.5922 53.5004C51.7922 52.1004 49.8922 49.9004 49.8922 46.7004C49.8922 44.4004 50.6922 42.6004 52.2922 41.3004C53.8922 40.0004 55.9922 38.8004 58.6922 38.8004C59.9922 38.8004 61.4922 39.0004 63.0922 39.4004C64.4922 39.7004 65.5922 40.4004 66.5922 41.0004C66.8922 41.2004 67.0922 41.5004 67.0922 41.9004C67.0922 42.6004 66.8922 43.3004 66.5922 44.1004C66.2922 44.8004 65.9922 45.4004 65.5922 45.8004C65.2922 46.1004 64.8922 46.2004 64.5922 46.0004C62.2922 45.0004 60.3922 44.5004 58.7922 44.5004C58.1922 44.5004 57.6922 44.6004 57.3922 44.9004C57.0922 45.2004 56.8922 45.5004 56.8922 45.9004C56.8922 46.6004 57.4922 47.2004 58.5922 47.6004L61.2922 48.4004ZM79.8922 52.0004C78.5922 53.1004 77.8922 54.7004 77.8922 56.9004V64.8004C77.8922 67.4004 77.0922 69.4004 75.2922 70.8004C73.4922 72.2004 71.3922 72.8004 68.9922 72.9004H67.5922V69.6004C67.5922 69.2004 67.7922 68.9004 68.1922 68.8004C69.0922 68.5004 69.4922 68.1004 69.8922 67.7004C70.7922 66.9004 71.4922 65.5004 71.4922 63.7004V57.3004C71.4922 55.1004 71.6922 53.4004 72.4922 52.2004C73.0922 51.3004 74.0922 50.5004 75.4922 49.7004C76.0922 49.4004 76.0922 48.5004 75.4922 48.1004C73.7922 47.1004 72.6922 45.9004 71.9922 44.4004C71.4922 43.3004 71.4922 41.8004 71.4922 39.9004V34.1004C71.4922 32.2004 70.8922 30.8004 70.0922 30.1004C69.6096 29.5896 68.9809 29.2403 68.2922 29.1004C67.8922 29.0004 67.6922 28.6004 67.6922 28.2004V26.1004C67.6922 25.6004 68.0922 25.2004 68.5922 25.2004H71.2922C72.7922 25.2004 74.0922 26.0004 75.1922 26.9004C76.3922 27.9004 77.2922 29.1004 77.7922 30.8004C78.0922 31.7004 78.0922 32.6004 78.0922 33.5004V40.2004C78.0922 42.6004 78.7922 44.4004 79.9922 45.5004C80.5922 46.1004 81.3922 46.6004 82.6922 47.1004C83.0922 47.2004 83.2922 47.6004 83.2922 47.9004V49.6004C83.2922 50.0004 83.0922 50.3004 82.6922 50.5004C81.2922 50.9004 80.4922 51.4004 79.8922 52.0004ZM30.7922 25.2004H29.4922C27.9922 25.2004 26.6922 26.0004 25.5922 26.9004C24.3922 27.9004 23.2922 29.1004 22.9922 30.8004C22.7922 31.8004 22.8922 32.6004 22.8922 33.5004V40.2004C22.8922 42.6004 21.9922 44.3004 20.7922 45.5004C20.1922 46.1004 18.9922 46.6004 17.5922 47.1004C17.1922 47.3004 16.9922 47.6004 16.9922 48.0004V49.7004C16.9922 50.1004 17.1922 50.4004 17.5922 50.6004C18.7922 51.0004 19.8922 51.5004 20.5922 52.1004C21.8922 53.2004 22.7922 54.8004 22.7922 57.0004V64.9004C22.7922 67.5004 23.3922 69.5004 25.1922 70.9004C26.9922 72.3004 29.0922 72.9004 31.4922 73.0004H32.1922C32.6922 73.0004 33.0922 72.6004 33.0922 72.1004V69.7004C33.0922 69.3004 32.8922 69.0004 32.4922 68.9004C31.5922 68.6004 30.9922 68.2004 30.5922 67.8004C29.6922 67.0004 29.1922 65.6004 29.1922 63.8004V57.4004C29.1922 55.2004 28.7922 53.5004 27.9922 52.3004C27.3922 51.4004 26.3922 50.6004 24.9922 49.8004C24.3922 49.5004 24.3922 48.6004 24.9922 48.2004C26.6922 47.2004 27.7922 46.0004 28.4922 44.5004C28.9922 43.4004 29.1922 41.9004 29.1922 40.0004V34.2004C29.1922 32.3004 29.5922 30.9004 30.3922 30.2004C30.7922 29.8004 31.4922 29.5004 32.4922 29.2004H33.3922C33.8922 29.2004 34.2922 28.8004 34.2922 28.3004V26.2004C34.2922 25.7004 33.8922 25.3004 33.3922 25.3004L30.7922 25.2004ZM46.9922 57.1004H45.7922C44.4922 57.1004 43.9922 56.4004 43.9922 55.0004V29.1004C43.9922 27.5004 43.4922 26.4004 42.9922 25.8004C42.3922 25.2004 41.3922 25.2004 39.9922 25.2004H37.7922C37.2922 25.2004 36.8922 25.6004 36.8922 26.1004V56.3004C36.8922 58.5004 37.3922 60.0004 38.2922 61.1004C39.1922 62.1004 40.5922 62.6004 42.6922 62.6004C43.9922 62.6004 45.3922 62.5004 46.8922 62.3004C47.2922 62.2004 47.5922 61.9004 47.6922 61.5004V60.3004C47.4922 59.1004 47.2922 58.1004 46.9922 57.1004Z" fill="#F6F6F6"/>
</svg>
