<svg width="64" height="64" viewBox="0 0 64 64" fill="none" xmlns="http://www.w3.org/2000/svg">
<rect x="1" y="1" width="62" height="62" rx="31" fill="#E8E4D9"/>
<rect x="1" y="1" width="62" height="62" rx="31" stroke="white" stroke-width="2"/>
<g clip-path="url(#clip0_2840_12148)">
<path d="M25.4339 45.11C25.4339 45.11 23.5889 46.232 26.7164 46.553C30.4814 47.033 32.4869 46.9535 36.6539 46.1525C37.4913 46.6654 38.3771 47.095 39.2984 47.435C29.9234 51.4431 18.0599 47.195 25.4339 45.11ZM24.2339 39.9005C24.2339 39.9005 22.2299 41.423 25.3559 41.7455C29.4434 42.146 32.6489 42.2255 38.1809 41.105C38.7189 41.6507 39.3776 42.0622 40.1039 42.3065C28.8029 45.6725 16.1399 42.626 24.2339 39.9005ZM46.3544 49.0355C46.3544 49.0355 47.7164 50.1575 44.8319 51.0395C39.4619 52.6446 22.3109 53.1245 17.5019 51.0395C15.8189 50.3195 19.0244 49.277 20.0519 49.1165C21.0944 48.8765 21.6569 48.8765 21.6569 48.8765C19.8119 47.594 9.39436 51.521 16.3679 52.6415C35.5229 55.7675 51.3119 51.2795 46.3424 49.0355H46.3544ZM26.3009 34.4495C26.3009 34.4495 17.5649 36.5345 23.1749 37.2545C25.5794 37.5755 30.3074 37.4945 34.7159 37.175C38.3219 36.854 41.9309 36.215 41.9309 36.215C41.9309 36.215 40.6484 36.776 39.7664 37.337C30.8714 39.662 13.7984 38.6195 18.6884 36.215C22.8554 34.211 26.3024 34.4525 26.3024 34.4525L26.3009 34.4495ZM41.9309 43.1855C50.9069 38.5355 46.7399 34.0505 43.8539 34.61C43.1339 34.7705 42.8114 34.931 42.8114 34.931C42.8114 34.931 43.0514 34.451 43.6124 34.2905C49.3034 32.2865 53.7914 40.301 41.7674 43.4255C41.7674 43.4255 41.8469 43.346 41.9279 43.1855H41.9309ZM27.1859 55.8485C35.8409 56.4095 49.0664 55.5275 49.3859 51.4385C49.3859 51.4385 48.7454 53.0435 42.2534 54.2435C34.8794 55.6055 25.7429 55.4435 20.3729 54.5645C20.3729 54.5645 21.4949 55.526 27.1859 55.8485Z" fill="#4E7896"/>
<path d="M36.4912 8.00146C36.4912 8.00146 41.4607 13.0505 31.7632 20.6645C23.9887 26.8355 30.0007 30.362 31.7632 34.37C27.1942 30.2825 23.9092 26.675 26.1532 23.3105C29.4382 18.3395 38.4952 15.95 36.4912 8.00146ZM33.9412 31.004C36.2662 33.6485 33.3007 36.053 33.3007 36.053C33.3007 36.053 39.2317 33.008 36.5062 29.24C34.0222 25.634 32.0962 23.87 42.5167 17.8595C42.5167 17.8595 26.0872 21.947 33.9412 31.004Z" fill="#F58219"/>
</g>
<defs>
<clipPath id="clip0_2840_12148">
<rect width="48" height="48" fill="white" transform="translate(8 8)"/>
</clipPath>
</defs>
</svg>
