<svg width="100" height="100" viewBox="0 0 100 100" fill="none" xmlns="http://www.w3.org/2000/svg">
<rect x="1.5625" y="1.5625" width="96.875" height="96.875" rx="48.4375" fill="#EF652A"/>
<rect x="1.5625" y="1.5625" width="96.875" height="96.875" rx="48.4375" stroke="white" stroke-width="3.125"/>
<g clip-path="url(#clip0_2840_12145)">
<path d="M25.8566 76.1912L21 18.1086L79 18.2253L73.8647 76.1912L50.2189 82.8914L25.8566 76.1912Z" fill="#E34F26"/>
<path d="M50.2188 77.2822V23.6404L74.1035 23.7182L69.8443 71.7112L50.2188 77.2822Z" fill="#EF652A"/>
<path d="M67.5349 37.0411L68.2113 29.9509H31.4688L33.4987 51.6883H58.8564L57.862 60.9596L49.7411 63.1017L41.5009 60.7646L41.0631 55.233H33.7775L34.7729 66.5301L49.7406 70.6203L64.8276 66.5301L66.8576 44.4814H40.2267L39.4704 37.0411H67.5349Z" fill="white"/>
</g>
<defs>
<clipPath id="clip0_2840_12145">
<rect width="58" height="65" fill="white" transform="translate(21 18)"/>
</clipPath>
</defs>
</svg>
