<svg width="100" height="100" viewBox="0 0 100 100" fill="none" xmlns="http://www.w3.org/2000/svg">
<rect x="1.5625" y="1.5625" width="96.875" height="96.875" rx="48.4375" fill="#131D52"/>
<rect x="1.5625" y="1.5625" width="96.875" height="96.875" rx="48.4375" stroke="white" stroke-width="3.125"/>
<path d="M78.1094 32.4303V68.2359C78.1094 69.9998 77.0122 71.5692 75.3594 72.1526L63.1094 77.9026L64.2205 62.8331V37.8331L63.1094 22.7637L75.3594 28.5137C77.0122 29.097 78.1094 30.6664 78.1094 32.4303Z" fill="#29B6F6"/>
<path d="M29.5106 64.0774L64.2328 37.833V24.4343C64.2328 22.7705 62.1745 21.9927 61.0731 23.2399L23.48 57.6093C22.23 58.7621 22.3009 60.758 23.6287 61.8205C23.6287 61.8205 25.4675 63.5316 26.1328 64.0066C27.155 64.7357 28.4981 64.8191 29.5106 64.0774Z" fill="#0277BD"/>
<path d="M29.5106 36.5889L64.2328 62.8334V76.232C64.2328 77.8959 62.1745 78.6737 61.0731 77.4264L23.48 43.057C22.23 41.9042 22.3009 39.9084 23.6287 38.8459C23.6287 38.8459 25.4675 37.1348 26.1328 36.6598C27.155 35.9306 28.4981 35.8473 29.5106 36.5889Z" fill="#0288D1"/>
</svg>
