<svg width="100" height="100" viewBox="0 0 100 100" fill="none" xmlns="http://www.w3.org/2000/svg">
<rect x="1.5625" y="1.5625" width="96.875" height="96.875" rx="48.4375" fill="#001E36"/>
<rect x="1.5625" y="1.5625" width="96.875" height="96.875" rx="48.4375" stroke="white" stroke-width="3.125"/>
<g clip-path="url(#clip0_2861_13911)">
<g clip-path="url(#clip1_2861_13911)">
<path d="M28.9452 14.9078H71.8253C78.3269 14.9078 83.583 20.2613 83.583 26.8833V68.8668C83.583 75.4888 78.3269 80.8423 71.8253 80.8423H28.9452C22.4436 80.8423 17.1875 75.4888 17.1875 68.8668V26.8833C17.1875 20.2613 22.4436 14.9078 28.9452 14.9078Z" fill="#001E36"/>
<path d="M40.9701 31.6731C40.1402 31.6731 39.3102 31.6731 38.4528 31.7016C37.5948 31.7296 36.7924 31.7296 36.0454 31.7582C35.2985 31.7862 34.607 31.7862 33.9431 31.8142C33.3066 31.8422 32.8641 31.8422 32.3937 31.8422C32.2002 31.8422 32.1172 31.9547 32.1172 32.1523V61.1465C32.1172 61.4001 32.2277 61.5132 32.4492 61.5132H37.8163C38.0098 61.4846 38.1483 61.3156 38.1203 61.1185V52.0737C38.6457 52.0737 39.0332 52.0737 39.3102 52.1017C39.5867 52.1297 40.0291 52.1297 40.6931 52.1297C42.962 52.1297 45.0368 51.8761 46.9177 51.1718C48.7161 50.4956 50.2655 49.3121 51.3719 47.734C52.4783 46.1565 53.0318 44.1557 53.0318 41.7323C53.0318 40.4644 52.8108 39.2529 52.3958 38.0695C51.9564 36.8636 51.2675 35.7682 50.3759 34.8573C49.3239 33.8163 48.0575 33.0269 46.6687 32.5464C45.1193 31.9547 43.2384 31.6731 40.9701 31.6731ZM41.5874 37.2231C42.5729 37.2421 43.5325 37.4175 44.4278 37.7873C45.2303 38.0975 45.8943 38.6612 46.3647 39.3934C46.8065 40.151 47.0273 41.0212 47.0012 41.9019C47.0012 43.1414 46.7242 44.0997 46.1432 44.804C45.5343 45.5082 44.7598 46.0439 43.8749 46.2975C42.851 46.6357 41.772 46.8042 40.6931 46.8042H39.2267C38.8947 46.8042 38.5358 46.7762 38.1483 46.7482V37.2807C38.3418 37.2522 38.7292 37.2242 39.2827 37.2527C39.8082 37.2242 40.4441 37.2242 41.1636 37.2242C41.3052 37.2205 41.4468 37.2199 41.5874 37.2231ZM64.7895 38.6617C62.8251 38.6617 61.1927 38.9713 59.8928 39.6476C58.7034 40.2113 57.6795 41.1126 56.988 42.2395C56.3796 43.2824 56.0471 44.4373 56.0471 45.6493C56.0233 46.6461 56.242 47.6334 56.6835 48.5234C57.201 49.4709 57.9194 50.289 58.7864 50.9182C60.0035 51.7659 61.324 52.4479 62.7146 52.947C64.07 53.4822 64.983 53.9048 65.4259 54.271C65.8684 54.6376 66.0899 55.0037 66.0899 55.3984C66.0899 55.9056 65.7854 56.3848 65.3429 56.5818C64.845 56.8354 64.098 56.9765 63.0466 56.9765C61.9402 56.9765 60.8332 56.8354 59.7818 56.5538C58.5746 56.2789 57.4172 55.8131 56.3515 55.1733C56.2685 55.1168 56.1856 55.0888 56.1026 55.1453C56.0196 55.2013 55.9921 55.3139 55.9921 55.3984V60.3012C55.9646 60.5268 56.1026 60.7239 56.2966 60.8364C57.1937 61.2633 58.1426 61.5666 59.1184 61.7382C60.3633 61.9918 61.6077 62.1044 62.8801 62.1044C64.872 62.1044 66.5324 61.7948 67.8878 61.2031C69.1327 60.6959 70.2116 59.8226 70.986 58.6951C71.7111 57.5866 72.0874 56.2795 72.065 54.9477C72.092 53.9417 71.8735 52.9445 71.429 52.0457C70.903 51.0873 70.1561 50.2985 69.2432 49.7068C67.9075 48.8526 66.4776 48.1621 64.983 47.6495C64.3154 47.3683 63.66 47.058 63.0186 46.7197C62.6591 46.5226 62.3271 46.269 62.0782 45.9589C61.9122 45.7333 61.8017 45.4802 61.8017 45.2266C61.8017 44.973 61.8847 44.6914 62.0227 44.4659C62.2167 44.1843 62.5206 43.9867 62.8801 43.9021C63.4061 43.7616 63.987 43.6765 64.54 43.7045C65.5914 43.7045 66.6148 43.8456 67.6388 44.0712C68.5797 44.2683 69.4647 44.5784 70.2946 45.0296C70.4051 45.0856 70.5436 45.0856 70.7926 45.0296C70.8359 44.9971 70.8711 44.9545 70.8951 44.9055C70.9192 44.8564 70.9315 44.8023 70.9311 44.7474V40.1548C70.9311 40.0417 70.903 39.9292 70.8756 39.8166C70.8201 39.7041 70.7096 39.591 70.5991 39.563C69.8361 39.2452 69.0366 39.0274 68.2197 38.9148C67.0838 38.7463 65.9374 38.6621 64.7895 38.6617Z" fill="#31A8FF"/>
</g>
</g>
<defs>
<clipPath id="clip0_2861_13911">
<rect width="64" height="64" fill="white" transform="translate(18.0078 16.4375)"/>
</clipPath>
<clipPath id="clip1_2861_13911">
<rect width="66.3955" height="67.625" fill="white" transform="translate(17.1875 14.0625)"/>
</clipPath>
</defs>
</svg>
