<svg width="48" height="48" viewBox="0 0 48 48" fill="none" xmlns="http://www.w3.org/2000/svg">
<rect x="0.78125" y="0.78125" width="46.4375" height="46.4375" rx="23.2188" fill="#B1E5FF"/>
<rect x="0.78125" y="0.78125" width="46.4375" height="46.4375" rx="23.2188" stroke="white" stroke-width="1.5625"/>
<g clip-path="url(#clip0_2877_19777)">
<path d="M10.1401 15.7052C7.31015 19.7752 7.66015 25.0692 9.82415 29.4052C9.87415 29.5092 9.92915 29.6112 9.98215 29.7132L10.0821 29.9082C10.1021 29.9462 10.1241 29.9832 10.1451 30.0202C10.1821 30.0902 10.2201 30.1542 10.2581 30.2222L10.4651 30.5762L10.5831 30.7702L10.8231 31.1452L10.9251 31.3032C11.0381 31.4712 11.1531 31.6392 11.2721 31.8032L11.3401 31.8952C11.4432 32.0369 11.5486 32.1769 11.6561 32.3152L11.7761 32.4672L12.0681 32.8272L12.1801 32.9612C12.3131 33.1182 12.4501 33.2742 12.5871 33.4262C12.6011 33.4412 12.6071 33.4462 12.6111 33.4522C12.747 33.5996 12.885 33.7449 13.0251 33.8882L13.1581 34.0222L13.4881 34.3462L13.6231 34.4762C13.7717 34.6163 13.9227 34.7536 14.0761 34.8882L14.5721 35.3082L14.7421 35.4442L15.0851 35.7122L15.2681 35.8522L15.6531 36.1282L15.8331 36.2552C15.9561 36.3402 16.0811 36.4212 16.2071 36.5022L16.3691 36.6102C16.5622 36.7328 16.7572 36.8521 16.9541 36.9682L17.1161 37.0682L17.5561 37.3142C17.6361 37.3572 17.7181 37.3982 17.7991 37.4392L18.1131 37.6022L18.1861 37.6372L18.3161 37.6992L18.8141 37.9292L18.9191 37.9762C19.1114 38.06 19.3051 38.1403 19.5001 38.2172L19.6401 38.2732L20.1881 38.4762L20.2581 38.5002C20.4605 38.5699 20.6638 38.6366 20.8681 38.7002L21.0161 38.7442C21.2161 38.8072 21.4321 38.8842 21.6461 38.9222C35.3401 41.4192 39.3161 30.6922 39.3161 30.6922C35.9761 35.0442 30.0461 36.1922 24.4161 34.9142C24.2031 34.8662 23.9961 34.8002 23.7891 34.7382L23.6331 34.6912C23.4307 34.629 23.2293 34.5633 23.0291 34.4942L22.9461 34.4642C22.7679 34.401 22.5906 34.3353 22.4141 34.2672L22.2641 34.2072C22.0709 34.1312 21.8791 34.0511 21.6891 33.9672L21.5741 33.9172L21.0891 33.6912L20.9491 33.6242C20.8231 33.5642 20.6991 33.4972 20.5741 33.4242L20.3241 33.2942C20.1721 33.2142 20.0241 33.1282 19.8741 33.0422L19.7221 32.9572C19.5253 32.841 19.3303 32.7216 19.1371 32.5992C19.0841 32.5652 19.0321 32.5292 18.9791 32.4942L18.5631 32.2172C18.5171 32.1872 18.4631 32.1532 18.4291 32.1232L18.0351 31.8382L17.8601 31.7062L17.5051 31.4282L17.3471 31.3012L16.9051 30.9282C16.8891 30.9142 16.8724 30.9008 16.8551 30.8882L16.3901 30.4652L16.2601 30.3392L15.9281 30.0092L15.7981 29.8792C15.6581 29.7362 15.5221 29.5922 15.3981 29.4452C15.3911 29.4382 15.3841 29.4312 15.3781 29.4232C15.2366 29.2678 15.0979 29.1098 14.9621 28.9492L14.8621 28.8192L14.5621 28.4492L14.4621 28.3122L14.1161 27.8522C10.9781 23.6002 9.85615 17.7222 12.3501 12.9022M18.9301 12.2772C16.8821 15.2242 16.9931 19.1772 18.5901 22.2852C18.8578 22.809 19.1604 23.3142 19.4961 23.7972C19.8031 24.2372 20.1431 24.7602 20.5501 25.1132C20.6981 25.2762 20.8521 25.4332 21.0101 25.5902L21.1301 25.7102C21.283 25.8593 21.4394 26.0046 21.5991 26.1462C21.6061 26.1512 21.6111 26.1582 21.6191 26.1632C21.8011 26.3232 21.9851 26.4632 22.1721 26.6212L22.2961 26.7182C22.4838 26.8629 22.6752 27.0026 22.8701 27.1372L22.8871 27.1492C22.9731 27.2092 23.0611 27.2642 23.1491 27.3222C23.1911 27.3492 23.2311 27.3782 23.2731 27.4042C23.4129 27.4939 23.5546 27.5806 23.6981 27.6642L23.7581 27.6992L24.1341 27.8992C24.1781 27.9242 24.2341 27.9452 24.2681 27.9692L24.5311 28.1052C24.5441 28.1122 24.5581 28.1172 24.5711 28.1232C24.7515 28.213 24.9343 28.2981 25.1191 28.3782L25.2391 28.4282C25.3881 28.4914 25.5381 28.5521 25.6891 28.6102L25.8811 28.6802C26.0181 28.73 26.1558 28.7777 26.2941 28.8232L26.4811 28.8832C26.6781 28.9432 26.8811 29.0232 27.0781 29.0562C37.6511 30.8082 40.0921 22.6562 40.0921 22.6562C37.8921 25.8262 33.6321 27.3362 29.0841 26.1562C28.8831 26.1033 28.6834 26.0456 28.4851 25.9832C28.4251 25.9652 28.3651 25.9452 28.3051 25.9252L27.8851 25.7812L27.6851 25.7112C27.5342 25.653 27.3842 25.5923 27.2351 25.5292L27.1131 25.4792C26.9271 25.3983 26.7431 25.313 26.5611 25.2232L26.2841 25.0832L26.1241 25.0012C26.0065 24.9373 25.8898 24.8717 25.7741 24.8042L25.6901 24.7572C25.5471 24.6734 25.4057 24.5867 25.2661 24.4972C25.2231 24.4702 25.1811 24.4402 25.1381 24.4122L24.8631 24.2302C24.6695 24.096 24.4794 23.9566 24.2931 23.8122L24.1631 23.7122C22.1631 22.1402 20.5951 19.9922 19.8451 17.5582C19.0591 15.0332 19.2281 12.1982 20.5901 9.89821M26.3221 9.71521C25.1161 11.5002 24.9961 13.6982 25.8341 15.6602C26.7171 17.7432 28.5271 19.3762 30.6401 20.1602L30.9021 20.2602L31.0181 20.2962L31.3951 20.3962C37.2331 21.5242 38.8151 17.4002 39.2381 16.7932C37.8511 18.7902 35.5201 19.2692 32.6601 18.5752C32.4341 18.5202 32.1861 18.4382 31.9681 18.3612C31.6884 18.262 31.414 18.1482 31.1461 18.0202C30.6378 17.7758 30.1551 17.4813 29.7051 17.1412C27.1461 15.2002 25.5561 11.4862 27.2261 8.47021" fill="#0868AC"/>
</g>
<defs>
<clipPath id="clip0_2877_19777">
<rect width="32" height="32" fill="white" transform="translate(8 8)"/>
</clipPath>
</defs>
</svg>
