<svg width="100" height="100" viewBox="0 0 100 100" fill="none" xmlns="http://www.w3.org/2000/svg">
<rect x="1.5625" y="1.5625" width="96.875" height="96.875" rx="48.4375" fill="#D4D8DC"/>
<rect x="1.5625" y="1.5625" width="96.875" height="96.875" rx="48.4375" stroke="white" stroke-width="3.125"/>
<g clip-path="url(#clip0_2861_13907)">
<path d="M20.3438 32.4693H34.0184V36.4913H20.3438V32.4693ZM20.3438 25H34.0184V29.0219H20.3438V25ZM44.8776 39.8812H20.3438V43.9031H43.9583C46.5438 43.9031 52.5768 43.9606 54.8176 47.5803V45.3396C53.7259 41.7773 50.5083 39.8812 44.8776 39.8812ZM44.9351 47.3505H20.3438V51.3725H43.9583C49.7039 51.3725 53.3237 51.6023 54.8176 52.4067V50.6255C53.6684 47.8102 48.8421 47.3505 44.9351 47.3505ZM44.8776 66.3111H20.3438V62.2892H43.9583C46.5438 62.2892 52.5768 62.2317 54.8176 58.612V60.8528C53.7259 64.4151 50.5083 66.3111 44.8776 66.3111ZM44.9351 58.8418H20.3438V54.8198H43.9583C49.7039 54.8198 53.3237 54.59 54.8176 53.7856V55.5668C53.6684 58.3821 48.8421 58.8418 44.9351 58.8418ZM60.793 73.2633H78.8343V70.7927H61.3101C59.7588 70.7927 56.0816 70.7353 54.7601 68.6094V69.9883C55.3921 72.1142 57.3456 73.2633 60.793 73.2633ZM60.7356 68.7243H78.7769V66.2537H61.3101C57.8053 66.2537 55.622 66.1387 54.7601 65.6216V66.7133C55.4496 68.437 58.3799 68.7243 60.7356 68.7243Z" fill="#010101"/>
</g>
<defs>
<clipPath id="clip0_2861_13907">
<rect width="58.4906" height="48.4375" fill="white" transform="translate(20.3125 25)"/>
</clipPath>
</defs>
</svg>
