<svg width="64" height="64" viewBox="0 0 64 64" fill="none" xmlns="http://www.w3.org/2000/svg">
<rect x="1" y="1" width="62" height="62" rx="31" fill="#563D7C"/>
<rect x="1" y="1" width="62" height="62" rx="31" stroke="white" stroke-width="2"/>
<path d="M26.0153 29.1588V21.3624H32.8981C33.5538 21.3624 34.1857 21.4169 34.7944 21.5259C35.4031 21.6347 35.9416 21.8291 36.4099 22.1093C36.8779 22.3895 37.2526 22.7786 37.5336 23.2764C37.8144 23.7745 37.9551 24.4126 37.9551 25.1904C37.9551 26.591 37.5336 27.6027 36.6907 28.225C35.848 28.8476 34.7711 29.1588 33.4599 29.1588H26.0153ZM18.6641 15.6667V49.0001H34.8647C36.3631 49.0001 37.8224 48.8134 39.2427 48.4399C40.663 48.0663 41.9272 47.4906 43.0354 46.7126C44.1433 45.9345 45.0253 44.9306 45.6807 43.7014C46.3364 42.4719 46.6641 41.0169 46.6641 39.3362C46.6641 37.2508 46.1568 35.4691 45.1424 33.9908C44.1278 32.5123 42.5904 31.4775 40.5301 30.8861C42.0285 30.1704 43.1602 29.2521 43.9251 28.1317C44.6897 27.0113 45.0721 25.6108 45.0721 23.93C45.0721 22.3738 44.8145 21.0667 44.2995 20.0085C43.7844 18.9504 43.0586 18.1022 42.1221 17.4642C41.1858 16.8261 40.0621 16.367 38.751 16.087C37.44 15.8067 35.9884 15.6667 34.3965 15.6667H18.6641ZM26.0153 43.3044V34.1541H34.0218C35.6138 34.1541 36.8937 34.5196 37.8615 35.2513C38.829 35.9827 39.313 37.2042 39.313 38.916C39.313 39.7876 39.1646 40.5033 38.8681 41.0635C38.5715 41.6237 38.1736 42.0674 37.674 42.3941C37.1747 42.7209 36.5971 42.9543 35.9416 43.0945C35.2859 43.2343 34.5994 43.3044 33.8814 43.3044H26.0153Z" fill="white"/>
</svg>
