<svg width="100" height="100" viewBox="0 0 100 100" fill="none" xmlns="http://www.w3.org/2000/svg">
<rect x="1.5625" y="1.5625" width="96.875" height="96.875" rx="48.4375" fill="#B7DCFF"/>
<rect x="1.5625" y="1.5625" width="96.875" height="96.875" rx="48.4375" stroke="white" stroke-width="3.125"/>
<path fill-rule="evenodd" clip-rule="evenodd" d="M48.2859 17.6344C49.3469 17.039 50.6531 17.039 51.7125 17.6344C56.9547 20.5765 72.7297 29.4328 77.9734 32.375C79.0344 32.9687 79.6875 34.0687 79.6875 35.2594C79.6875 41.1437 79.6875 58.8547 79.6875 64.739C79.6875 65.9297 79.0344 67.0297 77.9734 67.625C72.7313 70.5672 56.9562 79.4234 51.7125 82.3656C50.6516 82.9609 49.3453 82.9609 48.2859 82.3656C43.0437 79.4234 27.2688 70.5672 22.025 67.625C20.9656 67.0297 20.3125 65.9312 20.3125 64.7406C20.3125 58.8562 20.3125 41.1453 20.3125 35.2609C20.3125 34.0703 20.9656 32.9703 22.0266 32.375C27.2672 29.4328 43.0453 20.5765 48.2859 17.6344Z" fill="#00549D"/>
<path fill-rule="evenodd" clip-rule="evenodd" d="M20.7875 66.2563C20.3719 65.7001 20.3125 65.172 20.3125 64.461C20.3125 58.611 20.3125 41.0016 20.3125 35.1501C20.3125 33.9657 20.9641 32.8719 22.0219 32.2813C27.2453 29.3563 42.9672 20.5516 48.1906 17.6251C49.2484 17.0329 50.6813 17.0454 51.7391 17.6376C56.9625 20.5626 72.6312 29.2923 77.8547 32.2173C78.2766 32.4548 78.5984 32.7407 78.8859 33.1173L20.7875 66.2563Z" fill="#0086D4"/>
<path fill-rule="evenodd" clip-rule="evenodd" d="M50 28.125C62.0734 28.125 71.875 37.9266 71.875 50C71.875 62.0734 62.0734 71.875 50 71.875C37.9266 71.875 28.125 62.0734 28.125 50C28.125 37.9266 37.9266 28.125 50 28.125ZM50 39.0625C56.0359 39.0625 60.9375 43.9625 60.9375 50C60.9375 56.0359 56.0359 60.9375 50 60.9375C43.9641 60.9375 39.0625 56.0359 39.0625 50C39.0625 43.9625 43.9625 39.0625 50 39.0625Z" fill="white"/>
<path fill-rule="evenodd" clip-rule="evenodd" d="M78.8859 33.1328C79.6922 33.8875 79.6766 35.025 79.6766 35.9203C79.6766 41.85 79.6266 58.7156 79.6906 64.6453C79.6969 65.2641 79.4922 65.9156 79.1859 66.4062L49.3672 50L78.8859 33.1328Z" fill="#0075C0"/>
<path fill-rule="evenodd" clip-rule="evenodd" d="M60.9375 45.3125H64.0625V54.6875H60.9375V45.3125ZM71.875 45.3125H75V54.6875H71.875V45.3125Z" fill="white"/>
<path fill-rule="evenodd" clip-rule="evenodd" d="M57.8125 48.4375H67.1875V51.5625H57.8125V48.4375ZM68.75 48.4375H78.125V51.5625H68.75V48.4375Z" fill="white"/>
</svg>
