<svg width="100" height="100" viewBox="0 0 100 100" fill="none" xmlns="http://www.w3.org/2000/svg">
<rect x="1.5625" y="1.5625" width="96.875" height="96.875" rx="48.4375" fill="#F06292"/>
<rect x="1.5625" y="1.5625" width="96.875" height="96.875" rx="48.4375" stroke="white" stroke-width="3.125"/>
<path fill-rule="evenodd" clip-rule="evenodd" d="M81.115 19.6854C78.8871 10.3843 64.4036 7.32769 50.6963 12.5121C42.5389 15.5976 33.7063 20.441 27.3555 26.7641C19.8044 34.2837 18.6017 40.8272 19.0971 43.5611C20.8468 53.2085 33.2652 59.5159 38.3691 64.1966V64.2255C36.8633 65.0152 25.8472 70.9501 23.2694 77.0187C20.5486 83.4206 23.7031 88.0147 25.7905 88.6339C32.2597 90.5492 38.8965 87.1043 42.465 81.4397C45.9079 75.9719 45.622 68.9141 44.1261 65.4009C46.1888 64.8211 48.5966 64.5613 51.6525 64.9418C60.2805 66.0149 61.9736 71.7503 61.6483 74.151C61.3255 76.5517 59.5141 77.8714 58.9103 78.2702C58.304 78.669 58.1217 78.8081 58.171 79.102C58.2449 79.5322 58.5234 79.5165 59.0409 79.4247C59.7507 79.2961 63.5706 77.4726 63.7357 73.0412C63.9427 67.4159 58.8807 61.1243 49.915 61.2869C46.2233 61.3552 43.9018 61.7277 42.2235 62.3942C42.1003 62.2446 41.9721 62.0951 41.844 61.9455C36.3014 55.6486 26.0542 51.1962 26.488 42.7321C26.6457 39.6544 27.6512 31.5524 46.1765 21.724C61.3526 13.6718 73.5023 15.8889 75.602 20.7978C78.6013 27.8136 69.1082 40.8509 53.348 42.7321C47.3422 43.4483 44.1803 40.9715 43.3941 40.048C42.5661 39.0772 42.4428 39.0326 42.1348 39.2163C41.632 39.5128 41.9499 40.3707 42.1348 40.8823C42.6055 42.1863 44.5376 44.4978 47.8277 45.6496C50.7234 46.6624 57.7742 47.216 66.3012 43.7055C75.8485 39.7699 83.3059 28.829 81.115 19.6854ZM40.4885 67.0801C41.2032 69.898 41.1243 72.5269 40.3875 74.9066C40.3062 75.1716 40.215 75.4314 40.1164 75.6911C40.0178 75.9482 39.9118 76.2054 39.7985 76.4573C39.2292 77.7166 38.4627 78.8947 37.5263 79.9835C34.6675 83.3025 30.6751 84.5566 28.9647 83.4993C27.1164 82.358 28.043 77.6799 31.3553 73.949C34.9189 69.9373 40.0474 67.3582 40.0474 67.3582L40.04 67.3425C40.1879 67.2559 40.3382 67.1693 40.4885 67.0801Z" fill="white"/>
</svg>
