<svg width="64" height="64" viewBox="0 0 64 64" fill="none" xmlns="http://www.w3.org/2000/svg">
<rect x="1" y="1" width="62" height="62" rx="31" fill="#FFCA28"/>
<rect x="1" y="1" width="62" height="62" rx="31" stroke="white" stroke-width="2"/>
<path d="M32.0081 11.6668C25.0491 11.6625 18.8774 15.0246 14.9777 20.1916H14.9371V20.247C12.2683 23.8075 10.6662 28.2108 10.6641 32.9915C10.6577 44.7526 20.2235 54.327 31.9867 54.3334C43.7499 54.3398 53.3243 44.7718 53.3307 33.0107C53.3371 21.2497 43.7713 11.6732 32.0081 11.6668ZM14.9307 32.9915C14.9307 31.6774 15.095 30.4017 15.3787 29.1707L19.1974 32.9937L25.5953 39.3958V41.5291C25.5931 43.8865 27.5025 45.7958 29.8598 45.7979L29.8577 49.9174C21.4523 48.8593 14.9265 41.6785 14.9307 32.9915ZM44.5691 44.503C44.0166 42.7878 42.4273 41.5377 40.5286 41.5377H38.3953L38.3974 35.1377C38.3974 33.9601 37.4417 33.0044 36.2641 33.0044L25.5974 33.0001L25.5995 28.7334H27.7329C28.9105 28.7334 29.8662 27.7777 29.8662 26.6001L29.8683 22.3334L34.135 22.3355C36.4923 22.3377 38.4017 20.4284 38.4038 18.071V17.1942C44.6481 19.735 49.0662 25.8619 49.0641 33.0086C49.0619 37.4395 47.3489 41.4673 44.5691 44.503Z" fill="white"/>
</svg>
