<svg width="24" height="24" viewBox="0 0 24 24" fill="none" xmlns="http://www.w3.org/2000/svg">
<path d="M22 4.84969V16.7397C22 17.7097 21.21 18.5997 20.24 18.7197L19.93 18.7597C18.29 18.9797 15.98 19.6597 14.12 20.4397C13.47 20.7097 12.75 20.2197 12.75 19.5097V5.59969C12.75 5.22969 12.96 4.88969 13.29 4.70969C15.12 3.71969 17.89 2.83969 19.77 2.67969H19.83C21.03 2.67969 22 3.64969 22 4.84969Z" fill="#2E2E2E"/>
<path d="M10.7122 4.70969C8.88219 3.71969 6.11219 2.83969 4.23219 2.67969H4.16219C2.96219 2.67969 1.99219 3.64969 1.99219 4.84969V16.7397C1.99219 17.7097 2.78219 18.5997 3.75219 18.7197L4.06219 18.7597C5.70219 18.9797 8.01219 19.6597 9.87219 20.4397C10.5222 20.7097 11.2422 20.2197 11.2422 19.5097V5.59969C11.2422 5.21969 11.0422 4.88969 10.7122 4.70969ZM5.00219 7.73969H7.25219C7.66219 7.73969 8.00219 8.07969 8.00219 8.48969C8.00219 8.90969 7.66219 9.23969 7.25219 9.23969H5.00219C4.59219 9.23969 4.25219 8.90969 4.25219 8.48969C4.25219 8.07969 4.59219 7.73969 5.00219 7.73969ZM8.00219 12.2397H5.00219C4.59219 12.2397 4.25219 11.9097 4.25219 11.4897C4.25219 11.0797 4.59219 10.7397 5.00219 10.7397H8.00219C8.41219 10.7397 8.75219 11.0797 8.75219 11.4897C8.75219 11.9097 8.41219 12.2397 8.00219 12.2397Z" fill="#2E2E2E"/>
</svg>
