<svg width="48" height="48" viewBox="0 0 48 48" fill="none" xmlns="http://www.w3.org/2000/svg">
<g id="Java logo" clip-path="url(#clip0_25_1514)">
<path id="Vector" d="M17.4339 37.1097C17.4339 37.1097 15.5889 38.2317 18.7164 38.5527C22.4814 39.0327 24.4869 38.9532 28.6539 38.1522C29.4913 38.665 30.3771 39.0946 31.2984 39.4347C21.9234 43.4427 10.0599 39.1947 17.4339 37.1097ZM16.2339 31.9002C16.2339 31.9002 14.2299 33.4227 17.3559 33.7452C21.4434 34.1457 24.6489 34.2252 30.1809 33.1047C30.7189 33.6503 31.3776 34.0619 32.1039 34.3062C20.8029 37.6722 8.13986 34.6257 16.2339 31.9002ZM38.3544 41.0352C38.3544 41.0352 39.7164 42.1572 36.8319 43.0392C31.4619 44.6442 14.3109 45.1242 9.50186 43.0392C7.81886 42.3192 11.0244 41.2767 12.0519 41.1162C13.0944 40.8762 13.6569 40.8762 13.6569 40.8762C11.8119 39.5937 1.39436 43.5207 8.36786 44.6412C27.5229 47.7672 43.3119 43.2792 38.3424 41.0352H38.3544ZM18.3009 26.4492C18.3009 26.4492 9.56486 28.5342 15.1749 29.2542C17.5794 29.5752 22.3074 29.4942 26.7159 29.1747C30.3219 28.8537 33.9309 28.2147 33.9309 28.2147C33.9309 28.2147 32.6484 28.7757 31.7664 29.3367C22.8714 31.6617 5.79836 30.6192 10.6884 28.2147C14.8554 26.2107 18.3024 26.4522 18.3024 26.4522L18.3009 26.4492ZM33.9309 35.1852C42.9069 30.5352 38.7399 26.0502 35.8539 26.6097C35.1339 26.7702 34.8114 26.9307 34.8114 26.9307C34.8114 26.9307 35.0514 26.4507 35.6124 26.2902C41.3034 24.2862 45.7914 32.3007 33.7674 35.4252C33.7674 35.4252 33.8469 35.3457 33.9279 35.1852H33.9309ZM19.1859 47.8482C27.8409 48.4092 41.0664 47.5272 41.3859 43.4382C41.3859 43.4382 40.7454 45.0432 34.2534 46.2432C26.8794 47.6052 17.7429 47.4432 12.3729 46.5642C12.3729 46.5642 13.4949 47.5257 19.1859 47.8482Z" fill="#4E7896"/>
<path id="Vector_2" d="M28.4912 0.00195312C28.4912 0.00195312 33.4607 5.05095 23.7632 12.665C15.9887 18.836 22.0007 22.3625 23.7632 26.3705C19.1942 22.283 15.9092 18.6755 18.1532 15.311C21.4382 10.34 30.4952 7.95045 28.4912 0.00195312ZM25.9412 23.0045C28.2662 25.649 25.3007 28.0535 25.3007 28.0535C25.3007 28.0535 31.2317 25.0085 28.5062 21.2405C26.0222 17.6345 24.0962 15.8705 34.5167 9.85995C34.5167 9.85995 18.0872 13.9475 25.9412 23.0045Z" fill="#F58219"/>
</g>
<defs>
<clipPath id="clip0_25_1514">
<rect width="48" height="48" fill="white"/>
</clipPath>
</defs>
</svg>
