<svg width="42" height="42" viewBox="0 0 42 42" fill="none" xmlns="http://www.w3.org/2000/svg">
<g clip-path="url(#clip0_2630_5026)">
<path d="M30.5271 24.1437C32.2503 22.0302 33.3577 19.4906 33.73 16.7989C34.462 11.4471 32.2549 7.21096 27.5155 4.87096C26.0523 4.14847 24.4588 3.76005 22.9522 3.42434C19.0935 2.56444 15.5603 3.23077 12.4502 5.4041C9.91934 7.17293 8.5288 9.33347 8.19923 12.0095C7.95075 14.048 8.08538 16.1145 8.59631 18.1044C9.62745 22.1667 11.4724 25.3595 14.2363 27.8647C14.3052 27.9272 14.3749 27.9894 14.4448 28.0514C14.7525 28.3088 15.0361 28.5933 15.292 28.9014C15.5263 29.2034 15.7962 29.5933 15.8027 29.9291C15.8265 31.1894 15.7524 32.4316 15.6688 33.5852C15.6169 34.2995 15.5339 35.025 15.4535 35.7269C15.4043 36.1557 15.3553 36.5846 15.3126 37.0147C15.2174 37.9696 15.5462 38.4472 16.4471 38.6635C16.9816 38.7951 17.53 38.8633 18.0807 38.8669H18.1314C19.9561 38.8516 21.8098 38.8102 23.6036 38.7701L24.8001 38.7436C25.9616 38.7184 26.4296 38.2994 26.5269 37.1978C26.6974 35.268 26.7793 33.7862 26.7918 32.3931L26.7936 32.2441C26.8036 31.4176 26.8149 30.4852 26.0877 29.6881L27.4408 27.9982C28.4722 26.7093 29.501 25.4246 30.5271 24.1437ZM24.8214 29.4529L22.7953 29.3012C22.7925 29.2849 22.7921 29.2684 22.7939 29.252C23.0924 28.1145 23.3941 26.9779 23.6987 25.8422C24.3763 23.3019 25.0768 20.6751 25.713 18.0778C26.2039 16.074 26.2195 14.2982 25.7604 12.6494C25.5345 11.8381 25.1055 11.2389 24.5195 10.9165C24.2372 10.7699 23.928 10.6815 23.6104 10.6567C23.2927 10.6318 22.9732 10.671 22.6713 10.7719C22.4306 10.8512 22.1988 10.9548 21.9795 11.081L21.8894 11.1286C21.7476 11.2034 21.616 11.2896 21.4767 11.3799L21.4 11.4297C21.3617 11.382 21.3243 11.3344 21.2871 11.2871C21.1509 11.1077 21.0055 10.9352 20.8515 10.7706C20.0326 9.92311 18.8543 9.84059 17.9188 10.5657C17.2856 11.0737 16.8057 11.7445 16.5316 12.5046C15.5669 14.9565 15.4953 17.5131 16.3187 20.103C16.7497 21.4584 17.2061 22.8302 17.6483 24.1567C17.8149 24.6572 17.9812 25.1578 18.147 25.6584C18.5078 26.7819 18.7189 27.9471 18.7749 29.1247H17.2293C17.1432 28.0195 16.402 27.2701 15.6854 26.5444C15.5525 26.4103 15.4195 26.2757 15.2906 26.1387C12.331 23.0018 10.7069 19.6421 10.3258 15.8676C10.1944 14.5678 10.0972 13.1838 10.2735 11.8697C10.5394 9.88677 11.6814 8.22584 13.7647 6.79169C16.302 5.04496 19.1238 4.48081 22.15 5.11491C23.7455 5.44901 25.2956 5.80886 26.7218 6.53223C30.4139 8.4054 32.1023 11.6652 31.6039 15.9593C31.2603 18.9202 29.8843 21.5309 27.1424 24.4246C26.4225 25.1849 25.6184 26.1175 25.1135 27.2713C24.8513 27.8705 24.596 28.5777 24.8214 29.4529ZM24.9136 33.1242L24.8291 34.4168H17.1893V32.8949L24.9136 33.1242ZM24.6771 36.0698L24.6329 37.063C22.3472 37.1634 19.7122 37.2482 17.1107 37.0516C17.1055 37.0163 17.1002 36.9831 17.096 36.9516C17.0772 36.8588 17.0676 36.7646 17.0674 36.6701C17.0776 36.4497 17.0992 36.2282 17.1218 35.994C17.1271 35.9398 17.1324 35.8849 17.1376 35.8295L24.6771 36.0698ZM17.0567 30.4122L17.2746 30.4185C19.9032 30.4949 22.3883 30.5672 24.9294 30.8294L24.9663 31.4515C22.3636 31.5943 19.7547 31.5882 17.1527 31.4328L17.0567 30.4122ZM19.0236 23.7477C18.9279 23.4463 18.8316 23.145 18.7404 22.8428C18.2441 21.2054 17.7668 19.599 17.3833 17.9486C17.0268 16.4155 17.2356 14.793 18.038 12.8424C18.2152 12.4519 18.4685 12.1 18.7834 11.8068C18.8418 11.7377 18.9143 11.6815 18.996 11.6419C19.0778 11.6023 19.167 11.5803 19.2579 11.5772C19.4302 11.5851 19.6087 11.6974 19.7885 11.9107C20.2522 12.4611 20.2622 12.6002 19.8842 13.2633C19.1151 14.6126 18.8019 15.9087 18.9267 17.2257C18.9559 17.64 19.0536 18.0465 19.2157 18.4295C19.2808 18.6223 19.3982 18.7939 19.5549 18.9253C19.7116 19.0567 19.9017 19.143 20.1045 19.1749C20.3073 19.2068 20.5151 19.183 20.7051 19.106C20.8952 19.029 21.0603 18.9019 21.1825 18.7384C21.4565 18.4216 21.6712 18.0588 21.8167 17.6673C22.3673 16.279 22.4735 14.7565 22.1207 13.3064C22.0095 12.8314 22.3486 12.4324 23.0515 12.2115C23.3369 12.1218 23.5612 12.1217 23.7176 12.2105C23.7987 12.2668 23.8671 12.3391 23.9184 12.423C23.9698 12.5068 24.0029 12.6004 24.0156 12.6976C24.1928 13.471 24.4122 14.4335 24.3016 15.2981C24.1095 16.7933 23.7826 18.3002 23.466 19.7575C23.4069 20.0316 23.348 20.3056 23.2889 20.5794C23.0992 21.4655 22.892 22.364 22.6914 23.2328C22.4224 24.3998 22.1448 25.6065 21.904 26.8009C21.8023 27.3869 21.7455 27.9794 21.7343 28.5739C21.7234 28.8122 21.7123 29.0568 21.6957 29.3073L19.8949 29.1976C20.14 27.26 19.573 25.4751 19.0241 23.7477H19.0236ZM20.5498 16.2046L20.6541 15.5688C20.6537 15.7849 20.6187 15.9995 20.5503 16.2046H20.5498Z" fill="black"/>
</g>
<defs>
<clipPath id="clip0_2630_5026">
<rect width="26" height="36" fill="white" transform="translate(8 3)"/>
</clipPath>
</defs>
</svg>
