<svg width="24" height="24" viewBox="0 0 24 24" fill="none" xmlns="http://www.w3.org/2000/svg">
<path d="M17.7719 5C18.4502 5 19 5.54983 19 6.22807V15.0702C19 15.7484 18.4502 16.2982 17.7719 16.2982C17.0937 16.2982 16.5439 15.7484 16.5439 15.0702L16.543 9.193L7.09645 18.6403C6.64883 19.0879 5.94164 19.1178 5.45941 18.7298L5.35969 18.6403C4.8801 18.1607 4.8801 17.3831 5.35969 16.9036L14.806 7.456L8.92982 7.45614C8.29397 7.45614 7.77098 6.9729 7.70809 6.35363L7.70175 6.22807C7.70175 5.54983 8.25158 5 8.92982 5H17.7719Z" fill="#5E53D8"/>
</svg>
