<svg width="98" height="101" viewBox="0 0 98 101" fill="none" xmlns="http://www.w3.org/2000/svg">
<g id="Frame 1321318165">
<g id="Ellipse 2305" filter="url(#filter0_d_1_3621)">
<circle cx="49" cy="49" r="47.4923" stroke="white" stroke-width="3.01538" shape-rendering="crispEdges"/>
</g>
<g id="Frame 1321318160">
<rect x="19.5996" width="55.0143" height="12.9107" rx="6.45533" fill="white"/>
<g id="&#208;&#146;&#208;&#149;&#208;&#145;-&#208;&#161;&#208;&#162;&#208;&#163;&#208;&#148;&#208;&#152;&#208;&#175;">
<path id="Vector" d="M71.5984 8.57285H70.6026V3.92021H69.6924C69.4461 3.92021 69.2436 3.95679 69.0847 4.02996C68.9277 4.10135 68.8108 4.20665 68.734 4.34585C68.6591 4.48327 68.6216 4.64924 68.6216 4.84377C68.6216 5.0383 68.6591 5.20249 68.734 5.33634C68.809 5.46841 68.925 5.56924 69.0821 5.63885C69.2409 5.70666 69.4426 5.74057 69.6871 5.74057H71.0202V6.56509H69.5532C69.132 6.56509 68.7769 6.49549 68.4878 6.35628C68.1986 6.2153 67.9791 6.0163 67.8292 5.75931C67.6811 5.50053 67.607 5.19535 67.607 4.84377C67.607 4.49398 67.6802 4.18791 67.8265 3.92556C67.9747 3.66143 68.1924 3.45619 68.4797 3.30985C68.7671 3.1635 69.1204 3.09033 69.5398 3.09033H71.5984V8.57285ZM68.7635 6.08858H69.8477L68.5145 8.57285H67.4062L68.7635 6.08858Z" fill="black"/>
<path id="Vector_2" d="M61.9609 3.09033H62.9461V6.82744H62.9969L65.5749 3.09033H66.4663V8.57285H65.4732V4.83842H65.4277L62.8417 8.57285H61.9609V3.09033Z" fill="black"/>
<path id="Vector_3" d="M55.7554 9.89529V7.76171H56.1221C56.2453 7.66356 56.3604 7.52525 56.4675 7.34678C56.5745 7.16831 56.6656 6.92381 56.7405 6.61328C56.8155 6.30274 56.8672 5.90119 56.8958 5.40862L57.0403 3.09033H60.5445V7.76171H61.1549V9.88994H60.2019V8.57285H56.7084V9.89529H55.7554ZM57.2786 7.76171H59.5915V3.92288H57.9345L57.8488 5.40862C57.8256 5.78162 57.7881 6.11535 57.7364 6.40982C57.6846 6.7043 57.6195 6.96397 57.5409 7.18883C57.4624 7.41192 57.375 7.60288 57.2786 7.76171Z" fill="black"/>
<path id="Vector_4" d="M51.6591 8.64781V7.81258H51.9723C52.1133 7.81258 52.2293 7.79206 52.3203 7.75101C52.4114 7.70996 52.4845 7.65107 52.5398 7.57432C52.597 7.49758 52.6442 7.40835 52.6817 7.30662L52.754 7.12191L50.7944 3.09033H51.8331L53.1984 6.02434L54.379 3.09033H55.4016L53.5116 7.56094C53.4242 7.75368 53.3233 7.93304 53.2091 8.09902C53.0949 8.26321 52.9459 8.39617 52.762 8.49789C52.58 8.59784 52.3426 8.64781 52.05 8.64781H51.6591Z" fill="black"/>
<path id="Vector_5" d="M45.9541 3.92288V3.09033H50.3283V3.92288H48.6338V8.57285H47.6486V3.92288H45.9541Z" fill="black"/>
<path id="Vector_6" d="M45.2861 4.9404H44.2849C44.2563 4.77621 44.2037 4.63075 44.127 4.50404C44.0502 4.37555 43.9547 4.26668 43.8405 4.17745C43.7263 4.08821 43.596 4.02129 43.4497 3.97667C43.3051 3.93027 43.149 3.90707 42.9812 3.90707C42.6832 3.90707 42.419 3.98203 42.1888 4.13194C41.9586 4.28007 41.7783 4.4978 41.648 4.78513C41.5178 5.07068 41.4526 5.41958 41.4526 5.83184C41.4526 6.25124 41.5178 6.6046 41.648 6.89194C41.7801 7.17748 41.9604 7.39343 42.1888 7.53977C42.419 7.68433 42.6823 7.75661 42.9785 7.75661C43.1427 7.75661 43.2962 7.73519 43.439 7.69236C43.5835 7.64775 43.7129 7.5826 43.8271 7.49694C43.9431 7.41128 44.0404 7.30598 44.1189 7.18105C44.1992 7.05613 44.2546 6.91335 44.2849 6.75273L45.2861 6.75809C45.2486 7.01865 45.1674 7.26315 45.0425 7.49159C44.9194 7.72002 44.7578 7.92169 44.558 8.09659C44.3581 8.2697 44.1243 8.40534 43.8566 8.5035C43.5889 8.59987 43.2917 8.64806 42.9651 8.64806C42.4833 8.64806 42.0532 8.53651 41.6748 8.31343C41.2965 8.09034 40.9984 7.76821 40.7807 7.34703C40.563 6.92584 40.4541 6.42078 40.4541 5.83184C40.4541 5.24111 40.5639 4.73605 40.7834 4.31665C41.0029 3.89547 41.3018 3.57334 41.6802 3.35025C42.0585 3.12717 42.4868 3.01562 42.9651 3.01562C43.2703 3.01562 43.5541 3.05846 43.8164 3.14412C44.0788 3.22979 44.3126 3.35561 44.5178 3.52158C44.723 3.68577 44.8917 3.88744 45.0238 4.12658C45.1576 4.36395 45.2451 4.63522 45.2861 4.9404Z" fill="black"/>
<path id="Vector_7" d="M39.5297 5.43311V6.23085H37.0615V5.43311H39.5297Z" fill="black"/>
<path id="Vector_8" d="M32.1494 8.57285V3.09033H35.675V3.92288H33.1426V5.20785H34.2C34.6194 5.20785 34.979 5.27656 35.2788 5.41398C35.5804 5.54961 35.8116 5.74146 35.9722 5.98953C36.1328 6.2376 36.2131 6.5294 36.2131 6.86492C36.2131 7.20222 36.1328 7.49937 35.9722 7.75636C35.8116 8.01157 35.5804 8.21145 35.2788 8.35601C34.979 8.50057 34.6194 8.57285 34.2 8.57285H32.1494ZM33.1426 7.75904H34.2C34.4213 7.75904 34.6087 7.7171 34.7622 7.63322C34.9157 7.54934 35.0317 7.43869 35.1102 7.30127C35.1905 7.16385 35.2307 7.01483 35.2307 6.85421C35.2307 6.6222 35.1414 6.42499 34.963 6.26259C34.7863 6.0984 34.532 6.0163 34.2 6.0163H33.1426V7.75904Z" fill="black"/>
<path id="Vector_9" d="M27.5679 8.57285V3.09033H31.1336V3.92288H28.561V5.4113H30.9489V6.24385H28.561V7.7403H31.1551V8.57285H27.5679Z" fill="black"/>
<path id="Vector_10" d="M22.6152 8.57285V3.09033H24.714C25.1102 3.09033 25.4395 3.1528 25.7018 3.27772C25.966 3.40087 26.1632 3.56952 26.2934 3.78368C26.4255 3.99784 26.4915 4.24055 26.4915 4.51182C26.4915 4.73491 26.4487 4.92587 26.363 5.0847C26.2774 5.24176 26.1623 5.36936 26.0177 5.46752C25.8732 5.56567 25.7116 5.63617 25.5332 5.679V5.73254C25.7277 5.74325 25.9142 5.80304 26.0927 5.9119C26.2729 6.01898 26.4202 6.17068 26.5344 6.36699C26.6486 6.56331 26.7057 6.80067 26.7057 7.07908C26.7057 7.36284 26.637 7.61805 26.4996 7.8447C26.3622 8.06957 26.1551 8.24715 25.8785 8.37743C25.6019 8.50771 25.2539 8.57285 24.8345 8.57285H22.6152ZM23.6084 7.74298H24.6765C25.037 7.74298 25.2967 7.67427 25.4555 7.53685C25.6162 7.39764 25.6965 7.21917 25.6965 7.00144C25.6965 6.83904 25.6563 6.6927 25.576 6.56241C25.4957 6.43035 25.3815 6.32684 25.2334 6.25188C25.0852 6.17514 24.9085 6.13677 24.7033 6.13677H23.6084V7.74298ZM23.6084 5.42201H24.5909C24.7622 5.42201 24.9166 5.39078 25.054 5.32831C25.1914 5.26406 25.2994 5.17394 25.3779 5.05793C25.4582 4.94015 25.4984 4.80094 25.4984 4.64032C25.4984 4.42794 25.4234 4.25305 25.2735 4.11563C25.1254 3.97821 24.905 3.9095 24.6123 3.9095H23.6084V5.42201Z" fill="black"/>
</g>
</g>
<g id="Frame 1321318161">
<rect x="4.52441" y="69.354" width="87.3222" height="16.0107" rx="7.53846" fill="white"/>
<g id="&#208;&#159;&#208;&#160;&#208;&#158;&#208;&#164;&#208;&#149;&#208;&#161;&#208;&#161;&#208;&#152;&#208;&#158;&#208;&#157;&#208;&#144;&#208;&#155;">
<path id="Vector_11" d="M81.6406 80.5717V79.5823L81.8269 79.5726C82.0797 79.5576 82.2799 79.4666 82.4277 79.2996C82.5776 79.1325 82.6879 78.8638 82.7585 78.4933C82.8314 78.1228 82.8795 77.6259 82.9031 77.0027L83.0123 73.9927H87.3234V80.5717H86.1573V74.9725H84.1238L84.021 77.3721C83.991 78.0917 83.9118 78.6882 83.7833 79.1614C83.6569 79.6347 83.4492 79.9881 83.1601 80.2215C82.8731 80.455 82.4737 80.5717 81.9619 80.5717H81.6406Z" fill="black"/>
<path id="Vector_12" d="M76.3668 80.5717H75.0947L77.4109 73.9927H78.8822L81.2015 80.5717H79.9294L78.1722 75.3419H78.1208L76.3668 80.5717ZM76.4086 77.9921H79.878V78.9494H76.4086V77.9921Z" fill="black"/>
<path id="Vector_13" d="M68.7896 80.5717V73.9927H69.9814V76.7778H73.0299V73.9927H74.225V80.5717H73.0299V77.7769H69.9814V80.5717H68.7896Z" fill="black"/>
<path id="Vector_14" d="M67.6649 77.2823C67.6649 77.9912 67.5321 78.5983 67.2666 79.1037C67.0031 79.607 66.6434 79.9925 66.1872 80.2602C65.7332 80.5279 65.2181 80.6617 64.642 80.6617C64.0659 80.6617 63.5498 80.5279 63.0936 80.2602C62.6396 79.9904 62.2798 79.6038 62.0143 79.1005C61.7508 78.5951 61.6191 77.989 61.6191 77.2823C61.6191 76.5734 61.7508 75.9673 62.0143 75.4641C62.2798 74.9586 62.6396 74.5721 63.0936 74.3044C63.5498 74.0367 64.0659 73.9028 64.642 73.9028C65.2181 73.9028 65.7332 74.0367 66.1872 74.3044C66.6434 74.5721 67.0031 74.9586 67.2666 75.4641C67.5321 75.9673 67.6649 76.5734 67.6649 77.2823ZM66.4667 77.2823C66.4667 76.7833 66.3885 76.3625 66.2322 76.0198C66.078 75.675 65.8638 75.4148 65.5897 75.2392C65.3156 75.0614 64.9997 74.9726 64.642 74.9726C64.2844 74.9726 63.9685 75.0614 63.6944 75.2392C63.4202 75.4148 63.205 75.675 63.0487 76.0198C62.8945 76.3625 62.8174 76.7833 62.8174 77.2823C62.8174 77.7813 62.8945 78.2032 63.0487 78.548C63.205 78.8906 63.4202 79.1508 63.6944 79.3286C63.9685 79.5042 64.2844 79.592 64.642 79.592C64.9997 79.592 65.3156 79.5042 65.5897 79.3286C65.8638 79.1508 66.078 78.8906 66.2322 78.548C66.3885 78.2032 66.4667 77.7813 66.4667 77.2823Z" fill="black"/>
<path id="Vector_15" d="M55.0776 73.9927H56.2598V78.4772H56.3208L59.4144 73.9927H60.4841V80.5717H59.2923V76.0904H59.2377L56.1345 80.5717H55.0776V73.9927Z" fill="black"/>
<path id="Vector_16" d="M53.9913 76.2126H52.7898C52.7556 76.0155 52.6924 75.841 52.6003 75.6889C52.5082 75.5347 52.3936 75.4041 52.2566 75.297C52.1195 75.1899 51.9632 75.1096 51.7876 75.0561C51.6141 75.0004 51.4267 74.9726 51.2254 74.9726C50.8677 74.9726 50.5508 75.0625 50.2745 75.2424C49.9982 75.4202 49.7819 75.6814 49.6256 76.0262C49.4693 76.3689 49.3911 76.7876 49.3911 77.2823C49.3911 77.7856 49.4693 78.2096 49.6256 78.5544C49.7841 78.8971 50.0004 79.1562 50.2745 79.3318C50.5508 79.5053 50.8667 79.592 51.2222 79.592C51.4192 79.592 51.6034 79.5663 51.7747 79.5149C51.9482 79.4614 52.1034 79.3832 52.2405 79.2804C52.3797 79.1776 52.4964 79.0513 52.5907 78.9013C52.687 78.7514 52.7534 78.5801 52.7898 78.3874L53.9913 78.3938C53.9463 78.7065 53.8489 78.9999 53.6989 79.274C53.5512 79.5481 53.3574 79.7901 53.1175 80C52.8776 80.2077 52.5971 80.3705 52.2758 80.4883C51.9546 80.6039 51.598 80.6617 51.2061 80.6617C50.6279 80.6617 50.1118 80.5279 49.6577 80.2602C49.2037 79.9925 48.8461 79.6059 48.5848 79.1005C48.3235 78.5951 48.1929 77.989 48.1929 77.2823C48.1929 76.5734 48.3246 75.9673 48.588 75.4641C48.8514 74.9586 49.2101 74.5721 49.6642 74.3044C50.1182 74.0367 50.6322 73.9028 51.2061 73.9028C51.5723 73.9028 51.9128 73.9542 52.2277 74.057C52.5425 74.1598 52.823 74.3108 53.0693 74.51C53.3156 74.707 53.518 74.949 53.6765 75.236C53.8371 75.5208 53.942 75.8463 53.9913 76.2126Z" fill="black"/>
<path id="Vector_17" d="M47.2672 76.2126H46.0657C46.0314 76.0155 45.9683 75.841 45.8762 75.6889C45.7841 75.5347 45.6695 75.4041 45.5325 75.297C45.3954 75.1899 45.239 75.1096 45.0634 75.0561C44.89 75.0004 44.7026 74.9726 44.5013 74.9726C44.1436 74.9726 43.8267 75.0625 43.5504 75.2424C43.2741 75.4202 43.0578 75.6814 42.9015 76.0262C42.7451 76.3689 42.667 76.7876 42.667 77.2823C42.667 77.7856 42.7451 78.2096 42.9015 78.5544C43.06 78.8971 43.2763 79.1562 43.5504 79.3318C43.8267 79.5053 44.1425 79.592 44.4981 79.592C44.6951 79.592 44.8793 79.5663 45.0506 79.5149C45.2241 79.4614 45.3793 79.3832 45.5164 79.2804C45.6556 79.1776 45.7723 79.0513 45.8665 78.9013C45.9629 78.7514 46.0293 78.5801 46.0657 78.3874L47.2672 78.3938C47.2222 78.7065 47.1247 78.9999 46.9748 79.274C46.8271 79.5481 46.6332 79.7901 46.3934 80C46.1535 80.2077 45.873 80.3705 45.5517 80.4883C45.2305 80.6039 44.8739 80.6617 44.482 80.6617C43.9038 80.6617 43.3876 80.5279 42.9336 80.2602C42.4796 79.9925 42.1219 79.6059 41.8607 79.1005C41.5994 78.5951 41.4688 77.989 41.4688 77.2823C41.4688 76.5734 41.6005 75.9673 41.8639 75.4641C42.1273 74.9586 42.486 74.5721 42.94 74.3044C43.3941 74.0367 43.908 73.9028 44.482 73.9028C44.8482 73.9028 45.1887 73.9542 45.5035 74.057C45.8184 74.1598 46.0989 74.3108 46.3452 74.51C46.5915 74.707 46.7939 74.949 46.9523 75.236C47.113 75.5208 47.2179 75.8463 47.2672 76.2126Z" fill="black"/>
<path id="Vector_18" d="M36.1387 80.5717V73.9927H40.4176V74.9917H37.3305V76.7778H40.1959V77.7769H37.3305V79.5726H40.4433V80.5717H36.1387Z" fill="black"/>
<path id="Vector_19" d="M31.0304 74.725H32.3603C32.8743 74.725 33.3305 74.8353 33.7288 75.0559C34.1272 75.2765 34.4398 75.587 34.6669 75.9875C34.8939 76.3858 35.0074 76.8527 35.0074 77.3881C35.0074 77.9107 34.8939 78.3679 34.6669 78.7598C34.4398 79.1517 34.1272 79.4569 33.7288 79.6754C33.3305 79.8917 32.8743 79.9998 32.3603 79.9998H31.0304C30.5143 79.9998 30.056 79.8927 29.6555 79.6786C29.2572 79.4623 28.9445 79.1582 28.7175 78.7662C28.4905 78.3743 28.377 77.916 28.377 77.3913C28.377 76.8559 28.4915 76.3891 28.7207 75.9907C28.9498 75.5902 29.2636 75.2797 29.6619 75.0591C30.0624 74.8364 30.5186 74.725 31.0304 74.725ZM31.0304 75.7337C30.7177 75.7337 30.4468 75.798 30.2177 75.9265C29.9907 76.0528 29.815 76.2391 29.6908 76.4854C29.5666 76.7317 29.5045 77.0337 29.5045 77.3913C29.5045 77.734 29.5666 78.0242 29.6908 78.2619C29.8172 78.4996 29.9949 78.6806 30.2241 78.8048C30.4532 78.929 30.722 78.9911 31.0304 78.9911H32.3636C32.6741 78.9911 32.9418 78.929 33.1667 78.8048C33.3937 78.6784 33.5682 78.4964 33.6903 78.2587C33.8145 78.0188 33.8766 77.7286 33.8766 77.3881C33.8766 77.0348 33.8145 76.7349 33.6903 76.4886C33.5682 76.2424 33.3937 76.055 33.1667 75.9265C32.9418 75.798 32.6741 75.7337 32.3636 75.7337H31.0304ZM32.2704 73.877V80.8415H31.1236V73.877H32.2704Z" fill="black"/>
<path id="Vector_20" d="M27.4169 77.2823C27.4169 77.9912 27.2841 78.5983 27.0185 79.1037C26.7551 79.607 26.3953 79.9925 25.9391 80.2602C25.4851 80.5279 24.9701 80.6617 24.394 80.6617C23.8179 80.6617 23.3018 80.5279 22.8456 80.2602C22.3916 79.9904 22.0318 79.6038 21.7662 79.1005C21.5028 78.5951 21.3711 77.989 21.3711 77.2823C21.3711 76.5734 21.5028 75.9673 21.7662 75.4641C22.0318 74.9586 22.3916 74.5721 22.8456 74.3044C23.3018 74.0367 23.8179 73.9028 24.394 73.9028C24.9701 73.9028 25.4851 74.0367 25.9391 74.3044C26.3953 74.5721 26.7551 74.9586 27.0185 75.4641C27.2841 75.9673 27.4169 76.5734 27.4169 77.2823ZM26.2186 77.2823C26.2186 76.7833 26.1405 76.3625 25.9841 76.0198C25.8299 75.675 25.6158 75.4148 25.3416 75.2392C25.0675 75.0614 24.7516 74.9726 24.394 74.9726C24.0363 74.9726 23.7204 75.0614 23.4463 75.2392C23.1722 75.4148 22.957 75.675 22.8006 76.0198C22.6464 76.3625 22.5693 76.7833 22.5693 77.2823C22.5693 77.7813 22.6464 78.2032 22.8006 78.548C22.957 78.8906 23.1722 79.1508 23.4463 79.3286C23.7204 79.5042 24.0363 79.592 24.394 79.592C24.7516 79.592 25.0675 79.5042 25.3416 79.3286C25.6158 79.1508 25.8299 78.8906 25.9841 78.548C26.1405 78.2032 26.2186 77.7813 26.2186 77.2823Z" fill="black"/>
<path id="Vector_21" d="M15.7134 80.5717V73.9927H18.1805C18.6859 73.9927 19.11 74.0869 19.4526 74.2754C19.7974 74.4638 20.0576 74.723 20.2332 75.0528C20.411 75.3804 20.4999 75.7531 20.4999 76.1707C20.4999 76.5926 20.411 76.9674 20.2332 77.295C20.0555 77.6227 19.7931 77.8808 19.4462 78.0692C19.0993 78.2555 18.672 78.3487 18.1644 78.3487H16.5293V77.3689H18.0038C18.2994 77.3689 18.5414 77.3175 18.7298 77.2147C18.9183 77.1119 19.0575 76.9706 19.1474 76.7907C19.2395 76.6108 19.2856 76.4041 19.2856 76.1707C19.2856 75.9373 19.2395 75.7317 19.1474 75.5539C19.0575 75.3762 18.9172 75.238 18.7266 75.1395C18.5382 75.0389 18.2951 74.9885 17.9974 74.9885H16.9052V80.5717H15.7134Z" fill="black"/>
<path id="Vector_22" d="M14.29 73.9927V80.5717H13.1079V74.9821H10.2295V80.5717H9.04736V73.9927H14.29Z" fill="black"/>
</g>
</g>
<g id="vuesax/linear/global">
<g id="vuesax/linear/global_2">
<g id="global">
<path id="Vector_23" d="M47.2204 58.3544C57.6761 58.3544 66.1522 49.8783 66.1522 39.4225C66.1522 28.9668 57.6761 20.4907 47.2204 20.4907C36.7646 20.4907 28.2886 28.9668 28.2886 39.4225C28.2886 49.8783 36.7646 58.3544 47.2204 58.3544Z" stroke="white" stroke-width="2.83977" stroke-linecap="round" stroke-linejoin="round"/>
<path id="Vector_24" d="M39.6446 22.3843H41.5378C37.8461 33.4405 37.8461 45.4054 41.5378 56.4616H39.6446" stroke="white" stroke-width="2.83977" stroke-linecap="round" stroke-linejoin="round"/>
<path id="Vector_25" d="M52.8984 22.3843C56.5901 33.4405 56.5901 45.4054 52.8984 56.4616" stroke="white" stroke-width="2.83977" stroke-linecap="round" stroke-linejoin="round"/>
<path id="Vector_26" d="M30.1816 46.9952V45.1021C41.2378 48.7938 53.2027 48.7938 64.2589 45.1021V46.9952" stroke="white" stroke-width="2.83977" stroke-linecap="round" stroke-linejoin="round"/>
<path id="Vector_27" d="M30.1816 33.7434C41.2378 30.0517 53.2027 30.0517 64.2589 33.7434" stroke="white" stroke-width="2.83977" stroke-linecap="round" stroke-linejoin="round"/>
</g>
</g>
</g>
<g id="Cursor">
<g id="Shape" filter="url(#filter1_d_1_3621)">
<path fill-rule="evenodd" clip-rule="evenodd" d="M43.0767 37.1372L54.4261 64.1136C54.9145 65.2746 56.5605 65.2721 57.0453 64.1096L59.6469 57.8722L65.5074 63.7327C67.1709 65.3962 69.868 65.3962 71.5315 63.7327C73.195 62.0692 73.195 59.3721 71.5315 57.7086L65.671 51.8481L71.9084 49.2465C73.0709 48.7616 73.0734 47.1157 71.9124 46.6272L44.9361 35.2778C43.7631 34.7843 42.5832 35.9642 43.0767 37.1372Z" fill="#12131A"/>
</g>
<path id="Shape_2" fill-rule="evenodd" clip-rule="evenodd" d="M58.6577 52.867L67.5154 61.7247C68.0699 62.2792 68.969 62.2792 69.5235 61.7247C70.078 61.1702 70.078 60.2711 69.5235 59.7166L60.6658 50.8589L67.6869 47.9304L47.0446 39.2458L55.7292 59.8881L58.6577 52.867ZM71.9084 49.2465C73.0709 48.7616 73.0734 47.1157 71.9124 46.6272L44.9361 35.2778C43.7631 34.7843 42.5832 35.9642 43.0767 37.1372L54.4261 64.1136C54.9145 65.2746 56.5605 65.2721 57.0453 64.1096L59.6469 57.8722L65.5074 63.7327C67.1709 65.3962 69.868 65.3962 71.5315 63.7327C73.195 62.0692 73.195 59.3721 71.5315 57.7086L65.671 51.8481L71.9084 49.2465Z" fill="white"/>
</g>
</g>
<defs>
<filter id="filter0_d_1_3621" x="0" y="0" width="98" height="100.262" filterUnits="userSpaceOnUse" color-interpolation-filters="sRGB">
<feFlood flood-opacity="0" result="BackgroundImageFix"/>
<feColorMatrix in="SourceAlpha" type="matrix" values="0 0 0 0 0 0 0 0 0 0 0 0 0 0 0 0 0 0 127 0" result="hardAlpha"/>
<feOffset dy="2.26154"/>
<feComposite in2="hardAlpha" operator="out"/>
<feColorMatrix type="matrix" values="0 0 0 0 1 0 0 0 0 1 0 0 0 0 1 0 0 0 1 0"/>
<feBlend mode="normal" in2="BackgroundImageFix" result="effect1_dropShadow_1_3621"/>
<feBlend mode="normal" in="SourceGraphic" in2="effect1_dropShadow_1_3621" result="shape"/>
</filter>
<filter id="filter1_d_1_3621" x="41.1903" y="34.2771" width="33.3625" height="33.3625" filterUnits="userSpaceOnUse" color-interpolation-filters="sRGB">
<feFlood flood-opacity="0" result="BackgroundImageFix"/>
<feColorMatrix in="SourceAlpha" type="matrix" values="0 0 0 0 0 0 0 0 0 0 0 0 0 0 0 0 0 0 127 0" result="hardAlpha"/>
<feOffset dy="0.885542"/>
<feGaussianBlur stdDeviation="0.885542"/>
<feComposite in2="hardAlpha" operator="out"/>
<feColorMatrix type="matrix" values="0 0 0 0 0.0705882 0 0 0 0 0.0745098 0 0 0 0 0.101961 0 0 0 0.25 0"/>
<feBlend mode="normal" in2="BackgroundImageFix" result="effect1_dropShadow_1_3621"/>
<feBlend mode="normal" in="SourceGraphic" in2="effect1_dropShadow_1_3621" result="shape"/>
</filter>
</defs>
</svg>
