<svg width="98" height="101" viewBox="0 0 98 101" fill="none" xmlns="http://www.w3.org/2000/svg">
<g filter="url(#filter0_d_1_3333)">
<circle cx="49" cy="49" r="47.4923" stroke="black" stroke-width="3.01538" shape-rendering="crispEdges"/>
</g>
<rect x="19.5996" width="55.0143" height="12.9107" rx="6.45533" fill="white"/>
<path d="M71.5989 8.57334H70.6031V3.92069H69.6929C69.4466 3.92069 69.2441 3.95728 69.0852 4.03045C68.9282 4.10184 68.8113 4.20713 68.7345 4.34634C68.6596 4.48376 68.6221 4.64973 68.6221 4.84426C68.6221 5.03879 68.6596 5.20298 68.7345 5.33683C68.8095 5.4689 68.9255 5.56973 69.0825 5.63933C69.2414 5.70715 69.443 5.74106 69.6875 5.74106H71.0207V6.56558H69.5537C69.1325 6.56558 68.7774 6.49598 68.4882 6.35677C68.1991 6.21578 67.9796 6.01679 67.8297 5.7598C67.6816 5.50102 67.6075 5.19584 67.6075 4.84426C67.6075 4.49447 67.6807 4.18839 67.827 3.92605C67.9752 3.66192 68.1929 3.45668 68.4802 3.31034C68.7676 3.16399 69.1209 3.09082 69.5403 3.09082H71.5989V8.57334ZM68.764 6.08907H69.8482L68.515 8.57334H67.4067L68.764 6.08907Z" fill="black"/>
<path d="M61.9609 3.09082H62.9461V6.82793H62.9969L65.5749 3.09082H66.4663V8.57334H65.4732V4.83891H65.4277L62.8417 8.57334H61.9609V3.09082Z" fill="black"/>
<path d="M55.7554 9.89578V7.7622H56.1221C56.2453 7.66405 56.3604 7.52573 56.4675 7.34727C56.5745 7.1688 56.6656 6.9243 56.7405 6.61377C56.8155 6.30323 56.8672 5.90168 56.8958 5.40911L57.0403 3.09082H60.5445V7.7622H61.1549V9.89043H60.2019V8.57334H56.7084V9.89578H55.7554ZM57.2786 7.7622H59.5915V3.92337H57.9345L57.8488 5.40911C57.8256 5.78211 57.7881 6.11584 57.7364 6.41031C57.6846 6.70478 57.6195 6.96445 57.5409 7.18932C57.4624 7.41241 57.375 7.60337 57.2786 7.7622Z" fill="black"/>
<path d="M51.6591 8.64829V7.81307H51.9723C52.1133 7.81307 52.2293 7.79254 52.3203 7.7515C52.4114 7.71045 52.4845 7.65155 52.5398 7.57481C52.597 7.49807 52.6442 7.40884 52.6817 7.30711L52.754 7.1224L50.7944 3.09082H51.8331L53.1984 6.02482L54.379 3.09082H55.4016L53.5116 7.56143C53.4242 7.75417 53.3233 7.93353 53.2091 8.09951C53.0949 8.2637 52.9459 8.39666 52.762 8.49838C52.58 8.59832 52.3426 8.64829 52.05 8.64829H51.6591Z" fill="black"/>
<path d="M45.9546 3.92337V3.09082H50.3288V3.92337H48.6343V8.57334H47.6491V3.92337H45.9546Z" fill="black"/>
<path d="M45.2861 4.9404H44.2849C44.2563 4.77621 44.2037 4.63075 44.127 4.50404C44.0502 4.37555 43.9547 4.26668 43.8405 4.17745C43.7263 4.08821 43.596 4.02129 43.4497 3.97667C43.3051 3.93027 43.149 3.90707 42.9812 3.90707C42.6832 3.90707 42.419 3.98203 42.1888 4.13194C41.9586 4.28007 41.7783 4.4978 41.648 4.78513C41.5178 5.07068 41.4526 5.41958 41.4526 5.83184C41.4526 6.25124 41.5178 6.6046 41.648 6.89194C41.7801 7.17748 41.9604 7.39343 42.1888 7.53977C42.419 7.68433 42.6823 7.75661 42.9785 7.75661C43.1427 7.75661 43.2962 7.73519 43.439 7.69236C43.5835 7.64775 43.7129 7.5826 43.8271 7.49694C43.9431 7.41128 44.0404 7.30598 44.1189 7.18105C44.1992 7.05613 44.2546 6.91335 44.2849 6.75273L45.2861 6.75809C45.2486 7.01865 45.1674 7.26315 45.0425 7.49159C44.9194 7.72002 44.7578 7.92169 44.558 8.09659C44.3581 8.2697 44.1243 8.40534 43.8566 8.5035C43.5889 8.59987 43.2917 8.64806 42.9651 8.64806C42.4833 8.64806 42.0532 8.53651 41.6748 8.31343C41.2965 8.09034 40.9984 7.76821 40.7807 7.34703C40.563 6.92584 40.4541 6.42078 40.4541 5.83184C40.4541 5.24111 40.5639 4.73605 40.7834 4.31665C41.0029 3.89547 41.3018 3.57334 41.6802 3.35025C42.0585 3.12717 42.4868 3.01562 42.9651 3.01562C43.2703 3.01562 43.5541 3.05846 43.8164 3.14412C44.0788 3.22979 44.3126 3.35561 44.5178 3.52158C44.723 3.68577 44.8917 3.88744 45.0238 4.12658C45.1576 4.36395 45.2451 4.63522 45.2861 4.9404Z" fill="black"/>
<path d="M39.5297 5.43262V6.23037H37.0615V5.43262H39.5297Z" fill="black"/>
<path d="M32.1499 8.57334V3.09082H35.6755V3.92337H33.1431V5.20834H34.2005C34.6199 5.20834 34.9795 5.27705 35.2793 5.41447C35.5809 5.5501 35.8121 5.74195 35.9727 5.99002C36.1333 6.23809 36.2136 6.52989 36.2136 6.86541C36.2136 7.20271 36.1333 7.49986 35.9727 7.75685C35.8121 8.01206 35.5809 8.21194 35.2793 8.3565C34.9795 8.50106 34.6199 8.57334 34.2005 8.57334H32.1499ZM33.1431 7.75953H34.2005C34.4218 7.75953 34.6092 7.71759 34.7627 7.63371C34.9161 7.54983 35.0321 7.43918 35.1107 7.30176C35.191 7.16434 35.2311 7.01532 35.2311 6.8547C35.2311 6.62269 35.1419 6.42548 34.9634 6.26308C34.7868 6.09889 34.5324 6.01679 34.2005 6.01679H33.1431V7.75953Z" fill="black"/>
<path d="M27.5684 8.57334V3.09082H31.1341V3.92337H28.5615V5.41179H30.9494V6.24434H28.5615V7.74079H31.1556V8.57334H27.5684Z" fill="black"/>
<path d="M22.6152 8.57334V3.09082H24.714C25.1102 3.09082 25.4395 3.15328 25.7018 3.27821C25.966 3.40135 26.1632 3.57001 26.2934 3.78417C26.4255 3.99833 26.4915 4.24104 26.4915 4.51231C26.4915 4.7354 26.4487 4.92636 26.363 5.08519C26.2774 5.24224 26.1623 5.36985 26.0177 5.46801C25.8732 5.56616 25.7116 5.63666 25.5332 5.67949V5.73303C25.7277 5.74374 25.9142 5.80352 26.0927 5.91239C26.2729 6.01947 26.4202 6.17117 26.5344 6.36748C26.6486 6.5638 26.7057 6.80116 26.7057 7.07957C26.7057 7.36333 26.637 7.61854 26.4996 7.84519C26.3622 8.07006 26.1551 8.24763 25.8785 8.37792C25.6019 8.5082 25.2539 8.57334 24.8345 8.57334H22.6152ZM23.6084 7.74346H24.6765C25.037 7.74346 25.2967 7.67475 25.4555 7.53733C25.6162 7.39813 25.6965 7.21966 25.6965 7.00193C25.6965 6.83953 25.6563 6.69318 25.576 6.5629C25.4957 6.43084 25.3815 6.32733 25.2334 6.25237C25.0852 6.17563 24.9085 6.13726 24.7033 6.13726H23.6084V7.74346ZM23.6084 5.4225H24.5909C24.7622 5.4225 24.9166 5.39126 25.054 5.3288C25.1914 5.26455 25.2994 5.17443 25.3779 5.05842C25.4582 4.94063 25.4984 4.80143 25.4984 4.64081C25.4984 4.42843 25.4234 4.25353 25.2735 4.11612C25.1254 3.9787 24.905 3.90999 24.6123 3.90999H23.6084V5.4225Z" fill="black"/>
<rect x="4.52441" y="69.3535" width="87.3222" height="16.0107" rx="7.53846" fill="white"/>
<path d="M81.6406 80.5722V79.5828L81.8269 79.5731C82.0797 79.5581 82.2799 79.4671 82.4277 79.3001C82.5776 79.133 82.6879 78.8643 82.7585 78.4938C82.8314 78.1233 82.8795 77.6264 82.9031 77.0032L83.0123 73.9932H87.3234V80.5722H86.1573V74.973H84.1238L84.021 77.3726C83.991 78.0922 83.9118 78.6886 83.7833 79.1619C83.6569 79.6352 83.4492 79.9886 83.1601 80.222C82.8731 80.4555 82.4737 80.5722 81.9619 80.5722H81.6406Z" fill="black"/>
<path d="M76.3668 80.5722H75.0947L77.4109 73.9932H78.8822L81.2015 80.5722H79.9294L78.1722 75.3424H78.1208L76.3668 80.5722ZM76.4086 77.9926H79.878V78.9499H76.4086V77.9926Z" fill="black"/>
<path d="M68.7896 80.5722V73.9932H69.9814V76.7783H73.0299V73.9932H74.225V80.5722H73.0299V77.7774H69.9814V80.5722H68.7896Z" fill="black"/>
<path d="M67.6649 77.2828C67.6649 77.9917 67.5321 78.5988 67.2666 79.1042C67.0031 79.6075 66.6434 79.993 66.1872 80.2607C65.7332 80.5284 65.2181 80.6622 64.642 80.6622C64.0659 80.6622 63.5498 80.5284 63.0936 80.2607C62.6396 79.9908 62.2798 79.6043 62.0143 79.101C61.7508 78.5956 61.6191 77.9895 61.6191 77.2828C61.6191 76.5739 61.7508 75.9678 62.0143 75.4646C62.2798 74.9591 62.6396 74.5726 63.0936 74.3049C63.5498 74.0372 64.0659 73.9033 64.642 73.9033C65.2181 73.9033 65.7332 74.0372 66.1872 74.3049C66.6434 74.5726 67.0031 74.9591 67.2666 75.4646C67.5321 75.9678 67.6649 76.5739 67.6649 77.2828ZM66.4667 77.2828C66.4667 76.7838 66.3885 76.363 66.2322 76.0203C66.078 75.6755 65.8638 75.4153 65.5897 75.2397C65.3156 75.0619 64.9997 74.9731 64.642 74.9731C64.2844 74.9731 63.9685 75.0619 63.6944 75.2397C63.4202 75.4153 63.205 75.6755 63.0487 76.0203C62.8945 76.363 62.8174 76.7838 62.8174 77.2828C62.8174 77.7818 62.8945 78.2037 63.0487 78.5485C63.205 78.8911 63.4202 79.1513 63.6944 79.3291C63.9685 79.5047 64.2844 79.5925 64.642 79.5925C64.9997 79.5925 65.3156 79.5047 65.5897 79.3291C65.8638 79.1513 66.078 78.8911 66.2322 78.5485C66.3885 78.2037 66.4667 77.7818 66.4667 77.2828Z" fill="black"/>
<path d="M55.0776 73.9932H56.2598V78.4777H56.3208L59.4144 73.9932H60.4841V80.5722H59.2923V76.0909H59.2377L56.1345 80.5722H55.0776V73.9932Z" fill="black"/>
<path d="M53.9913 76.213H52.7898C52.7556 76.016 52.6924 75.8415 52.6003 75.6894C52.5082 75.5352 52.3936 75.4046 52.2566 75.2975C52.1195 75.1904 51.9632 75.1101 51.7876 75.0566C51.6141 75.0009 51.4267 74.9731 51.2254 74.9731C50.8677 74.9731 50.5508 75.063 50.2745 75.2429C49.9982 75.4206 49.7819 75.6819 49.6256 76.0267C49.4693 76.3694 49.3911 76.7881 49.3911 77.2828C49.3911 77.7861 49.4693 78.2101 49.6256 78.5549C49.7841 78.8976 50.0004 79.1567 50.2745 79.3323C50.5508 79.5058 50.8667 79.5925 51.2222 79.5925C51.4192 79.5925 51.6034 79.5668 51.7747 79.5154C51.9482 79.4619 52.1034 79.3837 52.2405 79.2809C52.3797 79.1781 52.4964 79.0517 52.5907 78.9018C52.687 78.7519 52.7534 78.5806 52.7898 78.3878L53.9913 78.3943C53.9463 78.7069 53.8489 79.0003 53.6989 79.2745C53.5512 79.5486 53.3574 79.7906 53.1175 80.0005C52.8776 80.2082 52.5971 80.371 52.2758 80.4888C51.9546 80.6044 51.598 80.6622 51.2061 80.6622C50.6279 80.6622 50.1118 80.5284 49.6577 80.2607C49.2037 79.993 48.8461 79.6064 48.5848 79.101C48.3235 78.5956 48.1929 77.9895 48.1929 77.2828C48.1929 76.5739 48.3246 75.9678 48.588 75.4646C48.8514 74.9591 49.2101 74.5726 49.6642 74.3049C50.1182 74.0372 50.6322 73.9033 51.2061 73.9033C51.5723 73.9033 51.9128 73.9547 52.2277 74.0575C52.5425 74.1603 52.823 74.3113 53.0693 74.5105C53.3156 74.7075 53.518 74.9495 53.6765 75.2365C53.8371 75.5213 53.942 75.8468 53.9913 76.213Z" fill="black"/>
<path d="M47.2672 76.213H46.0657C46.0314 76.016 45.9683 75.8415 45.8762 75.6894C45.7841 75.5352 45.6695 75.4046 45.5325 75.2975C45.3954 75.1904 45.239 75.1101 45.0634 75.0566C44.89 75.0009 44.7026 74.9731 44.5013 74.9731C44.1436 74.9731 43.8267 75.063 43.5504 75.2429C43.2741 75.4206 43.0578 75.6819 42.9015 76.0267C42.7451 76.3694 42.667 76.7881 42.667 77.2828C42.667 77.7861 42.7451 78.2101 42.9015 78.5549C43.06 78.8976 43.2763 79.1567 43.5504 79.3323C43.8267 79.5058 44.1425 79.5925 44.4981 79.5925C44.6951 79.5925 44.8793 79.5668 45.0506 79.5154C45.2241 79.4619 45.3793 79.3837 45.5164 79.2809C45.6556 79.1781 45.7723 79.0517 45.8665 78.9018C45.9629 78.7519 46.0293 78.5806 46.0657 78.3878L47.2672 78.3943C47.2222 78.7069 47.1247 79.0003 46.9748 79.2745C46.8271 79.5486 46.6332 79.7906 46.3934 80.0005C46.1535 80.2082 45.873 80.371 45.5517 80.4888C45.2305 80.6044 44.8739 80.6622 44.482 80.6622C43.9038 80.6622 43.3876 80.5284 42.9336 80.2607C42.4796 79.993 42.1219 79.6064 41.8607 79.101C41.5994 78.5956 41.4688 77.9895 41.4688 77.2828C41.4688 76.5739 41.6005 75.9678 41.8639 75.4646C42.1273 74.9591 42.486 74.5726 42.94 74.3049C43.3941 74.0372 43.908 73.9033 44.482 73.9033C44.8482 73.9033 45.1887 73.9547 45.5035 74.0575C45.8184 74.1603 46.0989 74.3113 46.3452 74.5105C46.5915 74.7075 46.7939 74.9495 46.9523 75.2365C47.113 75.5213 47.2179 75.8468 47.2672 76.213Z" fill="black"/>
<path d="M36.1387 80.5722V73.9932H40.4176V74.9922H37.3305V76.7783H40.1959V77.7774H37.3305V79.5731H40.4433V80.5722H36.1387Z" fill="black"/>
<path d="M31.0304 74.725H32.3603C32.8743 74.725 33.3305 74.8353 33.7288 75.0559C34.1272 75.2765 34.4398 75.587 34.6669 75.9875C34.8939 76.3858 35.0074 76.8527 35.0074 77.3881C35.0074 77.9107 34.8939 78.3679 34.6669 78.7598C34.4398 79.1517 34.1272 79.4569 33.7288 79.6754C33.3305 79.8917 32.8743 79.9998 32.3603 79.9998H31.0304C30.5143 79.9998 30.056 79.8927 29.6555 79.6786C29.2572 79.4623 28.9445 79.1582 28.7175 78.7662C28.4905 78.3743 28.377 77.916 28.377 77.3913C28.377 76.8559 28.4915 76.3891 28.7207 75.9907C28.9498 75.5902 29.2636 75.2797 29.6619 75.0591C30.0624 74.8364 30.5186 74.725 31.0304 74.725ZM31.0304 75.7337C30.7177 75.7337 30.4468 75.798 30.2177 75.9265C29.9907 76.0528 29.815 76.2391 29.6908 76.4854C29.5666 76.7317 29.5045 77.0337 29.5045 77.3913C29.5045 77.734 29.5666 78.0242 29.6908 78.2619C29.8172 78.4996 29.9949 78.6806 30.2241 78.8048C30.4532 78.929 30.722 78.9911 31.0304 78.9911H32.3636C32.6741 78.9911 32.9418 78.929 33.1667 78.8048C33.3937 78.6784 33.5682 78.4964 33.6903 78.2587C33.8145 78.0188 33.8766 77.7286 33.8766 77.3881C33.8766 77.0348 33.8145 76.7349 33.6903 76.4886C33.5682 76.2424 33.3937 76.055 33.1667 75.9265C32.9418 75.798 32.6741 75.7337 32.3636 75.7337H31.0304ZM32.2704 73.877V80.8415H31.1236V73.877H32.2704Z" fill="black"/>
<path d="M27.4169 77.2828C27.4169 77.9917 27.2841 78.5988 27.0185 79.1042C26.7551 79.6075 26.3953 79.993 25.9391 80.2607C25.4851 80.5284 24.9701 80.6622 24.394 80.6622C23.8179 80.6622 23.3018 80.5284 22.8456 80.2607C22.3916 79.9908 22.0318 79.6043 21.7662 79.101C21.5028 78.5956 21.3711 77.9895 21.3711 77.2828C21.3711 76.5739 21.5028 75.9678 21.7662 75.4646C22.0318 74.9591 22.3916 74.5726 22.8456 74.3049C23.3018 74.0372 23.8179 73.9033 24.394 73.9033C24.9701 73.9033 25.4851 74.0372 25.9391 74.3049C26.3953 74.5726 26.7551 74.9591 27.0185 75.4646C27.2841 75.9678 27.4169 76.5739 27.4169 77.2828ZM26.2186 77.2828C26.2186 76.7838 26.1405 76.363 25.9841 76.0203C25.8299 75.6755 25.6158 75.4153 25.3416 75.2397C25.0675 75.0619 24.7516 74.9731 24.394 74.9731C24.0363 74.9731 23.7204 75.0619 23.4463 75.2397C23.1722 75.4153 22.957 75.6755 22.8006 76.0203C22.6464 76.363 22.5693 76.7838 22.5693 77.2828C22.5693 77.7818 22.6464 78.2037 22.8006 78.5485C22.957 78.8911 23.1722 79.1513 23.4463 79.3291C23.7204 79.5047 24.0363 79.5925 24.394 79.5925C24.7516 79.5925 25.0675 79.5047 25.3416 79.3291C25.6158 79.1513 25.8299 78.8911 25.9841 78.5485C26.1405 78.2037 26.2186 77.7818 26.2186 77.2828Z" fill="black"/>
<path d="M15.7134 80.5722V73.9932H18.1805C18.6859 73.9932 19.11 74.0874 19.4526 74.2759C19.7974 74.4643 20.0576 74.7235 20.2332 75.0533C20.411 75.3809 20.4999 75.7536 20.4999 76.1712C20.4999 76.5931 20.411 76.9679 20.2332 77.2955C20.0555 77.6232 19.7931 77.8813 19.4462 78.0697C19.0993 78.256 18.672 78.3492 18.1644 78.3492H16.5293V77.3694H18.0038C18.2994 77.3694 18.5414 77.318 18.7298 77.2152C18.9183 77.1124 19.0575 76.9711 19.1474 76.7912C19.2395 76.6113 19.2856 76.4046 19.2856 76.1712C19.2856 75.9377 19.2395 75.7322 19.1474 75.5544C19.0575 75.3766 18.9172 75.2385 18.7266 75.14C18.5382 75.0393 18.2951 74.989 17.9974 74.989H16.9052V80.5722H15.7134Z" fill="black"/>
<path d="M14.29 73.9932V80.5722H13.1079V74.9826H10.2295V80.5722H9.04736V73.9932H14.29Z" fill="black"/>
<path d="M47.2199 58.3539C57.6757 58.3539 66.1517 49.8778 66.1517 39.4221C66.1517 28.9663 57.6757 20.4902 47.2199 20.4902C36.7641 20.4902 28.2881 28.9663 28.2881 39.4221C28.2881 49.8778 36.7641 58.3539 47.2199 58.3539Z" stroke="black" stroke-width="2.83977" stroke-linecap="round" stroke-linejoin="round"/>
<path d="M39.6442 22.3828H41.5373C37.8456 33.439 37.8456 45.4039 41.5373 56.4601H39.6442" stroke="black" stroke-width="2.83977" stroke-linecap="round" stroke-linejoin="round"/>
<path d="M52.8979 22.3828C56.5897 33.439 56.5897 45.4039 52.8979 56.4601" stroke="black" stroke-width="2.83977" stroke-linecap="round" stroke-linejoin="round"/>
<path d="M30.1812 46.9947V45.1016C41.2373 48.7933 53.2022 48.7933 64.2584 45.1016V46.9947" stroke="black" stroke-width="2.83977" stroke-linecap="round" stroke-linejoin="round"/>
<path d="M30.1812 33.7424C41.2373 30.0507 53.2022 30.0507 64.2584 33.7424" stroke="black" stroke-width="2.83977" stroke-linecap="round" stroke-linejoin="round"/>
<g filter="url(#filter1_d_1_3333)">
<path fill-rule="evenodd" clip-rule="evenodd" d="M43.0767 37.1377L54.4261 64.1141C54.9145 65.2751 56.5605 65.2726 57.0453 64.1101L59.6469 57.8727L65.5074 63.7332C67.1709 65.3967 69.868 65.3967 71.5315 63.7332C73.195 62.0697 73.195 59.3726 71.5315 57.7091L65.671 51.8486L71.9084 49.247C73.0709 48.7621 73.0734 47.1161 71.9124 46.6277L44.9361 35.2783C43.7631 34.7848 42.5832 35.9647 43.0767 37.1377Z" fill="#12131A"/>
</g>
<path fill-rule="evenodd" clip-rule="evenodd" d="M58.6577 52.8674L67.5154 61.7251C68.0699 62.2796 68.969 62.2796 69.5235 61.7251C70.078 61.1706 70.078 60.2716 69.5235 59.7171L60.6658 50.8594L67.6869 47.9308L47.0446 39.2463L55.7292 59.8886L58.6577 52.8674ZM71.9084 49.247C73.0709 48.7621 73.0734 47.1161 71.9124 46.6277L44.9361 35.2783C43.7631 34.7848 42.5832 35.9647 43.0767 37.1377L54.4261 64.1141C54.9145 65.2751 56.5605 65.2726 57.0453 64.1101L59.6469 57.8727L65.5074 63.7332C67.1709 65.3967 69.868 65.3967 71.5315 63.7332C73.195 62.0697 73.195 59.3726 71.5315 57.7091L65.671 51.8486L71.9084 49.247Z" fill="white"/>
<defs>
<filter id="filter0_d_1_3333" x="0" y="0" width="98" height="100.262" filterUnits="userSpaceOnUse" color-interpolation-filters="sRGB">
<feFlood flood-opacity="0" result="BackgroundImageFix"/>
<feColorMatrix in="SourceAlpha" type="matrix" values="0 0 0 0 0 0 0 0 0 0 0 0 0 0 0 0 0 0 127 0" result="hardAlpha"/>
<feOffset dy="2.26154"/>
<feComposite in2="hardAlpha" operator="out"/>
<feColorMatrix type="matrix" values="0 0 0 0 0 0 0 0 0 0 0 0 0 0 0 0 0 0 1 0"/>
<feBlend mode="normal" in2="BackgroundImageFix" result="effect1_dropShadow_1_3333"/>
<feBlend mode="normal" in="SourceGraphic" in2="effect1_dropShadow_1_3333" result="shape"/>
</filter>
<filter id="filter1_d_1_3333" x="41.1903" y="34.2775" width="33.3625" height="33.3625" filterUnits="userSpaceOnUse" color-interpolation-filters="sRGB">
<feFlood flood-opacity="0" result="BackgroundImageFix"/>
<feColorMatrix in="SourceAlpha" type="matrix" values="0 0 0 0 0 0 0 0 0 0 0 0 0 0 0 0 0 0 127 0" result="hardAlpha"/>
<feOffset dy="0.885542"/>
<feGaussianBlur stdDeviation="0.885542"/>
<feComposite in2="hardAlpha" operator="out"/>
<feColorMatrix type="matrix" values="0 0 0 0 0.0705882 0 0 0 0 0.0745098 0 0 0 0 0.101961 0 0 0 0.25 0"/>
<feBlend mode="normal" in2="BackgroundImageFix" result="effect1_dropShadow_1_3333"/>
<feBlend mode="normal" in="SourceGraphic" in2="effect1_dropShadow_1_3333" result="shape"/>
</filter>
</defs>
</svg>
