<svg width="48" height="48" viewBox="0 0 48 48" fill="none" xmlns="http://www.w3.org/2000/svg">
<path d="M32.7932 4.3039L34.5612 2M34.8317 7.09725L42 3.0043M36.0564 10.8661H39.7283M11.7793 33V45.8229C11.7793 45.9716 11.9472 46.0538 12.0598 45.9603L19.1445 40.0751C19.2105 40.0203 19.3057 40.0231 19.3686 40.0818L22.9993 43.4705M26.2649 33V42.2834M33.6079 16.7315C33.6079 24.5587 27.4276 30.904 19.8039 30.904C12.1802 30.904 6 24.5587 6 16.7315C6 8.90426 12.1802 2.55904 19.8039 2.55904C27.4276 2.55904 33.6079 8.90426 33.6079 16.7315ZM21.9002 12.6716L26.7307 12.2461C27.2617 12.1993 27.5395 12.8633 27.1324 13.1904C25.3474 14.6247 23.333 16.5473 23.7327 17.4186C24.3807 18.8313 26.6487 24.0108 25.1907 23.8539C23.7327 23.6969 20.1687 19.773 19.1967 20.4008C18.2247 21.0287 14.3367 25.7374 13.5267 23.8539C12.7167 21.9704 16.4427 18.6743 15.1467 17.4186C13.8507 16.163 10.1247 14.1225 12.3927 13.6517C13.9422 13.33 15.6019 13.2143 16.5244 13.1874C16.7633 13.1804 16.9713 13.0291 17.0365 12.8107C17.6768 10.6674 18.949 7.28728 19.6827 8.47208C20.3605 9.56658 21.0055 11.2971 21.3387 12.3123C21.4142 12.5425 21.6475 12.6938 21.9002 12.6716Z" stroke="black" stroke-width="1.5" stroke-linecap="round"/>
</svg>
