<svg width="48" height="48" viewBox="0 0 48 48" fill="none" xmlns="http://www.w3.org/2000/svg">
<path d="M7.54173 42.3092C22.0983 45.3961 42.8678 43.5546 42.8678 32.7216V9.26751C42.8678 7.87924 42.7161 6.6107 42.3833 5.53575M7.54173 42.3092C3.9868 41.5553 1.94717 37.4528 2.17497 33.376C2.53361 26.9579 2.31441 18.8627 2.01027 12.4301C1.75618 7.05621 6.25781 2.32633 11.0206 2.50017C19.5319 2.81083 30.7541 2.40458 37.5825 2.01083C40.1728 1.86147 41.6811 3.26769 42.3833 5.53575M7.54173 42.3092C9.13172 42.9447 10.9834 43.5758 13 44.1316M42.3833 5.53575C46.2194 8.36435 46.26 24.8382 45.8008 32.7216C41.6956 48.0388 24.6122 47.3324 13 44.1316M42.3833 5.53575C43.5225 9.02383 45.4406 19.3443 44 32.7216C42.5594 46.0989 22.7331 45.9022 13 44.1316M20.6591 15.9299C22.7486 15.8608 27.7366 15.3783 31.6508 14.008C31.8128 13.9513 32.0487 14.2091 31.9912 14.3787C31.1162 16.9567 30.4168 22.7611 30.5121 26.4104M31.2793 14.9974C27.4581 19.3908 18.9265 28.2533 14 30" stroke="black" stroke-width="1.5" stroke-linecap="round"/>
</svg>
