<svg width="48" height="48" viewBox="0 0 48 48" fill="none" xmlns="http://www.w3.org/2000/svg">
<path d="M17.221 28.4L10.9247 24.8464C9.6532 24.1288 9.70286 22.3479 11.0126 21.6965L19.2498 17.6M28.779 17.6L35.0753 21.1536C36.3468 21.8712 36.2971 23.6521 34.9874 24.3035L26.7502 28.4M24.8751 14L21.1249 32M7.54173 42.3092C22.0983 45.3961 42.8678 43.5546 42.8678 32.7216V9.26751C42.8678 7.87924 42.7161 6.6107 42.3833 5.53575M7.54173 42.3092C3.9868 41.5553 1.94717 37.4528 2.17497 33.376C2.53361 26.9579 2.31441 18.8627 2.01027 12.4301C1.75618 7.05621 6.25781 2.32633 11.0206 2.50017C19.5319 2.81083 30.7541 2.40458 37.5825 2.01083C40.1728 1.86147 41.6811 3.26769 42.3833 5.53575M7.54173 42.3092C9.13172 42.9447 10.9834 43.5758 13 44.1316M42.3833 5.53575C46.2194 8.36435 46.26 24.8382 45.8008 32.7216C41.6956 48.0388 24.6122 47.3324 13 44.1316M42.3833 5.53575C43.5225 9.02383 45.4406 19.3443 44 32.7216C42.5594 46.0989 22.7331 45.9022 13 44.1316" stroke="#2E2E2E" stroke-width="1.5" stroke-linecap="round"/>
</svg>
