<svg width="48" height="48" viewBox="0 0 48 48" fill="none" xmlns="http://www.w3.org/2000/svg">
<path d="M40.9719 19.0085L40.8592 7.61242C40.8327 4.93135 38.9034 2 36.2222 2H15.9998M36.2222 11.1137C37.2268 12.4435 39.4767 15.8023 40.7796 19.0135C40.8335 19.1465 41.0709 19.1424 41.1214 19.0085C41.8899 16.9724 44.2504 13.1724 46 11.1137M22.1409 2.40277C18.4304 1.80786 6.83944 1.9269 3.50002 2.40283M23.5323 2.99775C23.7378 8.09371 24.0963 17.1722 23.9758 19.9999M23.0003 20C21.5877 18.8394 8.44553 18.5492 5.62046 18.5492C2.7954 18.5492 2.06931 18.9207 2.44226 17.3886C2.74859 16.1301 2.52554 7.95758 2 2.7199M42.2818 28.4028C34.8609 27.8079 11.6789 27.9269 5.00004 28.4028M45.0646 28.9977C45.4756 34.0937 46.1926 43.1722 45.9517 45.9999M44.0005 46C41.1755 44.8394 14.8911 44.5492 9.24093 44.5492C3.59079 44.5492 2.13862 44.9207 2.88453 43.3886C3.49719 42.1301 3.05107 33.9576 2 28.7199M12 37C19.6667 37 35.4 37.2 37 38" stroke="#2E2E2E" stroke-width="1.5" stroke-linecap="round"/>
</svg>
