<svg width="48" height="48" viewBox="0 0 48 48" fill="none" xmlns="http://www.w3.org/2000/svg">
<path d="M23.4582 24.8739C23.6153 24.8516 27.4175 24.365 27.2592 20.9718C27.2446 20.66 27.2041 20.3764 27.1411 20.1193M23.4582 24.8739C25.5423 24.7418 26.6013 23.9586 27.0752 23.02M23.4582 24.8739C23.2061 24.9099 22.946 24.907 22.6888 24.8679M27.1411 20.1193C27.0622 19.7975 26.9481 19.5172 26.8057 19.2752M27.1411 20.1193C27.425 20.8738 27.5736 22.0328 27.0752 23.02M26.8057 19.2752C25.6384 17.2914 22.5684 17.8841 21.3993 19.2752C20.9406 19.8215 19.9792 21.207 20.4477 22.9389C20.7414 24.0245 21.6942 24.7168 22.6888 24.8679M26.8057 19.2752C27.2499 19.8738 27.8944 21.2758 27.3434 22.5472M27.0752 23.02C27.1855 22.8657 27.274 22.7075 27.3434 22.5472M22.6888 24.8679C24.0039 25.0874 26.7759 24.9305 27.3434 22.5472M30.3635 29.432L30.6463 29.9746C30.9881 30.6305 31.1435 31.3913 30.8309 32.0606M30.3635 29.432C29.7509 28.2565 28.4985 27.5139 27.1286 27.5139H20.7489C19.3789 27.5139 18.1266 28.2565 17.5139 29.432L17.3752 29.6983C16.9462 30.5214 16.8412 31.4932 17.2924 32.3053C18.6692 34.7841 21.0499 35.8445 23.4582 35.908M30.3635 29.432C30.9923 31.1826 30.4914 34.9286 23.4582 35.908M30.8309 32.0606C29.7367 34.4035 26.5743 35.9902 23.4582 35.908M30.8309 32.0606C30.5261 33.6134 28.6248 36.5569 23.4582 35.908M2.43472 11.884C2.43472 9.94399 2.63156 6.0644 7.35574 6.0644C8.73716 6.06493 16.8273 5.45088 17.1975 8.00428C18.1817 14.7935 31.9605 10.9141 37.8658 10.9141C43.771 10.9141 45.7394 12.854 45.7394 17.7036C45.7394 18.2193 45.7616 18.8776 45.7931 19.6435C46.0579 26.0799 46.9755 40.1151 40.8187 40.9819C33.9293 41.9518 3.41888 43.8917 2.43472 37.1022C1.87389 33.2331 1.94559 25.1971 2.15183 18.6736C2.23512 16.039 2.34035 13.6511 2.43472 11.884Z" stroke="#2E2E2E" stroke-width="1.5" stroke-linecap="round"/>
</svg>
