<svg width="48" height="48" viewBox="0 0 48 48" fill="none" xmlns="http://www.w3.org/2000/svg">
<path d="M36.5455 15.8935H39.1636M35.2364 39.3225H40.4727M6.87057 29.3483V11.3225C6.87057 11.1032 6.82773 10.8866 6.79597 10.6698C6.63311 9.55802 7.25177 7.65047 10.8811 6.91216C15.8943 5.89233 39.9574 4.87251 40.96 8.95181M26.3939 31.6521C18.9636 31.7407 10.8594 32.1307 4.8653 32.4078C-1.1505 33.4275 3.86267 38.5269 5.86793 39.5467C7.09239 40.1695 17.6629 40.0317 26.3939 39.83M30 16.5629C30 15.4473 30.6545 13.0821 33.2727 12.5466C36.5455 11.8772 45.0545 11.2078 45.7091 14.5548C46.3636 17.9017 45.7091 35.8002 45.7091 36.2225C45.7091 36.6448 45.7091 42 42.4364 42H33.2727C31.3091 42 30 40.6612 30 37.3142V16.5629Z" stroke="#2E2E2E" stroke-width="1.5" stroke-linecap="round"/>
</svg>
