<svg width="48" height="48" viewBox="0 0 48 48" fill="none" xmlns="http://www.w3.org/2000/svg">
<path d="M34.7252 19.626C34.0626 20.0088 32.9541 20.1223 31.1714 19.5763C31.0285 19.5324 30.8722 19.5365 30.7389 19.601C29.0526 20.4179 26.777 22.7516 29.787 26.3648C33.7085 31.072 35.7419 23.781 34.7252 19.626ZM34.7252 19.626C35.0157 19.345 35.5968 18.6047 35.5968 17.8915M13.742 17.8915C12.5572 15.0672 10.2857 7.79529 13.742 6.86327C18.312 5.63133 17.2962 19.7744 19.3296 17.8915C21.363 16.0086 17.2962 0.273232 22.8154 2.1561C26.6513 3.46469 25.8684 10.8907 24.6765 15.8448C24.5455 16.389 25.394 16.878 25.907 16.5861C28.3762 15.181 32.1833 14.3982 35.5968 17.8915M13.742 17.8915C12.3939 15.624 11.9215 13.2973 9.59858 13.5878C4.07935 14.9327 14.3916 33.3579 17.2964 37.2581C19.6203 40.3783 18.8457 43.669 18.1679 44.9241M13.742 17.8915C14.4024 19.0024 14.8264 20.1563 15.8431 21.6357M35.5968 17.8915C37.243 17.488 40.4188 17.9184 39.9541 22.8676C39.4893 27.8169 35.984 33.4475 34.2896 35.6442C32.4499 37.7512 28.9156 42.7722 29.4966 46" stroke="black" stroke-width="1.5" stroke-linecap="round"/>
</svg>
