<svg width="48" height="48" viewBox="0 0 48 48" fill="none" xmlns="http://www.w3.org/2000/svg">
<path d="M44.0001 11.6989C43.4503 4.65709 37.9215 2.10632 34.3974 2.00325C34.2554 1.9991 34.1214 2.06041 34.0266 2.16618L9.21767 29.8343C9.17062 29.8868 9.13519 29.9487 9.11371 30.0158L5.20536 42.2325M43.7663 11.9355L19.2965 40.9237C19.2365 40.9947 19.158 41.0476 19.0697 41.0764L8.60626 44.495M18.9707 41.0323C18.3466 38.1145 15.6023 32.3742 9.61395 30.8602M5.6387 45.4646L4.92952 45.6963C4.54182 45.823 4.17373 45.4572 4.29801 45.0687L4.44439 44.6111M5.6387 45.4646C5.75908 45.4505 5.68876 45.2601 4.44439 44.6111M5.6387 45.4646L6.85487 45.0673M4.44439 44.6111L4.7039 43.8M6.85487 45.0673C6.3725 44.6448 5.26698 43.8 4.7039 43.8M6.85487 45.0673L7.92973 44.7161M4.7039 43.8L4.99074 42.9034M7.92973 44.7161C7.2803 44.1796 5.7833 43.0661 4.99074 42.9034M7.92973 44.7161L8.60626 44.495M4.99074 42.9034L5.20536 42.2325M8.60626 44.495C8.24477 43.9517 7.05851 42.7385 5.20536 42.2325" stroke="#2E2E2E" stroke-width="1.5" stroke-linecap="round"/>
</svg>
