<svg width="48" height="48" viewBox="0 0 48 48" fill="none" xmlns="http://www.w3.org/2000/svg">
<path d="M22.9938 26.2203C23.2855 26.1806 30.3469 25.3155 30.0528 19.2832C30.0257 18.7289 29.9505 18.2247 29.8335 17.7677M22.9938 26.2203C26.8642 25.9855 28.8309 24.5931 29.7111 22.9244M22.9938 26.2203C22.5255 26.2842 22.0426 26.2791 21.5648 26.2096M29.8335 17.7677C29.687 17.1955 29.4751 16.6972 29.2107 16.267M29.8335 17.7677C30.3608 19.109 30.6368 21.1695 29.7111 22.9244M29.2107 16.267C27.0427 12.7403 21.3413 13.7939 19.1702 16.267C18.3183 17.2382 16.5328 19.7013 17.4029 22.7802C17.9484 24.7102 19.7179 25.9411 21.5648 26.2096M29.2107 16.267C30.0356 17.3313 31.2325 19.8236 30.2092 22.0838M29.7111 22.9244C29.9159 22.6501 30.0802 22.3688 30.2092 22.0838M21.5648 26.2096C24.0072 26.5998 29.1553 26.3209 30.2092 22.0838M35.818 34.3236L36.3431 35.2881C36.978 36.4542 37.2665 37.8068 36.686 38.9965M35.818 34.3236C34.6802 32.2338 32.3544 30.9137 29.8102 30.9137H17.9622C15.418 30.9137 13.0922 32.2338 11.9544 34.3236L11.6967 34.7969C10.9 36.2602 10.7052 37.9879 11.5429 39.4317C14.1 43.8383 18.5212 45.7236 22.9938 45.8365M35.818 34.3236C36.9856 37.4357 36.0555 44.0953 22.9938 45.8365M36.686 38.9965C34.6538 43.1617 28.7808 45.9826 22.9938 45.8365M36.686 38.9965C36.1199 41.7572 32.5888 46.9901 22.9938 45.8365M10.5654 11.2123C10.7737 11.1823 15.8166 10.5302 15.6066 5.98272C15.5873 5.5649 15.5335 5.18483 15.45 4.84028M10.5654 11.2123C13.3295 11.0353 14.734 9.98562 15.3626 8.72765M10.5654 11.2123C10.231 11.2605 9.8861 11.2566 9.54491 11.2042M15.45 4.84028C15.3454 4.40892 15.1941 4.03326 15.0052 3.70898M15.45 4.84028C15.8265 5.85143 16.0236 7.40474 15.3626 8.72765M15.0052 3.70898C13.457 1.05039 9.38524 1.84464 7.83476 3.70898C7.22637 4.44115 5.95129 6.29796 6.57267 8.61898C6.96218 10.0739 8.22589 11.0018 9.54491 11.2042M15.0052 3.70898C15.5943 4.51128 16.4491 6.39012 15.7183 8.09402M15.3626 8.72765C15.5089 8.52089 15.6262 8.30885 15.7183 8.09402M9.54491 11.2042C11.2891 11.4984 14.9657 11.2881 15.7183 8.09402M12 14.7504H6.97205C5.15513 14.7504 3.49415 15.7456 2.6816 17.321L2.49757 17.6778C1.92862 18.7809 1.78943 20.0833 2.38775 21.1717M37.4346 11.2123C37.2263 11.1823 32.1834 10.5302 32.3934 5.98272C32.4127 5.5649 32.4665 5.18483 32.55 4.84028M37.4346 11.2123C34.6705 11.0353 33.266 9.98562 32.6374 8.72765M37.4346 11.2123C37.769 11.2605 38.1139 11.2566 38.4551 11.2042M32.55 4.84028C32.6546 4.40892 32.8059 4.03326 32.9948 3.70898M32.55 4.84028C32.1735 5.85143 31.9764 7.40474 32.6374 8.72765M32.9948 3.70898C34.543 1.05039 38.6148 1.84464 40.1652 3.70898C40.7736 4.44115 42.0487 6.29796 41.4273 8.61898C41.0378 10.0739 39.7741 11.0018 38.4551 11.2042M32.9948 3.70898C32.4057 4.51128 31.5509 6.39012 32.2817 8.09402M32.6374 8.72765C32.4911 8.52089 32.3738 8.30885 32.2817 8.09402M38.4551 11.2042C36.7109 11.4984 33.0343 11.2881 32.2817 8.09402M36 14.7504H41.028C42.8449 14.7504 44.5059 15.7456 45.3184 17.321L45.5024 17.6778C46.0714 18.7809 46.2106 20.0833 45.6123 21.1717" stroke="#2E2E2E" stroke-width="1.5" stroke-linecap="round"/>
</svg>
