<svg width="42" height="42" viewBox="0 0 42 42" fill="none" xmlns="http://www.w3.org/2000/svg">
<g clip-path="url(#clip0_2630_5043)">
<path d="M34.8442 22.1128C34.8812 25.5288 34.9305 28.9449 34.9484 32.3611C34.9547 33.5684 34.8605 34.7759 34.8539 35.9836C34.8445 37.716 33.5152 38.7711 31.95 38.8052C28.7437 38.875 25.5363 38.9498 22.3297 38.9337C18.6145 38.9151 14.8991 38.8165 11.1848 38.7176C10.2859 38.6775 9.39041 38.5796 8.50386 38.4246C7.48414 38.2645 6.483 37.037 6.42851 35.9195C6.37456 34.8065 6.33088 33.6924 6.31658 32.5784C6.24968 27.3953 6.1895 22.2119 6.13609 17.0285C6.10304 13.9836 6.09051 10.9385 6.04411 7.89388C6.03062 7.03069 5.96884 6.16487 6.31549 5.35467C6.5015 4.88238 6.75391 4.43952 7.06503 4.03956C7.4481 3.58026 8.01313 3.40608 8.61727 3.38937C9.86265 3.355 11.1102 3.34687 12.3526 3.26413C16.7372 2.97233 21.121 3.20035 25.5054 3.23322C26.438 3.24015 27.1469 3.54706 27.8349 4.20552C29.2389 5.54921 30.7456 6.78364 32.2014 8.07285C32.7557 8.56367 33.2699 9.10103 33.8325 9.58085C34.3512 10.024 34.5527 10.5813 34.5722 11.2374C34.6066 12.3988 34.6612 13.5598 34.6774 14.7214C34.7116 17.1852 34.7266 19.6493 34.7495 22.1132L34.8442 22.1128ZM25.1233 4.9722C24.7248 4.93933 24.3845 4.89194 24.0435 4.8861C21.1365 4.83656 18.2297 4.79152 15.3229 4.75104C14.0089 4.7327 12.6945 4.72536 11.3804 4.71735C10.7127 4.71327 10.0435 4.69188 9.37748 4.72597C8.42493 4.77488 8.14506 5.05306 7.9747 6.0237C7.81222 6.8924 7.77879 7.78064 7.87555 8.65923C7.92088 9.02814 7.94459 9.39937 7.94651 9.7711C7.96188 18.0669 7.9747 26.3625 7.98495 34.6577C7.97667 34.8667 7.98436 35.0759 8.00789 35.2836C8.17353 36.3432 8.72816 36.9869 9.87588 37.0336C14.3281 37.2146 18.7804 37.2135 23.234 37.1379C25.4949 37.0996 27.7561 37.0809 30.0171 37.0549C30.5702 37.0486 31.1245 37.0707 31.6762 37.0415C32.5844 36.992 33.0643 36.4905 33.0542 35.5713C33.0431 34.5504 32.9681 33.5301 32.9511 32.5092C32.9314 31.3244 32.9714 30.1385 32.9376 28.9543C32.8547 26.0051 32.7118 23.0573 32.656 20.1078C32.6101 17.6921 32.656 15.2748 32.6582 12.8581C32.6582 12.6633 32.6347 12.4683 32.6263 12.34C31.8253 12.34 31.1109 12.3373 30.3967 12.3408C29.6582 12.3443 28.9193 12.3726 28.1816 12.3545C27.7439 12.3511 27.308 12.301 26.8808 12.205C26.0079 11.9911 25.7397 11.6539 25.6381 10.7626C25.6093 10.5091 25.6078 10.2524 25.5842 9.99809C25.4357 8.35635 25.2838 6.71582 25.1233 4.9722ZM27.6105 10.6732L31.5896 10.4263L31.6502 10.2913C30.0757 8.94189 28.5956 7.48678 26.936 6.19418C27.1567 7.65714 27.3768 9.12019 27.6105 10.6732Z" fill="black"/>
<path d="M19.187 25.8321L23.1831 22.001C23.0353 21.9741 22.8858 21.957 22.7357 21.9497C19.6914 22.0624 16.6468 22.1723 13.603 22.3C12.9124 22.329 12.225 22.4333 11.5347 22.4796C11.2604 22.4933 10.9855 22.4764 10.715 22.4291C10.6563 22.4247 10.5992 22.4086 10.547 22.3814C10.4947 22.3542 10.4486 22.3165 10.4113 22.2708C10.3739 22.225 10.3462 22.1722 10.3298 22.1153C10.3134 22.0585 10.3086 21.9988 10.3157 21.94C10.3347 21.7182 10.4321 21.5107 10.5901 21.3549C10.8032 21.2178 11.0487 21.1399 11.3015 21.1293C13.4603 20.9347 15.6177 20.7148 17.781 20.5859C19.7152 20.4708 21.6557 20.4598 23.5934 20.4076C24.0075 20.3965 24.4221 20.406 24.9288 20.406C25.5823 19.7539 26.282 19.0475 26.9925 18.352C27.4563 17.8973 27.7423 17.8397 28.2248 18.1137C28.3792 18.2137 28.514 18.3417 28.6223 18.4908C29.0991 19.0885 29.5665 19.6931 30.0355 20.2976C30.5987 21.024 30.521 21.5178 29.8283 22.1547C28.5538 23.3265 27.3027 24.524 25.9207 25.8249C27.057 25.7826 28.0076 25.7453 28.9584 25.7136C29.1423 25.7045 29.3265 25.7113 29.5091 25.7342C29.6493 25.7454 29.7807 25.8081 29.8783 25.9099C29.9761 26.0118 30.0336 26.146 30.0399 26.2876C30.0755 26.5984 29.9549 26.877 29.6657 26.9613C29.2688 27.0769 28.8594 27.1434 28.4465 27.1593C27.1566 27.2069 25.8654 27.2205 24.4958 27.2487C23.6453 28.1557 22.7891 29.0922 21.9018 29.9979C21.67 30.2204 21.3936 30.3908 21.0913 30.4974C20.4003 30.7555 19.6649 30.9037 18.9946 31.2033C17.9202 31.6833 16.8034 31.658 15.6743 31.6698C14.359 31.6834 13.044 31.7475 11.7293 31.7762C11.4528 31.7843 11.1764 31.7574 10.9065 31.6963C10.7669 31.6746 10.6406 31.6 10.5537 31.4878C10.4667 31.3757 10.4254 31.2343 10.4383 31.0926C10.4383 30.9506 10.489 30.8134 10.5813 30.7061C10.6736 30.5989 10.8012 30.5287 10.9406 30.5084C11.168 30.4712 11.3983 30.4556 11.6285 30.4618C13.5663 30.4127 15.5042 30.3676 17.442 30.3161C17.6221 30.3113 17.8014 30.271 18.0095 30.2434C18.2396 29.2916 18.2388 28.3491 18.2334 27.3058C17.9547 27.3058 17.7098 27.3058 17.4646 27.3058C15.5484 27.3096 13.6324 27.3194 11.7164 27.3114C11.4193 27.3037 11.1245 27.2566 10.8396 27.1713C10.7138 27.1398 10.6049 27.0606 10.5355 26.9503C10.4661 26.84 10.4416 26.707 10.4671 26.579C10.4753 26.4612 10.5262 26.3505 10.6102 26.268C10.6941 26.1857 10.8052 26.1375 10.9223 26.1322C11.2395 26.0724 11.5599 26.0317 11.8819 26.0099C13.7727 25.9432 15.6638 25.8847 17.5552 25.8343C18.1058 25.8191 18.6587 25.8321 19.187 25.8321ZM25.4973 21.3536C23.5231 23.2569 21.4873 24.9756 19.6135 26.9219L21.6925 28.5928C23.4545 26.7604 25.1744 24.9716 26.904 23.1724L25.4973 21.3536ZM26.6112 20.5609L28.1161 21.98L29.0125 21.1331L27.692 19.2429C27.3456 19.6652 27.0244 20.057 26.6112 20.5609ZM19.1386 27.8049C19.1545 28.5036 19.0152 29.0764 19.1749 29.6495C19.9549 29.53 20.2 29.4389 20.5816 29.1258L19.1386 27.8049Z" fill="black"/>
<path d="M20.2996 17.3762C18.3404 17.4713 16.3818 17.581 14.4219 17.6579C13.3614 17.6995 12.2988 17.687 11.2371 17.6956C11.1218 17.6984 11.0065 17.6866 10.894 17.6604C10.7673 17.6386 10.6521 17.5726 10.5688 17.4741C10.4854 17.3755 10.4392 17.2505 10.4381 17.1211C10.4315 16.9799 10.4777 16.8413 10.5676 16.7329C10.6576 16.6244 10.7846 16.5539 10.9237 16.5353C11.0603 16.5137 11.1984 16.503 11.3367 16.5031C14.0538 16.3361 16.7704 16.1585 19.4883 16.0069C21.0088 15.9222 22.5319 15.8847 24.0535 15.818C25.552 15.7521 27.0497 15.6712 28.5481 15.6073C28.9849 15.5766 29.4234 15.58 29.8596 15.6174C30.351 15.6737 30.5833 15.9397 30.5789 16.3139C30.5748 16.6957 30.3445 16.9253 29.8465 16.9878C29.3658 17.0481 28.8817 17.0932 28.3977 17.1111C25.6991 17.2107 23.0004 17.305 20.3012 17.394L20.2996 17.3762Z" fill="black"/>
</g>
<defs>
<clipPath id="clip0_2630_5043">
<rect width="29" height="36" fill="white" transform="translate(6 3)"/>
</clipPath>
</defs>
</svg>
