<svg width="42" height="42" viewBox="0 0 42 42" fill="none" xmlns="http://www.w3.org/2000/svg">
<path d="M38.8991 21.7203C38.9148 18.9313 38.8281 16.4918 38.6342 14.2628C38.3627 11.1424 36.6327 9.42325 33.6315 9.29009C32.357 9.2336 31.0596 9.27667 29.8048 9.31702C29.2344 9.33572 28.6446 9.35521 28.065 9.36489C27.8776 9.36798 27.6914 9.36701 27.5308 9.36621H27.4446C27.3791 9.17858 27.3165 8.99567 27.2549 8.81624C27.1041 8.37682 26.9605 7.96108 26.8039 7.54924C26.798 7.52866 26.7926 7.50782 26.7867 7.48738C26.7128 7.20239 26.5604 6.94414 26.347 6.74235C25.9524 6.28222 25.4074 6.05879 24.7155 6.07641C23.7765 6.10102 22.8212 6.1185 21.8974 6.13532C20.4819 6.16114 19.018 6.18779 17.5788 6.24105C16.806 6.26957 16.3829 6.4049 16.1091 6.7499C15.9288 6.85721 15.7812 7.01195 15.6822 7.19748C15.3393 7.93013 15.1423 8.72312 15.1023 9.53178H14.8699C14.5006 9.53178 14.1596 9.53075 13.8185 9.5329C13.4099 9.53518 13.0012 9.53518 12.5925 9.53532C11.598 9.53532 10.5695 9.53531 9.55814 9.56947C8.32616 9.61509 7.11361 9.89221 5.98318 10.3865C4.39249 11.0725 3.5974 12.1995 3.5523 13.8305C3.52178 14.9389 3.47896 16.0659 3.43761 17.1557C3.40175 18.1002 3.36458 19.0768 3.33554 20.038C3.32002 20.555 3.31916 21.0808 3.31822 21.5892C3.31662 22.4827 3.31491 23.4067 3.23314 24.3052C3.02611 26.579 3.06263 28.4035 3.34809 30.047C3.60611 31.5318 4.29827 32.7317 5.35017 33.5172C6.30782 34.2526 7.47065 34.6681 8.67531 34.7052C9.30465 34.7231 9.93396 34.7426 10.5632 34.7636C12.1267 34.8141 13.7434 34.8661 15.3347 34.8786C18.7066 34.9055 21.8686 34.919 24.9044 34.919C26.2952 34.919 27.6624 34.9161 29.0057 34.9106C30.5237 34.9046 32.1641 34.8342 34.0212 34.6954C36.3632 34.5206 37.9548 33.2293 38.6226 30.9601C38.85 30.2006 38.9713 29.4128 38.9829 28.6198C38.9895 27.4663 38.965 26.2942 38.9414 25.1608C38.9171 24.0326 38.8922 22.8667 38.8991 21.7203ZM36.9365 25.3916C36.9488 26.4894 36.9617 27.5874 36.9751 28.6853C36.9855 29.5399 36.7861 30.3841 36.3945 31.1428C36.0379 31.8422 35.5112 32.2574 34.8254 32.3759C34.0715 32.5275 33.3068 32.6176 32.5386 32.6457C29.8202 32.666 27.0558 32.663 24.3822 32.6604C23.4162 32.6593 22.4505 32.6587 21.4848 32.6582C20.4975 32.6582 19.5107 32.6587 18.5242 32.6595C16.1407 32.6612 13.6765 32.6632 11.2531 32.6498C10.3427 32.643 9.4334 32.5879 8.52886 32.4845C6.8489 32.2946 5.65555 31.1183 5.3369 29.3383C4.98279 27.3611 5.02337 25.3327 5.06245 23.3716C5.06927 23.0293 5.07586 22.6873 5.08094 22.3454C5.08905 21.7675 5.10127 21.1877 5.1176 20.6061C5.47701 20.6771 5.84128 20.7208 6.20725 20.7367C7.08115 20.766 7.96936 20.7636 8.82854 20.7613C9.23779 20.7604 9.64689 20.759 10.0557 20.7613C10.2146 20.7623 10.3714 20.7714 10.553 20.7819C10.6017 20.7849 10.6517 20.7877 10.7033 20.7905C10.7033 20.955 10.7023 21.1151 10.7015 21.2719C10.6995 21.7023 10.6974 22.1088 10.7059 22.5159C10.7239 23.3855 11.0827 23.7998 11.9055 23.9013C12.6832 23.9863 13.4652 24.0261 14.2475 24.0206H14.2752C15.7812 24.0206 16.3496 23.4385 16.3684 21.882C16.3718 21.6076 16.3709 21.3328 16.37 21.0528V20.7942H26.4252C26.4252 20.827 26.4252 20.8594 26.4252 20.8913C26.4241 21.0587 26.4231 21.2141 26.4276 21.3685C26.4359 21.6519 26.4442 21.8881 26.4688 22.133C26.5612 23.0541 26.964 23.4461 27.8606 23.4862C28.576 23.5182 29.3423 23.5131 30.1377 23.4697C30.9152 23.4277 31.386 22.9882 31.4992 22.1984C31.5482 21.8559 31.5694 21.5059 31.5918 21.1358C31.6001 20.9993 31.6087 20.8583 31.6186 20.7113L32.7394 20.712C33.8445 20.7126 34.9257 20.7136 36.0067 20.7083C36.2982 20.71 36.5895 20.6965 36.8797 20.668C36.9009 22.2553 36.9189 23.8386 36.9365 25.3916ZM18.8696 7.93672C19.795 7.90243 20.7336 7.88953 21.6547 7.88025C22.6294 7.90432 23.6307 7.92828 24.6182 7.94388C24.7007 7.94365 24.7828 7.9523 24.8634 7.96969C24.9571 8.07038 25.0174 8.1979 25.0358 8.33458C25.0981 8.606 25.1794 8.87266 25.2789 9.1326C25.2974 9.24971 25.3176 9.36671 25.3397 9.48364H16.9608C17.2993 7.99523 17.3209 7.99416 18.8696 7.93672ZM29.7676 20.7925C29.7625 20.836 29.7575 20.879 29.7526 20.9219C29.7333 21.1374 29.6985 21.3511 29.6489 21.5616C29.6155 21.6492 29.5502 21.7207 29.4662 21.7615C29.0619 21.8052 28.654 21.8246 28.2224 21.8452C28.108 21.8505 27.9922 21.8561 27.8744 21.8621L27.754 20.7925H29.7676ZM14.4238 20.8075V22.0929H12.3487L12.1803 20.8743C12.6166 20.7147 13.6737 20.6821 14.4238 20.8075ZM36.6947 18.6734C36.6497 18.6767 36.6049 18.6798 36.5599 18.6817C36.3251 18.6913 36.0903 18.7027 35.8555 18.7142C35.3457 18.7389 34.8184 18.7644 34.3009 18.7712C31.8945 18.8033 29.4881 18.8331 27.0818 18.8606C24.9339 18.8861 22.7861 18.9125 20.6384 18.9396C16.5204 18.9934 12.4024 19.0499 8.28453 19.1092L5.16026 19.1531C5.19386 18.151 5.23295 17.153 5.27162 16.1717C5.29197 15.6571 5.31203 15.1426 5.33174 14.6282C5.40588 12.6696 5.76263 12.212 7.57788 11.748C8.69591 11.458 9.84417 11.302 10.9987 11.2834C13.395 11.2542 15.8322 11.2583 18.1894 11.2621C20.109 11.2653 22.0944 11.2686 24.0469 11.2538C25.1577 11.2456 26.2843 11.1946 27.3743 11.1454C28.2411 11.1063 29.1374 11.0658 30.0184 11.0472C31.2264 11.0215 32.476 10.9952 33.7008 11.1231C35.4968 11.3104 36.3239 12.1492 36.555 14.0179C36.6964 15.0381 36.7849 16.065 36.8201 17.0945C36.83 17.6165 36.8394 18.14 36.8479 18.6647C36.7967 18.6666 36.7448 18.6702 36.6947 18.6734Z" fill="black"/>
</svg>
