<svg width="942" height="73" viewBox="0 0 942 73" fill="none" xmlns="http://www.w3.org/2000/svg">
<path d="M878.784 44.6L882.884 1.5H941.484V71.5H927.484V14.4H895.784L892.884 43.6C890.784 65.4 884.584 73 868.484 73V60.2C875.084 60.2 877.584 56 878.784 44.6Z" fill="black"/>
<path d="M780.867 71.5L815.967 1.5H831.567L866.867 71.5H851.267L842.967 55H804.667L796.367 71.5H780.867ZM811.067 42.2H836.467L823.767 17L811.067 42.2Z" fill="black"/>
<path d="M709.961 71.5V1.5H723.961V30H762.261V1.5H776.261V71.5H762.261V42.9H723.961V71.5H709.961Z" fill="black"/>
<path d="M623.562 36.6C623.562 15.5 639.963 0 661.963 0C683.863 0 700.263 14.7 700.263 36.6C700.263 58.2 683.863 73 661.963 73C640.063 73 623.562 57.4 623.562 36.6ZM637.562 36.6C637.562 50.1 647.763 59.6 661.963 59.6C676.463 59.6 686.263 50.1 686.263 36.6C686.263 22.8 676.463 13.4 661.963 13.4C647.663 13.4 637.562 22.8 637.562 36.6Z" fill="black"/>
<path d="M614.012 71.5H600.012V24.8L556.612 71.5H545.312V1.5H559.312V47.9L602.812 1.5H614.012V71.5Z" fill="black"/>
<path d="M474.281 36.6C474.281 50.1 484.481 59.6 498.681 59.6C508.781 59.6 516.681 54.9 520.581 47.3H535.381C531.081 63 516.681 73 498.681 73C476.781 73 460.281 57.4 460.281 36.6C460.281 15.5 476.681 0 498.681 0C516.681 0 530.981 10 535.381 25.7H520.581C516.781 18 508.881 13.4 498.681 13.4C484.381 13.4 474.281 22.8 474.281 36.6Z" fill="black"/>
<path d="M394.297 36.6C394.297 50.1 404.497 59.6 418.697 59.6C428.797 59.6 436.697 54.9 440.597 47.3H455.397C451.097 63 436.697 73 418.697 73C396.797 73 380.297 57.4 380.297 36.6C380.297 15.5 396.697 0 418.697 0C436.697 0 450.997 10 455.397 25.7H440.597C436.797 18 428.897 13.4 418.697 13.4C404.397 13.4 394.297 22.8 394.297 36.6Z" fill="black"/>
<path d="M313.477 71.5V1.5H371.277V14.4H327.477V30H369.677V42.9H327.477V58.5H371.277V71.5H313.477Z" fill="black"/>
<path d="M234.594 36.5C234.594 21.1 247.394 9.4 265.094 7.9V0H273.294V7.9C291.194 9.3 303.794 20.5 303.794 36.5C303.794 52.3 291.194 63.5 273.294 65V73H265.094V65C247.494 63.4 234.594 51.7 234.594 36.5ZM273.294 20.9V51.9C283.394 50.7 289.794 44.6 289.794 36.6C289.794 28.4 283.394 22.2 273.294 20.9ZM248.594 36.6C248.594 44.6 255.294 50.6 265.094 51.9V21C255.294 22.3 248.594 28.4 248.594 36.6Z" fill="black"/>
<path d="M151.297 36.6C151.297 15.5 167.697 0 189.697 0C211.597 0 227.997 14.7 227.997 36.6C227.997 58.2 211.597 73 189.697 73C167.797 73 151.297 57.4 151.297 36.6ZM165.297 36.6C165.297 50.1 175.497 59.6 189.697 59.6C204.197 59.6 213.997 50.1 213.997 36.6C213.997 22.8 204.197 13.4 189.697 13.4C175.397 13.4 165.297 22.8 165.297 36.6Z" fill="black"/>
<path d="M81.1562 71.5V1.5H116.956C131.956 1.5 144.556 11.4 144.556 26.3C144.556 40.4 131.256 51.1 116.956 51.1H95.1562V71.5H81.1562ZM130.556 26.3C130.556 19.4 124.756 14.4 116.956 14.4H95.1562V38H116.956C124.656 38 130.556 32.9 130.556 26.3Z" fill="black"/>
<path d="M0 1.5H68.4V71.5H54.4V14.4H14V71.5H0V1.5Z" fill="black"/>
</svg>
