<svg width="126" height="131" viewBox="0 0 126 131" fill="none" xmlns="http://www.w3.org/2000/svg">
<mask id="path-1-outside-1_1_16910" maskUnits="userSpaceOnUse" x="9.04515" y="23.3786" width="102.113" height="97.8595" fill="black">
<rect fill="white" x="9.04515" y="23.3786" width="102.113" height="97.8595"/>
<path d="M43.4175 31.1228L57.3007 36.6712L34.7706 69.1113L34.3983 71.7524C46.8891 72.3159 54.4481 80.2651 52.7935 92.0035C51.3458 102.275 42.9751 108.577 32.4105 107.088C22.1393 105.64 15.0845 98.3607 17.0287 84.568C19.3451 68.1341 32.1731 47.1961 43.4175 31.1228ZM61.9283 90.8968C64.2447 74.463 77.0727 53.5249 88.3171 37.4516L102.2 43.0001L79.6702 75.4401L79.2979 78.0812C91.7888 78.6447 99.3477 86.5939 97.6932 98.3324C96.2454 108.604 87.8747 114.906 77.3101 113.417C67.0389 111.969 59.9842 104.689 61.9283 90.8968Z"/>
</mask>
<path d="M43.4175 31.1228L57.3007 36.6712L34.7706 69.1113L34.3983 71.7524C46.8891 72.3159 54.4481 80.2651 52.7935 92.0035C51.3458 102.275 42.9751 108.577 32.4105 107.088C22.1393 105.64 15.0845 98.3607 17.0287 84.568C19.3451 68.1341 32.1731 47.1961 43.4175 31.1228ZM61.9283 90.8968C64.2447 74.463 77.0727 53.5249 88.3171 37.4516L102.2 43.0001L79.6702 75.4401L79.2979 78.0812C91.7888 78.6447 99.3477 86.5939 97.6932 98.3324C96.2454 108.604 87.8747 114.906 77.3101 113.417C67.0389 111.969 59.9842 104.689 61.9283 90.8968Z" fill="#191816"/>
<path d="M43.4175 31.1228L44.8423 27.5575L42.016 26.4279L40.2714 28.9219L43.4175 31.1228ZM57.3007 36.6712L60.4542 38.8614L63.2075 34.8971L58.7256 33.1059L57.3007 36.6712ZM34.7706 69.1113L31.617 66.9211L31.0961 67.6711L30.9686 68.5754L34.7706 69.1113ZM34.3983 71.7524L30.5964 71.2165L30.007 75.3977L34.2253 75.588L34.3983 71.7524ZM88.3171 37.4516L89.7419 33.8863L86.9157 32.7568L85.171 35.2507L88.3171 37.4516ZM102.2 43L105.354 45.1902L108.107 41.2259L103.625 39.4347L102.2 43ZM79.6702 75.4401L76.5166 73.2499L75.9957 73.9999L75.8683 74.9042L79.6702 75.4401ZM79.2979 78.0812L75.496 77.5453L74.9066 81.7266L79.1249 81.9169L79.2979 78.0812ZM41.9926 34.6881L55.8758 40.2366L58.7256 33.1059L44.8423 27.5575L41.9926 34.6881ZM54.1471 34.481L31.617 66.9211L37.9241 71.3015L60.4542 38.8614L54.1471 34.481ZM30.9686 68.5754L30.5964 71.2165L38.2002 72.2883L38.5725 69.6472L30.9686 68.5754ZM34.2253 75.588C39.7154 75.8357 43.674 77.6783 46.0753 80.2875C48.4301 82.846 49.6827 86.565 48.9916 91.4676L56.5955 92.5394C57.559 85.7037 55.8594 79.5788 51.7256 75.0873C47.6384 70.6463 41.572 68.2326 34.5713 67.9168L34.2253 75.588ZM48.9916 91.4676C48.399 95.6717 46.4342 98.8633 43.7294 100.875C41.0227 102.888 37.3269 103.904 32.9464 103.286L31.8746 110.89C38.0587 111.762 43.8305 110.37 48.3123 107.037C52.7959 103.702 55.7403 98.6065 56.5955 92.5394L48.9916 91.4676ZM32.9464 103.286C28.5603 102.668 25.2571 100.872 23.2062 98.1479C21.1652 95.4372 19.9613 91.2715 20.8306 85.1039L13.2267 84.0321C12.152 91.6572 13.5033 98.0275 17.0715 102.767C20.6297 107.493 25.9895 110.06 31.8746 110.89L32.9464 103.286ZM20.8306 85.1039C21.8972 77.5367 25.445 68.6553 30.2715 59.5008C35.069 50.4012 40.9875 41.2944 46.5635 33.3237L40.2714 28.9219C34.603 37.0245 28.4853 46.4234 23.4787 55.9195C18.501 65.3609 14.4765 75.1655 13.2267 84.0321L20.8306 85.1039ZM65.7302 91.4327C66.7969 83.8655 70.3446 74.9841 75.1711 65.8297C79.9687 56.73 85.8871 47.6232 91.4632 39.6525L85.171 35.2507C79.5026 43.3534 73.3849 52.7522 68.3783 62.2484C63.4006 71.6897 59.3762 81.4943 58.1264 90.3609L65.7302 91.4327ZM86.8922 41.017L100.775 46.5654L103.625 39.4347L89.7419 33.8863L86.8922 41.017ZM99.0468 40.8099L76.5166 73.2499L82.8238 77.6303L105.354 45.1902L99.0468 40.8099ZM75.8683 74.9042L75.496 77.5453L83.0998 78.6171L83.4721 75.976L75.8683 74.9042ZM79.1249 81.9169C84.615 82.1645 88.5736 84.0071 90.9749 86.6163C93.3297 89.1748 94.5823 92.8938 93.8912 97.7965L101.495 98.8683C102.459 92.0325 100.759 85.9076 96.6252 81.4161C92.538 76.9752 86.4716 74.5614 79.4709 74.2456L79.1249 81.9169ZM93.8912 97.7965C93.2986 102.001 91.3338 105.192 88.629 107.204C85.9224 109.217 82.2266 110.232 77.846 109.615L76.7742 117.219C82.9583 118.09 88.7301 116.699 93.2119 113.365C97.6955 110.031 100.64 104.935 101.495 98.8683L93.8912 97.7965ZM77.846 109.615C73.4599 108.997 70.1567 107.201 68.1058 104.477C66.0649 101.766 64.8609 97.6003 65.7302 91.4327L58.1264 90.3609C57.0516 97.986 58.4029 104.356 61.9712 109.096C65.5293 113.821 70.8891 116.389 76.7742 117.219L77.846 109.615Z" fill="black" mask="url(#path-1-outside-1_1_16910)"/>
<mask id="path-3-outside-2_1_16910" maskUnits="userSpaceOnUse" x="8.0391" y="20.3078" width="97.7331" height="94.3306" fill="black">
<rect fill="white" x="8.0391" y="20.3078" width="97.7331" height="94.3306"/>
<path d="M40.1518 26.7826L54.0351 32.331L31.5049 64.7711L31.1327 67.4122C43.6235 67.9757 51.1825 75.9249 49.5279 87.6633C48.0801 97.9345 39.7095 104.237 29.1449 102.748C18.8737 101.3 11.8189 94.0205 13.7631 80.2278C16.0795 63.7939 28.9075 42.8559 40.1518 26.7826ZM58.6627 86.5566C60.9791 70.1228 73.8071 49.1847 85.0514 33.1114L98.9347 38.6598L76.4046 71.0999L76.0323 73.741C88.5231 74.3045 96.0821 82.2537 94.4275 93.9922C92.9798 104.263 84.6091 110.566 74.0445 109.077C63.7733 107.629 56.7185 100.349 58.6627 86.5566Z"/>
</mask>
<path d="M40.1518 26.7826L54.0351 32.331L31.5049 64.7711L31.1327 67.4122C43.6235 67.9757 51.1825 75.9249 49.5279 87.6633C48.0801 97.9345 39.7095 104.237 29.1449 102.748C18.8737 101.3 11.8189 94.0205 13.7631 80.2278C16.0795 63.7939 28.9075 42.8559 40.1518 26.7826ZM58.6627 86.5566C60.9791 70.1228 73.8071 49.1847 85.0514 33.1114L98.9347 38.6598L76.4046 71.0999L76.0323 73.741C88.5231 74.3045 96.0821 82.2537 94.4275 93.9922C92.9798 104.263 84.6091 110.566 74.0445 109.077C63.7733 107.629 56.7185 100.349 58.6627 86.5566Z" fill="white"/>
<path d="M40.1518 26.7826L41.0975 24.4162L39.2217 23.6666L38.0637 25.3218L40.1518 26.7826ZM54.0351 32.331L56.1281 33.7847L57.9555 31.1535L54.9808 29.9647L54.0351 32.331ZM31.5049 64.7711L29.4119 63.3174L29.0662 63.8152L28.9816 64.4154L31.5049 64.7711ZM31.1327 67.4122L28.6093 67.0565L28.2181 69.8317L31.0178 69.958L31.1327 67.4122ZM85.0514 33.1114L85.9971 30.7451L84.1213 29.9954L82.9633 31.6506L85.0514 33.1114ZM98.9347 38.6598L101.028 40.1135L102.855 37.4823L99.8804 36.2935L98.9347 38.6598ZM76.4046 71.0999L74.3115 69.6462L73.9658 70.144L73.8812 70.7442L76.4046 71.0999ZM76.0323 73.741L73.5089 73.3853L73.1177 76.1605L75.9174 76.2868L76.0323 73.741ZM39.2061 29.1489L53.0894 34.6974L54.9808 29.9647L41.0975 24.4162L39.2061 29.1489ZM51.942 30.8774L29.4119 63.3174L33.598 66.2247L56.1281 33.7847L51.942 30.8774ZM28.9816 64.4154L28.6093 67.0565L33.6561 67.7679L34.0283 65.1267L28.9816 64.4154ZM31.0178 69.958C36.762 70.2171 41.0749 72.1557 43.7598 75.0729C46.4137 77.9564 47.7414 82.0799 47.0045 87.3077L52.0513 88.019C52.969 81.5083 51.3446 75.7879 47.5099 71.6214C43.7062 67.4885 37.9942 65.1708 31.2475 64.8665L31.0178 69.958ZM47.0045 87.3077C46.3678 91.825 44.2383 95.3366 41.2343 97.5709C38.2292 99.8061 34.1843 100.885 29.5005 100.224L28.7892 105.271C34.67 106.1 40.0928 104.772 44.2761 101.66C48.4606 98.548 51.2403 93.7728 52.0513 88.019L47.0045 87.3077ZM29.5005 100.224C24.8624 99.5706 21.2134 97.6449 18.909 94.5843C16.6113 91.5326 15.3825 86.9961 16.2864 80.5835L11.2397 79.8721C10.1994 87.2521 11.526 93.2518 14.8374 97.6499C18.1422 102.039 23.1561 104.477 28.7892 105.271L29.5005 100.224ZM16.2864 80.5835C17.3839 72.7978 21.0118 63.7611 25.8637 54.5585C30.6964 45.3921 36.6484 36.2362 42.2399 28.2434L38.0637 25.3218C32.4109 33.4023 26.3267 42.752 21.3552 52.1815C16.4029 61.5746 12.4587 71.2239 11.2397 79.8721L16.2864 80.5835ZM61.1861 86.9123C62.2835 79.1266 65.9114 70.09 70.7633 60.8873C75.596 51.721 81.548 42.565 87.1395 34.5722L82.9633 31.6506C77.3105 39.7311 71.2263 49.0808 66.2549 58.5103C61.3026 67.9034 57.3583 77.5528 56.1393 86.2009L61.1861 86.9123ZM84.1057 35.4778L97.989 41.0262L99.8804 36.2935L85.9971 30.7451L84.1057 35.4778ZM96.8416 37.2062L74.3115 69.6462L78.4976 72.5535L101.028 40.1135L96.8416 37.2062ZM73.8812 70.7442L73.5089 73.3853L78.5557 74.0967L78.928 71.4556L73.8812 70.7442ZM75.9174 76.2868C81.6616 76.5459 85.9746 78.4845 88.6594 81.4017C91.3133 84.2853 92.641 88.4088 91.9041 93.6365L96.9509 94.3478C97.8686 87.8371 96.2442 82.1168 92.4095 77.9503C88.6058 73.8173 82.8938 71.4996 76.1471 71.1953L75.9174 76.2868ZM91.9041 93.6365C91.2674 98.1538 89.1379 101.665 86.134 103.9C83.1288 106.135 79.084 107.213 74.4002 106.553L73.6888 111.6C79.5696 112.429 84.9924 111.101 89.1757 107.989C93.3602 104.877 96.1399 100.102 96.9509 94.3478L91.9041 93.6365ZM74.4002 106.553C69.762 105.899 66.1131 103.974 63.8087 100.913C61.5109 97.8614 60.2822 93.325 61.1861 86.9123L56.1393 86.2009C55.099 93.5809 56.4256 99.5806 59.737 103.979C63.0418 108.368 68.0558 110.806 73.6888 111.6L74.4002 106.553Z" fill="black" mask="url(#path-3-outside-2_1_16910)"/>
</svg>
