<svg width="156" height="125" viewBox="0 0 156 125" fill="none" xmlns="http://www.w3.org/2000/svg">
<g filter="url(#filter0_d_202_4610)">
<path d="M114.19 6.72111L128.756 71.6824C129.585 75.3782 127.793 78.9574 124.771 79.635L29.0725 101.093C26.0537 101.77 22.9019 99.2995 22.0732 95.6037L7.50704 30.6424C6.67835 26.9466 8.47025 23.3675 11.4923 22.6899L107.194 1.23089C110.213 0.553983 113.361 3.02214 114.19 6.72111Z" fill="white" stroke="#0F0F0F" stroke-width="2" stroke-miterlimit="10"/>
<path d="M114.17 6.63128L114.645 8.75185L7.96239 32.6732L7.4869 30.5526C6.669 26.9049 8.47025 23.3675 11.4923 22.6899L107.194 1.23089C110.213 0.553983 113.352 2.98364 114.17 6.63128Z" fill="#0F0F0F" stroke="#0F0F0F" stroke-width="2" stroke-miterlimit="10"/>
<path d="M13.9683 28.807C15.1058 28.5519 15.8227 27.4302 15.5696 26.3016C15.3166 25.1729 14.1893 24.4648 13.0518 24.7198C11.9143 24.9749 11.1973 26.0966 11.4504 27.2252C11.7035 28.3539 12.8308 29.062 13.9683 28.807Z" fill="#F64646"/>
<path d="M21.8589 27.0374C22.9964 26.7824 23.7133 25.6607 23.4603 24.532C23.2072 23.4034 22.0799 22.6952 20.9424 22.9503C19.8049 23.2053 19.088 24.327 19.341 25.4557C19.5941 26.5843 20.7214 27.2925 21.8589 27.0374Z" fill="#FFE13A"/>
<path d="M30.7806 22.8914C31.0338 24.0207 30.3181 25.1414 29.1792 25.3968C28.0403 25.6522 26.9146 24.9443 26.6614 23.8151C26.4081 22.6858 27.1239 21.565 28.2627 21.3097C29.4016 21.0543 30.5274 21.7622 30.7806 22.8914Z" fill="#23EF23"/>
<path d="M35.432 44.829L19.6236 57.9968L19.028 55.3405L32.5041 44.3939L32.4868 44.3169L15.6269 40.1724L15.0312 37.5161L34.9486 42.6732L35.432 44.829Z" fill="#0F0F0F"/>
<path d="M59.9206 51.9935L60.3522 53.9183L41.1035 58.2344L40.6719 56.3096L59.9206 51.9935Z" fill="#0F0F0F"/>
</g>
<path d="M144.169 120L113.678 95.7819V105.521L102.72 106.937L94.0916 74.2479V61L140.636 72.358V85.9076L137.673 91.251L153 102.08V115.192L144.169 120Z" fill="black" stroke="black" stroke-width="1.5" stroke-linejoin="round"/>
<path d="M153 102.08L144.208 106.844L110.538 80.0654L113.521 92.4084L102.347 93.6642L94 61L140.636 72.358L136.986 79.3636L119.375 75.1713L153 102.08Z" fill="white" stroke="black" stroke-width="1.5" stroke-linejoin="round"/>
<defs>
<filter id="filter0_d_202_4610" x="2.45371" y="0.114258" width="127.501" height="105.934" filterUnits="userSpaceOnUse" color-interpolation-filters="sRGB">
<feFlood flood-opacity="0" result="BackgroundImageFix"/>
<feColorMatrix in="SourceAlpha" type="matrix" values="0 0 0 0 0 0 0 0 0 0 0 0 0 0 0 0 0 0 127 0" result="hardAlpha"/>
<feOffset dx="-3.8395" dy="3.8395"/>
<feComposite in2="hardAlpha" operator="out"/>
<feColorMatrix type="matrix" values="0 0 0 0 0 0 0 0 0 0 0 0 0 0 0 0 0 0 1 0"/>
<feBlend mode="normal" in2="BackgroundImageFix" result="effect1_dropShadow_202_4610"/>
<feBlend mode="normal" in="SourceGraphic" in2="effect1_dropShadow_202_4610" result="shape"/>
</filter>
</defs>
</svg>
