<svg width="48" height="48" viewBox="0 0 48 48" fill="none" xmlns="http://www.w3.org/2000/svg">
<path d="M39.08 13.08L32.94 6.94C31.06 5.06 28.52 4 25.86 4H16C10 4 6 8 6 14V34C6 40 10 44 16 44H32C38 44 42 40 42 34V20.14C42 17.48 40.94 14.94 39.08 13.08ZM20.06 34.94C20.64 35.52 20.64 36.48 20.06 37.06C19.76 37.36 19.38 37.5 19 37.5C18.62 37.5 18.24 37.36 17.94 37.06L13.94 33.06C13.36 32.48 13.36 31.52 13.94 30.94L17.94 26.94C18.52 26.36 19.48 26.36 20.06 26.94C20.64 27.52 20.64 28.48 20.06 29.06L17.12 32L20.06 34.94ZM34.06 33.06L30.06 37.06C29.76 37.36 29.38 37.5 29 37.5C28.62 37.5 28.24 37.36 27.94 37.06C27.36 36.48 27.36 35.52 27.94 34.94L30.88 32L27.94 29.06C27.36 28.48 27.36 27.52 27.94 26.94C28.52 26.36 29.48 26.36 30.06 26.94L34.06 30.94C34.64 31.52 34.64 32.48 34.06 33.06Z" fill="#2E2E2E"/>
</svg>
