<svg width="48" height="48" viewBox="0 0 48 48" fill="none" xmlns="http://www.w3.org/2000/svg">
<path d="M33.6544 31.2798C34.9944 30.3998 36.7544 31.3598 36.7544 32.9598V35.5398C36.7544 38.0798 34.7744 40.7998 32.3944 41.5998L26.0144 43.7198C24.8944 44.0998 23.0744 44.0998 21.9744 43.7198L15.5944 41.5998C13.1944 40.7998 11.2344 38.0798 11.2344 35.5398V32.9398C11.2344 31.3598 12.9944 30.3998 14.3144 31.2598L18.4344 33.9398C20.0144 34.9998 22.0144 35.5198 24.0144 35.5198C26.0144 35.5198 28.0144 34.9998 29.5944 33.9398L33.6544 31.2798Z" fill="#2E2E2E"/>
<path d="M39.9669 12.9201L27.9869 5.06012C25.8269 3.64012 22.2669 3.64012 20.1069 5.06012L8.06687 12.9201C4.20688 15.4201 4.20688 21.0801 8.06687 23.6001L11.2669 25.6801L20.1069 31.4401C22.2669 32.8601 25.8269 32.8601 27.9869 31.4401L36.7669 25.6801L39.5069 23.8801V30.0001C39.5069 30.8201 40.1869 31.5001 41.0069 31.5001C41.8269 31.5001 42.5069 30.8201 42.5069 30.0001V20.1601C43.3069 17.5801 42.4869 14.5801 39.9669 12.9201Z" fill="#2E2E2E"/>
</svg>
