<svg width="342" height="181" viewBox="0 0 342 181" fill="none" xmlns="http://www.w3.org/2000/svg">
<g filter="url(#filter0_d_1_3447)">
<path d="M111.047 141C111.047 141 110.953 141 110.86 141C110.766 141 110.578 141 110.484 141C110.672 141 110.86 141 111.047 141Z" fill="white" stroke="#2E2E2E" stroke-width="2" stroke-miterlimit="10" stroke-linejoin="bevel"/>
<path d="M108.142 140.626C108.048 140.626 107.954 140.626 107.954 140.532L107.672 140.438C107.86 140.532 108.048 140.626 108.142 140.626Z" fill="white" stroke="#2E2E2E" stroke-width="2" stroke-miterlimit="10" stroke-linejoin="bevel"/>
<path d="M109.642 140.907C109.547 140.907 109.547 140.907 109.642 140.907C109.547 140.907 109.547 140.907 109.547 140.907C109.547 140.907 109.547 140.907 109.642 140.907Z" fill="white" stroke="#2E2E2E" stroke-width="2" stroke-miterlimit="10" stroke-linejoin="bevel"/>
<path d="M105.79 139.688C105.696 139.594 105.602 139.594 105.414 139.5C105.414 139.5 105.32 139.5 105.32 139.406C105.508 139.594 105.602 139.688 105.79 139.688Z" fill="white" stroke="#2E2E2E" stroke-width="2" stroke-miterlimit="10" stroke-linejoin="bevel"/>
<path d="M106.915 140.251C106.821 140.157 106.727 140.157 106.633 140.157C106.539 140.157 106.445 140.062 106.445 140.062C106.539 140.157 106.727 140.157 106.915 140.251Z" fill="white" stroke="#2E2E2E" stroke-width="2" stroke-miterlimit="10" stroke-linejoin="bevel"/>
<path d="M105.133 139.312C105.039 139.218 104.946 139.218 104.852 139.124C104.664 139.03 104.477 138.843 104.383 138.749C104.57 139.03 104.852 139.218 105.133 139.312Z" fill="white" stroke="#2E2E2E" stroke-width="2" stroke-miterlimit="10" stroke-linejoin="bevel"/>
<path d="M104.095 138.656C104 138.562 104 138.562 104 138.562C104 138.656 104.095 138.656 104.095 138.656Z" fill="white" stroke="#2E2E2E" stroke-width="2" stroke-miterlimit="10" stroke-linejoin="bevel"/>
<path d="M26.1562 47.582C26.251 47.582 26.251 47.582 26.1562 47.582C26.251 47.582 26.251 47.582 26.251 47.582" fill="white"/>
<path d="M26.1562 47.582C26.251 47.582 26.251 47.582 26.1562 47.582C26.251 47.582 26.251 47.582 26.251 47.582" stroke="#2E2E2E" stroke-width="2" stroke-miterlimit="10" stroke-linejoin="bevel"/>
<path d="M24.376 51.2413L24.2812 51.1465C24.376 51.1465 24.376 51.2413 24.376 51.2413Z" fill="white" stroke="#2E2E2E" stroke-width="2" stroke-miterlimit="10" stroke-linejoin="bevel"/>
<path d="M207.65 119.615C207.556 119.709 207.368 119.709 207.18 119.803C207.274 119.803 207.368 119.709 207.368 119.709C207.462 119.615 207.556 119.615 207.65 119.615Z" fill="white" stroke="#2E2E2E" stroke-width="2" stroke-miterlimit="10" stroke-linejoin="bevel"/>
<path d="M206.907 119.803C206.813 119.803 206.812 119.803 206.812 119.803H206.907Z" fill="white" stroke="#2E2E2E" stroke-width="2" stroke-miterlimit="10" stroke-linejoin="bevel"/>
<path d="M206.907 119.803C206.813 119.803 206.812 119.803 206.812 119.803H206.907Z" fill="white" stroke="#2E2E2E" stroke-width="2" stroke-miterlimit="10" stroke-linejoin="bevel"/>
<path d="M207.65 119.615C207.556 119.709 207.368 119.709 207.18 119.803C207.274 119.803 207.368 119.709 207.368 119.709C207.462 119.615 207.556 119.615 207.65 119.615Z" fill="white" stroke="#2E2E2E" stroke-width="2" stroke-miterlimit="10" stroke-linejoin="bevel"/>
<path d="M207.367 119.615C207.273 119.615 207.18 119.709 207.18 119.709C207.367 119.615 207.461 119.615 207.649 119.521C207.555 119.615 207.461 119.615 207.367 119.615ZM206.898 119.803C206.805 119.803 206.898 119.803 206.898 119.803C206.805 119.897 206.898 119.897 206.898 119.803ZM106.633 140.156C106.727 140.156 106.821 140.25 106.821 140.25H106.914C106.727 140.156 106.539 140.156 106.352 140.062C106.445 140.062 106.539 140.062 106.633 140.156Z" fill="white" stroke="#2E2E2E" stroke-width="2" stroke-miterlimit="10" stroke-linejoin="bevel"/>
<path d="M208.304 114.55L169.099 71.4991C167.035 69.2481 162.908 67.935 159.907 68.5915L132.707 74.6881C130.081 75.2509 126.423 74.1253 124.641 72.1557L92.5631 37.0769C90.4997 34.8258 86.3728 33.5127 83.3714 34.1693L26.72 46.8314C25.2193 47.2066 24.2814 47.9569 24 48.8949C24 48.9887 24 48.9887 24 49.0824C24 49.1762 24 49.1762 24 49.27C24 49.3638 24 49.3638 24 49.4576C24 49.5514 24 49.5514 24 49.6452C24 49.739 24 49.8328 24 49.8328C24 49.9266 24 49.9266 24 50.0204C24 50.1142 24 50.208 24.0938 50.208C24.0938 50.3018 24.0938 50.3018 24.0938 50.3956C24.0938 50.4893 24.1876 50.5831 24.1876 50.6769C24.1876 50.7707 24.1876 50.7707 24.2814 50.8645C24.2814 50.9583 24.3752 51.0521 24.3752 51.1459L24.469 51.2397C24.5628 51.3335 24.5628 51.4273 24.6566 51.5211L24.7503 51.6149C24.8441 51.8025 24.9379 51.8963 25.1255 52.0838L103.256 137.905C103.349 137.999 103.443 138.186 103.631 138.28C103.725 138.374 103.725 138.374 103.818 138.374C103.818 138.374 103.818 138.374 103.912 138.374L104.006 138.468L104.1 138.562C104.194 138.562 104.194 138.655 104.287 138.655C104.569 138.843 104.85 139.031 105.131 139.218C105.225 139.218 105.225 139.312 105.319 139.312H105.413C105.507 139.406 105.694 139.5 105.788 139.5C105.882 139.593 105.976 139.593 106.069 139.687C106.163 139.687 106.257 139.781 106.257 139.781L106.445 139.875C106.632 139.968 106.82 140.062 107.007 140.062C107.101 140.062 107.195 140.156 107.383 140.156L107.758 140.25C107.945 140.344 108.133 140.344 108.32 140.437C108.32 140.437 108.32 140.437 108.414 140.437C108.602 140.437 108.696 140.531 108.883 140.531H108.977C109.071 140.531 109.071 140.531 109.165 140.531C109.352 140.531 109.54 140.625 109.727 140.625H109.821C109.915 140.625 109.915 140.625 110.009 140.625C110.29 140.625 110.478 140.625 110.759 140.625C110.947 140.625 111.134 140.625 111.228 140.625C111.322 140.625 111.322 140.625 111.416 140.625C111.509 140.625 111.603 140.625 111.697 140.625C112.072 140.625 112.447 140.531 112.729 140.437L206.804 119.521H206.898C206.898 119.521 206.898 119.521 206.991 119.521H207.085H207.179H207.273C207.367 119.521 207.46 119.428 207.46 119.428C207.554 119.428 207.554 119.428 207.648 119.334C207.648 119.334 207.648 119.334 207.742 119.334C207.835 119.24 207.929 119.24 208.023 119.24H208.117L208.211 119.146C208.211 119.146 208.211 119.146 208.304 119.146C208.304 119.146 208.398 119.052 208.492 119.052L208.586 118.959L208.68 118.865L208.773 118.771L208.867 118.677L208.961 118.584L209.055 118.49L209.149 118.396V118.302C209.149 118.208 209.149 118.208 209.242 118.115C209.711 117.083 209.336 115.77 208.304 114.55Z" fill="white" stroke="#2E2E2E" stroke-width="2" stroke-miterlimit="10" stroke-linejoin="bevel"/>
<path d="M161.505 87.3506L130.928 94.1037C128.677 94.5727 127.927 96.261 129.24 97.7617L136.837 106.109C138.244 107.61 141.152 108.36 143.403 107.891L152.97 105.734" fill="white"/>
<path d="M161.505 87.3506L130.928 94.1037C128.677 94.5727 127.927 96.261 129.24 97.7617L136.837 106.109C138.244 107.61 141.152 108.36 143.403 107.891L152.97 105.734" stroke="#2E2E2E" stroke-width="2" stroke-miterlimit="10" stroke-linejoin="bevel"/>
<path d="M155.963 92.1345L163.373 86.8821L150.617 86.3193" stroke="#2E2E2E" stroke-width="2" stroke-miterlimit="10" stroke-linejoin="bevel"/>
</g>
<path d="M224.151 64.6733C211.01 60.916 203.406 47.2105 207.164 34.0556C210.921 20.9146 224.627 13.3112 237.781 17.0685L278.816 28.8205C291.957 32.5778 299.56 46.2833 295.803 59.4382C292.045 72.5931 278.34 80.1826 265.185 76.4253L239.487 69.0661L218.373 84.9127L224.151 64.6733Z" fill="black" stroke="black" stroke-width="2" stroke-miterlimit="10" stroke-linecap="round" stroke-linejoin="round"/>
<path d="M230.596 66.5239C217.455 62.7666 209.852 49.0611 213.609 35.9062C217.366 22.7652 231.072 15.1617 244.227 18.9191L285.261 30.6711C298.402 34.4284 306.005 48.1339 302.248 61.2888C298.491 74.4298 284.785 82.0332 271.63 78.2758L245.932 70.9168L224.819 86.7633L230.596 66.5239Z" fill="white" stroke="black" stroke-width="2" stroke-miterlimit="10" stroke-linecap="round" stroke-linejoin="round"/>
<path d="M232.757 43.4036L233.548 40.6532L249.688 36.0507L248.615 39.8152L236.848 42.9486L236.778 43.1848L245.083 52.1088L244.01 55.8733L232.757 43.4036Z" fill="black"/>
<path d="M246.099 61.6403L263.966 34.3884L267.119 35.2924L249.252 62.5443L246.099 61.6403Z" fill="black"/>
<path d="M265.532 57.943L277.298 54.7678L277.369 54.5317L269.049 45.6494L270.122 41.8849L281.375 54.3407L280.584 57.0911L264.444 61.6936L265.532 57.943Z" fill="black"/>
<defs>
<filter id="filter0_d_1_3447" x="13" y="33" width="197.444" height="119" filterUnits="userSpaceOnUse" color-interpolation-filters="sRGB">
<feFlood flood-opacity="0" result="BackgroundImageFix"/>
<feColorMatrix in="SourceAlpha" type="matrix" values="0 0 0 0 0 0 0 0 0 0 0 0 0 0 0 0 0 0 127 0" result="hardAlpha"/>
<feOffset dx="-10" dy="10"/>
<feComposite in2="hardAlpha" operator="out"/>
<feColorMatrix type="matrix" values="0 0 0 0 0 0 0 0 0 0 0 0 0 0 0 0 0 0 1 0"/>
<feBlend mode="normal" in2="BackgroundImageFix" result="effect1_dropShadow_1_3447"/>
<feBlend mode="normal" in="SourceGraphic" in2="effect1_dropShadow_1_3447" result="shape"/>
</filter>
</defs>
</svg>
