<svg width="342" height="326" viewBox="0 0 342 326" fill="none" xmlns="http://www.w3.org/2000/svg">
<path d="M24.5639 149.415C26.3726 149.415 27.8388 147.949 27.8388 146.14C27.8388 144.331 26.3726 142.865 24.5639 142.865C22.7553 142.865 21.2891 144.331 21.2891 146.14C21.2891 147.949 22.7553 149.415 24.5639 149.415Z" stroke="black" stroke-width="1.52413"/>
<path d="M30.1274 146.812C36.6992 146.145 47.0109 146.934 48.2297 151.947C49.4485 156.96 44.7944 158.794 42.3151 159.084C32.8757 160.563 20.3594 159.867 20.3594 151.947" stroke="black" stroke-width="1.52413" stroke-linecap="round"/>
<path d="M27.8422 155.029C28.3589 155.029 28.7778 154.61 28.7778 154.093C28.7778 153.577 28.3589 153.158 27.8422 153.158C27.3254 153.158 26.9065 153.577 26.9065 154.093C26.9065 154.61 27.3254 155.029 27.8422 155.029Z" stroke="black" stroke-width="1.52413"/>
<path d="M35.3245 154.094C35.3245 154.548 34.9615 155.03 34.3888 155.03C33.8161 155.03 33.4531 154.548 33.4531 154.094C33.4531 153.639 33.8161 153.158 34.3888 153.158C34.9615 153.158 35.3245 153.639 35.3245 154.094Z" stroke="black" stroke-width="1.52413"/>
<path d="M40.9435 155.03C41.4602 155.03 41.8792 154.611 41.8792 154.094C41.8792 153.577 41.4602 153.158 40.9435 153.158C40.4267 153.158 40.0078 153.577 40.0078 154.094C40.0078 154.611 40.4267 155.03 40.9435 155.03Z" stroke="black" stroke-width="1.52413"/>
<path d="M270.182 57.7195C271.732 57.7195 272.989 56.4628 272.989 54.9125C272.989 53.3622 271.732 52.1055 270.182 52.1055C268.632 52.1055 267.375 53.3622 267.375 54.9125C267.375 56.4628 268.632 57.7195 270.182 57.7195Z" stroke="black" stroke-width="1.52413"/>
<path d="M276.579 52.1055C278.797 52.1055 285.137 52.1055 288.119 52.1055C290.535 52.1055 291.698 52.6434 291.698 56.4082C291.698 60.0661 291.668 64.8044 291.698 66.7168C291.719 68.0613 291.054 69.5494 288.835 69.7645C286.616 69.9796 277.712 69.8541 273.537 69.7645C271.986 69.7645 269.242 68.8796 269.242 65.2824V61.2486" stroke="black" stroke-width="1.52413" stroke-linecap="round"/>
<path d="M274.859 58.6553L280.473 62.398" stroke="black" stroke-width="1.52413" stroke-linecap="round"/>
<path d="M280.477 62.3977L290.769 53.041" stroke="black" stroke-width="1.52413" stroke-linecap="round"/>
<path d="M283.281 59.5908L286.088 62.3978L288.895 65.2049" stroke="black" stroke-width="1.52413" stroke-linecap="round"/>
<path d="M272.992 65.2049L276.735 59.5908" stroke="black" stroke-width="1.52413" stroke-linecap="round"/>
<path d="M292.999 245.86C292.17 246.686 291.455 247.399 290.963 247.89C289.679 249.17 288.331 248.423 287.817 247.89L279.627 240.033C278.417 238.914 277.395 237.809 272.825 233.468C272.357 233.002 271.616 231.811 272.393 230.778C273.17 229.745 277.539 224.32 279.627 221.737C280.26 220.824 281.636 219.738 283.391 221.362C284.902 222.762 290.084 227.605 294.511 231.287" stroke="black" stroke-width="1.52413" stroke-linecap="round"/>
<path d="M279.539 222.397C279.802 227.053 281.579 234.548 290.767 237.368" stroke="black" stroke-width="1.52413" stroke-linecap="round"/>
<path d="M301.997 237.769C301.566 236.678 298.256 235.407 297.004 237.769C295.715 240.205 296.701 242.258 297.54 242.66C298.611 243.174 300.184 243.443 301.845 240.485" stroke="black" stroke-width="1.52413" stroke-linecap="round"/>
<path d="M302.172 235.996C302.082 236.528 301.99 236.751 301.917 237.413C301.822 238.274 301.761 239.177 301.776 239.945C301.805 241.293 302.073 242.223 302.832 241.774C304.355 240.874 305.177 240.135 305.396 239.383C305.761 238.116 305.763 235.691 303.71 234.106C301.233 232.192 298.44 232.244 296.243 234.106C294.062 235.954 293.465 238.912 293.585 240.447C293.715 242.126 294.972 245.732 299.073 245.788C303.172 245.845 305.393 243.641 305.734 242.609" stroke="black" stroke-width="1.52413" stroke-linecap="round"/>
<path d="M80.2359 206.535C79.3389 202.928 76.3602 196.275 71.6234 198.524C66.8864 200.773 69.6495 204.802 71.6234 206.535C72.9516 207.472 75.807 208.475 76.6025 204.989C77.3979 201.504 74.0457 200.07 73.1035 201.616C72.6067 202.225 72.0456 203.752 73.7765 204.989" stroke="black" stroke-width="1.52413" stroke-linecap="round"/>
<path d="M101.321 37.8164C101.101 36.5716 102.401 35.6135 103.522 36.1951L105.787 37.371C106.677 37.8329 107.737 37.8266 108.621 37.354L110.874 36.1511C111.988 35.5561 113.299 36.4985 113.092 37.7458L112.674 40.2676C112.51 41.2583 112.843 42.2661 113.565 42.9627L115.402 44.7358C116.311 45.6129 115.82 47.1534 114.572 47.3427L112.049 47.7253C111.058 47.8757 110.204 48.5049 109.765 49.408L108.648 51.7068C108.096 52.8438 106.482 52.8535 105.917 51.7231L104.775 49.4379C104.327 48.5401 103.466 47.9212 102.473 47.7827L99.9455 47.4303C98.6954 47.256 98.1882 45.7215 99.0873 44.8336L100.905 43.0385C101.619 42.3334 101.941 41.3216 101.766 40.333L101.321 37.8164Z" stroke="black" stroke-width="1.52413"/>
<path d="M178.484 149.415V170.936" stroke="black" stroke-width="1.52413" stroke-linecap="round"/>
<path d="M194.391 152.222V172.807" stroke="black" stroke-width="1.52413" stroke-linecap="round"/>
<path d="M157.652 244.854C152.352 245.522 139.945 247.986 137.227 252.998C136.411 254.502 135.466 258.161 138.205 260.767C140.945 263.374 145.952 262.689 148.112 262.02L160.71 256.883" stroke="black" stroke-width="1.52413" stroke-linecap="round"/>
<path d="M229.6 207.446C219.702 207.762 175.981 228.751 155.358 239.207C153.602 250.728 161.013 259 164.938 261.696C185.494 255.778 227.684 243.784 231.995 243.152C236.306 242.521 240.577 239.47 242.173 238.023C253.35 225.082 245.101 214.087 239.579 210.208C235.648 207.446 232.255 207.361 229.6 207.446Z" fill="black"/>
<path d="M136.568 203.755C143.596 204.226 174.252 216.147 188.777 222.396L155.558 239.052C140.692 243.426 131.559 241.985 128.77 241.042C112.67 233.259 118.978 214.059 125.375 206.946C129.497 203.425 134.051 203.587 136.568 203.755Z" fill="black"/>
<path d="M214.833 246.725C219.153 248.785 221.488 251.483 222.672 253.696C225.21 259.458 220.653 262.922 215.451 261.293C212.576 260.393 211.899 259.79 210.376 258.537C209.603 257.901 205.995 254.574 201.875 250.645" stroke="black" stroke-width="1.52413" stroke-linecap="round"/>
<path d="M131.201 151.238L133.995 202.095C134.217 206.136 137.557 209.298 141.604 209.298H225.133C229.342 209.298 232.754 205.886 232.754 201.677V149.654C232.754 145.405 229.279 141.977 225.03 142.034L138.707 143.2C134.375 143.258 130.964 146.912 131.201 151.238Z" fill="black"/>
<rect x="133.57" y="210.234" width="99.1813" height="4.67836" rx="2.33918" fill="black"/>
<path d="M195.328 115.733C204.05 115.609 223.247 122.175 230.884 142.865" stroke="black" stroke-width="1.52413" stroke-linecap="round"/>
<path d="M175.679 115.731C156.011 119.64 146.609 128.216 139.188 144.737" stroke="black" stroke-width="1.52413" stroke-linecap="round"/>
<path d="M242.109 135.38L246.788 126.959" stroke="black" stroke-width="1.52413" stroke-linecap="round"/>
<path d="M247.727 138.187L254.276 132.573" stroke="black" stroke-width="1.52413" stroke-linecap="round"/>
<path d="M248.664 141.414C249.953 142.016 252.881 142.588 254.278 140.059" stroke="black" stroke-width="1.52413" stroke-linecap="round"/>
<path d="M120.478 133.509L112.992 126.023" stroke="black" stroke-width="1.52413" stroke-linecap="round"/>
<path d="M127.96 132.573L123.281 121.345" stroke="black" stroke-width="1.52413" stroke-linecap="round"/>
<path d="M118.606 138.187L112.992 136.315" stroke="black" stroke-width="1.52413" stroke-linecap="round"/>
<path d="M235.562 156.9C240.195 164.085 245.453 172.632 235.562 188.713" stroke="black" stroke-width="1.52413" stroke-linecap="round"/>
<path d="M194.834 115.864C195.962 112.673 194.935 110.526 193.932 110.117C187.916 115.517 178.791 113.512 175.407 110.24C174.203 111.32 174.905 114.514 175.407 115.496C181.924 122.565 191.2 118.605 194.834 115.864Z" fill="black"/>
<path d="M168.195 136.316L168.615 135.691C171.517 131.366 177.034 129.64 181.884 131.538V131.538C186.227 133.239 191.17 132.044 194.257 128.547L198.137 124.152" stroke="black" stroke-width="1.52413" stroke-linecap="round"/>
<path d="M128.891 161.579C127.132 165.963 125.046 176.591 130.766 184.035" stroke="black" stroke-width="1.52413" stroke-linecap="round"/>
<path d="M211.854 65.3035C209.116 75.1278 207.747 75.9983 203.764 80.3508C203.764 76.0493 203.024 68.8292 203.024 65.8227C189.982 65.8227 178.976 60.5036 175.103 57.8441C175.242 66.8634 166.779 72.7607 166.779 72.7607C166.779 72.7607 167.993 76.4031 168.686 84.5552C169.241 91.0768 167.646 89.8165 166.779 88.371C164.281 80.323 160.188 82.4738 158.454 84.5552C137.173 50.0075 169.9 43.3322 176.143 43.9682C180.86 39.9442 187.439 36.7907 192.064 36.3282C208.742 34.6601 216.294 49.3738 211.854 65.3035Z" fill="black"/>
<path d="M167.258 94.6801C169.489 108.429 184.465 118.315 195.272 107.178C206.079 96.0404 203.916 75.6538 202.761 66.1406" stroke="black" stroke-width="1.52413" stroke-linecap="round"/>
<path d="M158.365 83.918C156.992 87.4094 158.28 95.146 167.255 95.146" stroke="black" stroke-width="1.52413" stroke-linecap="round"/>
<path d="M162.63 85.7896C162.465 86.5619 162.597 88.3916 164.449 89.5322" stroke="black" stroke-width="1.52413" stroke-linecap="round"/>
<path d="M202.812 93.2752C205.948 92.0432 208.158 87.4812 207.307 80.1758" stroke="black" stroke-width="1.52413" stroke-linecap="round"/>
<path d="M185.969 101.516C188.728 102.371 188.553 100.018 190.647 97.9531" stroke="black" stroke-width="1.52413" stroke-linecap="round"/>
<circle cx="195.324" cy="83.9182" r="1.87135" fill="black"/>
<circle cx="178.489" cy="83.9182" r="1.87135" fill="black"/>
<path d="M174.742 79.2396C175.127 78.0538 176.79 75.8601 180.356 76.5716" stroke="black" stroke-width="1.52413" stroke-linecap="round"/>
<path d="M191.586 77.3683C192.437 76.6622 194.75 75.6737 197.2 77.3683" stroke="black" stroke-width="1.52413" stroke-linecap="round"/>
<path d="M186.122 82.9824C185.904 85.3667 185.756 90.2017 186.906 90.4678" stroke="black" stroke-width="1.52413" stroke-linecap="round"/>
<path d="M258.016 196.935C291.379 206.268 351.308 216.988 324.118 185.205C315.537 176.67 302.875 166.665 282.507 157.836" stroke="black" stroke-width="1.52413" stroke-linecap="round"/>
<path d="M293.755 131.637C314.539 118.334 348.018 90.8507 315.665 87.3476C283.313 83.8444 253.773 95.9803 243.047 102.486" stroke="black" stroke-width="1.52413" stroke-linecap="round"/>
<path d="M213.867 111.988C227.582 82.2788 249.775 20.7037 228.829 12.0792C202.646 1.29857 168.734 32.387 141.055 106.598" stroke="black" stroke-width="1.52413" stroke-linecap="round"/>
<path d="M110.181 86.6364C79.35 69.847 16.4092 44.0228 11.2957 75.0417C6.18223 106.061 68.6552 131.935 100.531 140.994" stroke="black" stroke-width="1.52413" stroke-linecap="round"/>
<path d="M108.307 157.836C63.6333 180.827 7.65744 212.623 38.663 229.196C51.3557 235.98 83.8348 231.834 98.7676 225.678" stroke="black" stroke-width="1.52413" stroke-linecap="round"/>
<ellipse cx="182.231" cy="307.544" rx="61.7544" ry="7.48538" fill="black"/>
</svg>
