<svg width="84" height="84" viewBox="0 0 84 84" fill="none" xmlns="http://www.w3.org/2000/svg">
<rect width="84" height="84" rx="23.8687" fill="#50A8E4"/>
<path fill-rule="evenodd" clip-rule="evenodd" d="M21.4471 42.7324C32.3038 37.9029 39.5433 34.719 43.1656 33.1806C53.508 28.7884 55.6571 28.0255 57.0578 28.0003C57.3659 27.9947 58.0547 28.0727 58.5009 28.4424C58.8777 28.7545 58.9813 29.1762 59.0309 29.4721C59.0805 29.7681 59.1423 30.4422 59.0932 30.969C58.5328 36.9816 56.1077 51.5726 54.8739 58.3068C54.3519 61.1563 53.3239 62.1118 52.3288 62.2053C50.1661 62.4085 48.5238 60.746 46.4292 59.344C43.1514 57.1502 41.2997 55.7846 38.1181 53.6439C34.4412 51.1699 36.8247 49.8101 38.9202 47.5879C39.4686 47.0064 48.9975 38.1569 49.1819 37.3541C49.205 37.2537 49.2264 36.8794 49.0086 36.6818C48.7909 36.4842 48.4695 36.5518 48.2376 36.6055C47.9088 36.6817 42.6726 40.2155 32.5288 47.2067C31.0425 48.2488 29.6963 48.7565 28.4901 48.7299C27.1604 48.7006 24.6025 47.9623 22.701 47.3312C20.3688 46.5571 18.5151 46.1479 18.6765 44.8333C18.7606 44.1485 19.6841 43.4483 21.4471 42.7324Z" fill="white"/>
</svg>
