<svg width="49" height="48" viewBox="0 0 49 48" fill="none" xmlns="http://www.w3.org/2000/svg">
<path d="M24.5 4C13.46 4 4.5 12.96 4.5 24C4.5 35.04 13.46 44 24.5 44C35.54 44 44.5 35.04 44.5 24C44.5 12.96 35.54 4 24.5 4ZM17.96 15.32C19.58 15.32 20.92 16.64 20.92 18.28C20.92 19.9 19.6 21.24 17.96 21.24C16.34 21.24 15 19.92 15 18.28C15 16.64 16.32 15.32 17.96 15.32ZM18.2 31.6C17.9 31.9 17.52 32.04 17.14 32.04C16.76 32.04 16.38 31.9 16.08 31.6C15.5 31.02 15.5 30.06 16.08 29.48L29.18 16.38C29.76 15.8 30.72 15.8 31.3 16.38C31.88 16.96 31.88 17.92 31.3 18.5L18.2 31.6ZM31.04 32.68C29.42 32.68 28.08 31.36 28.08 29.72C28.08 28.1 29.4 26.76 31.04 26.76C32.66 26.76 34 28.08 34 29.72C34 31.36 32.68 32.68 31.04 32.68Z" fill="white"/>
</svg>
