<svg width="49" height="48" viewBox="0 0 49 48" fill="none" xmlns="http://www.w3.org/2000/svg">
<path d="M39.4624 5.64044L40.0224 6.78044C40.3024 7.34044 41.0024 7.86044 41.6224 7.98044L42.3824 8.10044C44.6624 8.48044 45.2024 10.1604 43.5624 11.8204L42.8624 12.5204C42.4024 13.0004 42.1424 13.9204 42.2824 14.5604L42.3824 14.9804C43.0024 17.7404 41.5424 18.8004 39.1424 17.3604L38.6224 17.0604C38.0024 16.7004 37.0024 16.7004 36.3824 17.0604L35.8624 17.3604C33.4424 18.8204 31.9824 17.7404 32.6224 14.9804L32.7224 14.5604C32.8624 13.9204 32.6024 13.0004 32.1424 12.5204L31.4424 11.8004C29.8024 10.1404 30.3424 8.46044 32.6224 8.08044L33.3824 7.96044C33.9824 7.86044 34.7024 7.32044 34.9824 6.76044L35.5424 5.62044C36.6224 3.46044 38.3824 3.46044 39.4624 5.64044Z" fill="white"/>
<path d="M43.64 20.18C42.92 20.7 40.9 21.66 38.02 20.18C37.7 20.02 37.3 20 36.98 20.18C35.84 20.76 34.8 21 33.98 21C32.7 21 31.8 20.5 31.36 20.18C30.62 19.64 29.06 18.1 29.6 14.84C29.66 14.5 29.56 14.16 29.34 13.9C27.96 12.32 27.2 10.2 27.74 8.54C27.94 7.88 27.52 7 26.84 7H14.5C8.5 7 4.5 10 4.5 17V31C4.5 38 8.5 41 14.5 41H34.5C40.5 41 44.5 38 44.5 31V20.54C44.5 20.16 43.96 19.96 43.64 20.18ZM29.18 24.18C27.86 25.24 26.18 25.76 24.5 25.76C22.82 25.76 21.12 25.24 19.82 24.18L13.56 19.18C12.92 18.66 12.82 17.7 13.32 17.06C13.84 16.42 14.78 16.3 15.42 16.82L21.68 21.82C23.2 23.04 25.78 23.04 27.3 21.82C27.94 21.3 28.88 21.4 29.4 22.06C29.94 22.7 29.84 23.66 29.18 24.18Z" fill="white"/>
</svg>
