<svg width="197" height="83" viewBox="0 0 197 83" fill="none" xmlns="http://www.w3.org/2000/svg">
<path d="M1 48.153C18.0822 51.625 10.0755 74.928 22.5887 81.1283C37.5334 88.5304 42.6812 46.8568 40.7397 29.1682C40.1786 21.4123 31.0675 17.9632 29.8384 29.1682C28.5292 41.0712 43.4384 87.2263 60.5205 69.416L71.9205 56.3403C75.0911 52.4712 81.3344 47.095 86.6158 56.3403C91.8972 65.5848 100.314 62.5301 103.858 59.8468L115 51.8147" stroke="#F1F3FF" stroke-width="1.5" stroke-linecap="round"/>
<path d="M106.686 15.8796L194.965 1.01363C195.834 0.86645 196.366 1.94694 195.701 2.53742L154.815 39.1462C154.744 39.2043 154.682 39.2528 154.593 39.2845C150.976 40.699 137.094 35.2613 129.7 31.9723C129.204 31.7502 128.627 32.0216 128.477 32.5434C126.775 38.4711 124.718 43.951 123.663 46.5632C123.503 46.9475 123.078 47.1599 122.794 46.8541C120.817 44.6861 120.542 33.6503 120.684 27.3163C120.693 26.8642 120.365 26.4808 119.913 26.3936C114.479 25.3387 107.129 20.5928 104 18.245" stroke="#F1F3FF" stroke-width="1.5" stroke-linecap="round"/>
<path d="M129 32C138.381 27.6542 162.116 16.7707 182 8" stroke="#F1F3FF" stroke-width="1.5" stroke-linecap="round"/>
<path d="M127 23L151 16" stroke="#F1F3FF" stroke-width="1.5" stroke-linecap="round"/>
</svg>
