<svg width="27" height="18" viewBox="0 0 27 18" fill="none" xmlns="http://www.w3.org/2000/svg">
<path fill-rule="evenodd" clip-rule="evenodd" d="M2.71499 17.4682C2.24427 17.3289 1.81478 17.0812 1.46275 16.7458C1.11072 16.4105 0.846483 15.9974 0.692337 15.5415C-0.188495 13.1848 -0.449482 3.34432 1.24693 1.40169C1.81153 0.769739 2.60867 0.380662 3.46533 0.318911C8.01629 -0.158784 22.077 -0.0950911 23.6918 0.478143C24.146 0.621987 24.561 0.864307 24.9056 1.18695C25.2503 1.50959 25.5156 1.90418 25.6819 2.34116C26.6442 4.7774 26.6769 13.6307 25.5514 15.9714C25.2528 16.5807 24.753 17.0742 24.1322 17.3726C22.4358 18.2006 4.966 18.1847 2.71499 17.4682V17.4682ZM9.94107 12.8505L18.0969 8.71043L9.94107 4.53855V12.8505Z" fill="black"/>
</svg>
